<svg width="24" height="25" viewBox="0 0 24 25" fill="none" xmlns="http://www.w3.org/2000/svg">
<path fill-rule="evenodd" clip-rule="evenodd" d="M11.8219 0.930908C5.29297 0.930908 0 6.27003 0 12.8558C0 19.4417 5.29297 24.7808 11.8219 24.7808C18.3508 24.7808 23.6437 19.4417 23.6437 12.8558C23.6437 6.27003 18.3508 0.930908 11.8219 0.930908ZM16.9461 10.8394C17.0405 10.7307 17.1123 10.6039 17.1574 10.4667C17.2025 10.3295 17.2199 10.1846 17.2086 10.0405C17.1974 9.89635 17.1577 9.75597 17.0918 9.62758C17.026 9.49919 16.9353 9.38537 16.8253 9.29283C16.7152 9.20029 16.5878 9.13089 16.4508 9.08872C16.3137 9.04655 16.1697 9.03245 16.0271 9.04727C15.8846 9.06208 15.7464 9.1055 15.6207 9.17498C15.495 9.24446 15.3844 9.33858 15.2954 9.45182L10.6741 15.0446L8.28283 12.6314C8.08014 12.434 7.80866 12.3247 7.52688 12.3272C7.24509 12.3296 6.97554 12.4436 6.77628 12.6446C6.57702 12.8456 6.46399 13.1175 6.46154 13.4018C6.45909 13.686 6.56742 13.9599 6.76318 14.1643L9.98733 17.4166C10.0929 17.523 10.2194 17.6061 10.3586 17.6606C10.4978 17.715 10.6467 17.7396 10.7958 17.7328C10.9449 17.7259 11.091 17.6878 11.2248 17.6209C11.3585 17.5539 11.4769 17.4596 11.5725 17.344L16.9461 10.8394Z" fill="#4B62B2"/>
</svg>
