<svg width="36" height="36" viewBox="0 0 36 36" fill="none" xmlns="http://www.w3.org/2000/svg">
<rect width="36" height="36" rx="18" fill="white"/>
<path d="M24.6539 13.4619L12.4389 8.08486C12.1945 7.97771 11.9175 7.97196 11.6689 8.06886C11.546 8.11754 11.434 8.19005 11.3392 8.28221C11.2445 8.37437 11.1689 8.48437 11.1169 8.60586L8.11689 15.6059C8.01242 15.8496 8.00904 16.1248 8.1075 16.3711C8.20595 16.6173 8.39817 16.8143 8.64189 16.9189L15.5989 19.8999L14.3589 22.9999H10.0359V19.9999H8.03589V27.9999H10.0359V24.9999H14.3589C15.1819 24.9999 15.9109 24.5059 16.2149 23.7419L17.4369 20.6879L20.8559 22.1529C21.0985 22.2571 21.3726 22.2612 21.6182 22.1641C21.8638 22.0671 22.0611 21.8768 22.1669 21.6349L25.1669 14.7779C25.273 14.5353 25.2786 14.2605 25.1825 14.0138C25.0863 13.7671 24.8962 13.5686 24.6539 13.4619V13.4619ZM25.9659 22.3719L24.1079 21.6299L26.1059 16.6299L27.9639 17.3709L25.9659 22.3719Z" fill="#283c94"/>
</svg>
