<svg width="48" height="48" viewBox="0 0 48 48" fill="none" xmlns="http://www.w3.org/2000/svg">
<circle cx="24" cy="24" r="24" fill="#FDEDEE"/>
<path d="M33.2875 25.225C33.3375 24.825 33.375 24.425 33.375 24C33.375 23.575 33.3375 23.175 33.2875 22.775L35.925 20.7125C36.1625 20.525 36.225 20.1875 36.075 19.9125L33.575 15.5875C33.425 15.3125 33.0875 15.2125 32.8125 15.3125L29.7 16.5625C29.05 16.0625 28.35 15.65 27.5875 15.3375L27.1125 12.025C27.075 11.725 26.8125 11.5 26.5 11.5H21.5C21.1875 11.5 20.925 11.725 20.8875 12.025L20.4125 15.3375C19.65 15.65 18.95 16.075 18.3 16.5625L15.1875 15.3125C14.9 15.2 14.575 15.3125 14.425 15.5875L11.925 19.9125C11.7625 20.1875 11.8375 20.525 12.075 20.7125L14.7125 22.775C14.6625 23.175 14.625 23.5875 14.625 24C14.625 24.4125 14.6625 24.825 14.7125 25.225L12.075 27.2875C11.8375 27.475 11.775 27.8125 11.925 28.0875L14.425 32.4125C14.575 32.6875 14.9125 32.7875 15.1875 32.6875L18.3 31.4375C18.95 31.9375 19.65 32.35 20.4125 32.6625L20.8875 35.975C20.925 36.275 21.1875 36.5 21.5 36.5H26.5C26.8125 36.5 27.075 36.275 27.1125 35.975L27.5875 32.6625C28.35 32.35 29.05 31.925 29.7 31.4375L32.8125 32.6875C33.1 32.8 33.425 32.6875 33.575 32.4125L36.075 28.0875C36.225 27.8125 36.1625 27.475 35.925 27.2875L33.2875 25.225V25.225ZM24 28.375C21.5875 28.375 19.625 26.4125 19.625 24C19.625 21.5875 21.5875 19.625 24 19.625C26.4125 19.625 28.375 21.5875 28.375 24C28.375 26.4125 26.4125 28.375 24 28.375Z" fill="#283c94"/>
</svg>
