<svg width="412" height="370" viewBox="0 0 412 370" fill="none" xmlns="http://www.w3.org/2000/svg">
<g clip-path="url(#clip0_124_2323)">
<path d="M210.998 0.806322L197.593 4.26339L32.431 46.8553L19.0253 50.3123C12.5183 51.9982 6.9457 56.1963 3.53012 61.9857C0.114539 67.7751 -0.865111 74.6829 0.806091 81.1937L58.9364 306.61C60.6222 313.117 64.8203 318.689 70.6097 322.105C76.3991 325.521 83.3069 326.5 89.8177 324.829L89.8523 324.82L281.756 275.332L281.791 275.323C288.298 273.637 293.87 269.439 297.286 263.65C300.701 257.86 301.681 250.953 300.01 244.442L241.88 19.0256C240.194 12.5186 235.996 6.94601 230.206 3.5304C224.417 0.114803 217.509 -0.864869 210.998 0.806322Z" fill="#F2F2F2"/>
<path d="M212.821 7.8737L196.943 11.9684L36.7258 53.2852L20.8479 57.3798C16.2141 58.5803 12.2457 61.5699 9.81338 65.6926C7.38105 69.8153 6.68341 74.7346 7.87351 79.3711L66.0038 304.787C67.2043 309.421 70.1939 313.389 74.3167 315.822C78.4394 318.254 83.3586 318.952 87.9951 317.762L88.0297 317.753L279.934 268.264L279.968 268.255C284.602 267.055 288.57 264.065 291.003 259.943C293.435 255.82 294.133 250.901 292.943 246.264L234.812 20.8481C233.612 16.2143 230.622 12.246 226.5 9.81367C222.377 7.38134 217.458 6.68366 212.821 7.8737V7.8737Z" fill="white"/>
<path d="M200.832 80.8694L103.752 105.904C102.668 106.184 101.517 106.021 100.553 105.452C99.5883 104.883 98.8895 103.955 98.6098 102.87C98.3302 101.786 98.4928 100.635 99.0618 99.6707C99.6308 98.7063 100.56 98.0074 101.644 97.7278L198.723 72.6929C199.807 72.4144 200.957 72.5776 201.921 73.1467C202.885 73.7158 203.583 74.6442 203.862 75.7278C204.142 76.8115 203.979 77.9617 203.411 78.9258C202.843 79.89 201.915 80.589 200.832 80.8694V80.8694Z" fill="#F2F2F2"/>
<path d="M221.254 90.3181L107.31 119.702C106.226 119.982 105.075 119.819 104.111 119.25C103.146 118.681 102.448 117.752 102.168 116.668C101.888 115.584 102.051 114.433 102.62 113.468C103.189 112.504 104.118 111.805 105.202 111.525L219.146 82.1416C220.23 81.862 221.381 82.0245 222.345 82.5935C223.31 83.1625 224.009 84.0913 224.288 85.1756C224.568 86.2598 224.405 87.4108 223.836 88.3752C223.267 89.3396 222.338 90.0385 221.254 90.3181V90.3181Z" fill="#F2F2F2"/>
<path d="M216.778 142.704L119.698 167.739C119.162 167.878 118.603 167.909 118.054 167.831C117.505 167.754 116.976 167.569 116.499 167.287C116.021 167.006 115.604 166.633 115.271 166.189C114.937 165.746 114.694 165.242 114.556 164.705C114.417 164.168 114.386 163.609 114.464 163.06C114.541 162.511 114.726 161.983 115.008 161.506C115.29 161.028 115.663 160.611 116.106 160.277C116.549 159.944 117.053 159.701 117.59 159.563L214.669 134.528C215.206 134.389 215.765 134.358 216.314 134.436C216.863 134.513 217.391 134.698 217.869 134.98C218.347 135.261 218.764 135.634 219.097 136.078C219.431 136.521 219.673 137.025 219.812 137.562C219.95 138.099 219.982 138.658 219.904 139.207C219.827 139.756 219.642 140.284 219.36 140.761C219.078 141.239 218.705 141.656 218.262 141.99C217.819 142.323 217.315 142.566 216.778 142.704V142.704Z" fill="#F2F2F2"/>
<path d="M237.2 152.154L123.257 181.537C122.72 181.676 122.161 181.707 121.612 181.63C121.063 181.552 120.534 181.367 120.057 181.085C119.579 180.804 119.162 180.431 118.829 179.988C118.495 179.545 118.252 179.04 118.114 178.503C117.976 177.967 117.944 177.408 118.022 176.859C118.099 176.31 118.284 175.781 118.566 175.304C118.848 174.826 119.221 174.409 119.664 174.075C120.107 173.742 120.611 173.499 121.148 173.361L235.092 143.977C236.176 143.697 237.327 143.86 238.291 144.429C239.256 144.998 239.955 145.927 240.234 147.011C240.514 148.095 240.351 149.246 239.782 150.211C239.213 151.175 238.284 151.874 237.2 152.154Z" fill="#F2F2F2"/>
<path d="M232.724 204.54L135.645 229.575C134.561 229.853 133.41 229.69 132.447 229.121C131.483 228.552 130.784 227.624 130.505 226.54C130.225 225.456 130.388 224.306 130.956 223.342C131.524 222.377 132.452 221.678 133.536 221.398L230.616 196.363C231.7 196.084 232.851 196.246 233.815 196.815C234.78 197.384 235.478 198.313 235.758 199.397C236.038 200.482 235.875 201.632 235.306 202.597C234.737 203.561 233.808 204.26 232.724 204.54Z" fill="#F2F2F2"/>
<path d="M253.146 213.989L139.203 243.372C138.665 243.511 138.106 243.543 137.557 243.466C137.008 243.389 136.479 243.204 136.001 242.922C135.523 242.641 135.105 242.268 134.772 241.824C134.438 241.381 134.195 240.876 134.056 240.339C133.918 239.802 133.887 239.243 133.964 238.694C134.042 238.144 134.227 237.616 134.509 237.138C134.791 236.66 135.165 236.243 135.608 235.91C136.052 235.576 136.557 235.334 137.094 235.196L251.038 205.812C252.122 205.532 253.273 205.695 254.237 206.264C255.202 206.833 255.901 207.762 256.18 208.846C256.46 209.93 256.297 211.081 255.728 212.046C255.159 213.01 254.231 213.709 253.146 213.989V213.989Z" fill="#F2F2F2"/>
<path d="M87.1795 131.574L52.824 140.433C52.3041 140.567 51.7525 140.489 51.2902 140.216C50.8279 139.943 50.4927 139.498 50.3581 138.979L42.4719 108.397C42.3384 107.878 42.4166 107.326 42.6894 106.864C42.9621 106.401 43.4071 106.066 43.9267 105.932L78.2822 97.072C78.802 96.9385 79.3536 97.0167 79.8159 97.2895C80.2782 97.5622 80.6134 98.0072 80.748 98.5268L88.6343 129.108C88.7678 129.628 88.6895 130.179 88.4168 130.642C88.1441 131.104 87.6991 131.439 87.1795 131.574V131.574Z" fill="#E6E6E6"/>
<path d="M103.126 193.409L68.77 202.268C68.2502 202.402 67.6986 202.324 67.2363 202.051C66.774 201.778 66.4388 201.333 66.3042 200.814L58.4179 170.232C58.2844 169.712 58.3627 169.161 58.6354 168.699C58.9081 168.236 59.3531 167.901 59.8727 167.767L94.2282 158.907C94.7481 158.773 95.2997 158.852 95.762 159.124C96.2242 159.397 96.5595 159.842 96.6941 160.362L104.58 190.943C104.714 191.463 104.636 192.014 104.363 192.477C104.09 192.939 103.645 193.274 103.126 193.409V193.409Z" fill="#E6E6E6"/>
<path d="M119.072 255.244L84.7161 264.104C84.1962 264.237 83.6446 264.159 83.1823 263.886C82.72 263.614 82.3848 263.169 82.2502 262.649L74.3639 232.068C74.2305 231.548 74.3087 230.996 74.5814 230.534C74.8542 230.072 75.2992 229.737 75.8187 229.602L110.174 220.742C110.694 220.609 111.246 220.687 111.708 220.96C112.17 221.233 112.506 221.678 112.64 222.197L120.526 252.778C120.66 253.298 120.582 253.85 120.309 254.312C120.036 254.774 119.591 255.11 119.072 255.244V255.244Z" fill="#E6E6E6"/>
<path d="M344.89 57.9463H146.636C139.915 57.9539 133.47 60.6275 128.717 65.3805C123.964 70.1336 121.291 76.5779 121.283 83.2998V316.091C121.291 322.813 123.964 329.257 128.717 334.01C133.47 338.763 139.915 341.437 146.636 341.444H344.89C351.612 341.437 358.056 338.763 362.809 334.01C367.562 329.257 370.236 322.813 370.243 316.091V83.2998C370.236 76.5779 367.562 70.1336 362.809 65.3805C358.056 60.6275 351.612 57.9539 344.89 57.9463V57.9463Z" fill="#E6E6E6"/>
<path d="M344.89 65.2451H146.636C141.85 65.2505 137.26 67.1544 133.876 70.5392C130.491 73.9239 128.587 78.5131 128.582 83.2999V316.091C128.587 320.878 130.491 325.467 133.876 328.852C137.26 332.236 141.85 334.14 146.636 334.146H344.89C349.677 334.14 354.266 332.236 357.651 328.851C361.036 325.467 362.939 320.878 362.945 316.091V83.2999C362.939 78.5131 361.036 73.924 357.651 70.5392C354.266 67.1545 349.677 65.2505 344.89 65.2451V65.2451Z" fill="white"/>
<path d="M365.718 369.768C391.279 369.768 412 349.046 412 323.486C412 297.925 391.279 277.204 365.718 277.204C340.158 277.204 319.437 297.925 319.437 323.486C319.437 349.046 340.158 369.768 365.718 369.768Z" fill="#283c94"/>
<path d="M387.853 317.449H371.755V301.351C371.755 299.75 371.119 298.215 369.987 297.083C368.855 295.95 367.319 295.314 365.718 295.314C364.117 295.314 362.582 295.95 361.45 297.083C360.318 298.215 359.682 299.75 359.682 301.351V317.449H343.584C341.983 317.449 340.447 318.085 339.315 319.217C338.183 320.349 337.547 321.885 337.547 323.486C337.547 325.087 338.183 326.622 339.315 327.755C340.447 328.887 341.983 329.523 343.584 329.523H359.682V345.621C359.682 347.222 360.318 348.757 361.45 349.889C362.582 351.021 364.117 351.657 365.718 351.657C367.319 351.657 368.855 351.021 369.987 349.889C371.119 348.757 371.755 347.222 371.755 345.621V329.523H387.853C389.454 329.523 390.99 328.887 392.122 327.755C393.254 326.622 393.89 325.087 393.89 323.486C393.89 321.885 393.254 320.349 392.122 319.217C390.99 318.085 389.454 317.449 387.853 317.449V317.449Z" fill="white"/>
<path d="M315.053 193.163H214.797C214.242 193.163 213.693 193.055 213.18 192.843C212.667 192.631 212.201 192.32 211.809 191.928C211.416 191.536 211.105 191.07 210.892 190.558C210.68 190.045 210.571 189.496 210.571 188.941C210.571 188.386 210.68 187.837 210.892 187.324C211.105 186.811 211.416 186.346 211.809 185.954C212.201 185.562 212.667 185.251 213.18 185.039C213.693 184.827 214.242 184.718 214.797 184.719H315.053C316.172 184.72 317.244 185.165 318.035 185.957C318.826 186.749 319.27 187.822 319.27 188.941C319.27 190.06 318.826 191.133 318.035 191.925C317.244 192.716 316.172 193.162 315.053 193.163V193.163Z" fill="#E6E6E6"/>
<path d="M332.469 207.412H214.797C214.242 207.413 213.693 207.304 213.18 207.092C212.667 206.88 212.201 206.57 211.809 206.177C211.416 205.785 211.105 205.32 210.892 204.807C210.68 204.295 210.571 203.745 210.571 203.19C210.571 202.635 210.68 202.086 210.892 201.573C211.105 201.061 211.416 200.595 211.809 200.203C212.201 199.811 212.667 199.5 213.18 199.288C213.693 199.076 214.242 198.968 214.797 198.968H332.469C333.588 198.968 334.662 199.413 335.454 200.205C336.246 200.997 336.691 202.071 336.691 203.19C336.691 204.31 336.246 205.384 335.454 206.176C334.662 206.968 333.588 207.412 332.469 207.412Z" fill="#E6E6E6"/>
<path d="M315.053 257.021H214.797C214.242 257.022 213.693 256.913 213.18 256.701C212.667 256.489 212.201 256.178 211.809 255.786C211.416 255.394 211.105 254.929 210.892 254.416C210.68 253.903 210.571 253.354 210.571 252.799C210.571 252.244 210.68 251.695 210.892 251.182C211.105 250.67 211.416 250.204 211.809 249.812C212.201 249.42 212.667 249.109 213.18 248.897C213.693 248.685 214.242 248.577 214.797 248.577H315.053C316.173 248.577 317.247 249.022 318.038 249.814C318.83 250.606 319.275 251.679 319.275 252.799C319.275 253.919 318.83 254.993 318.038 255.785C317.247 256.576 316.173 257.021 315.053 257.021V257.021Z" fill="#E6E6E6"/>
<path d="M332.469 271.271H214.797C214.242 271.271 213.693 271.163 213.18 270.951C212.667 270.739 212.201 270.428 211.809 270.036C211.416 269.644 211.105 269.178 210.892 268.665C210.68 268.153 210.571 267.604 210.571 267.049C210.571 266.494 210.68 265.944 210.892 265.432C211.105 264.919 211.416 264.454 211.809 264.062C212.201 263.669 212.667 263.359 213.18 263.147C213.693 262.935 214.242 262.826 214.797 262.827H332.469C333.024 262.826 333.573 262.935 334.086 263.147C334.599 263.359 335.065 263.669 335.457 264.062C335.85 264.454 336.161 264.919 336.374 265.432C336.586 265.944 336.695 266.494 336.695 267.049C336.695 267.604 336.586 268.153 336.374 268.665C336.161 269.178 335.85 269.644 335.457 270.036C335.065 270.428 334.599 270.739 334.086 270.951C333.573 271.163 333.024 271.271 332.469 271.271Z" fill="#E6E6E6"/>
<path d="M192.34 213.881H156.86C156.323 213.881 155.809 213.667 155.429 213.287C155.05 212.908 154.836 212.393 154.836 211.857V180.275C154.836 179.738 155.05 179.224 155.429 178.844C155.809 178.465 156.323 178.251 156.86 178.25H192.34C192.876 178.251 193.391 178.465 193.771 178.844C194.15 179.224 194.364 179.738 194.364 180.275V211.857C194.364 212.393 194.15 212.908 193.771 213.287C193.391 213.667 192.876 213.881 192.34 213.881V213.881Z" fill="#E6E6E6"/>
<path d="M192.34 277.739H156.86C156.323 277.738 155.809 277.525 155.429 277.145C155.05 276.766 154.836 276.251 154.836 275.715V244.133C154.836 243.596 155.05 243.082 155.429 242.702C155.809 242.322 156.323 242.109 156.86 242.108H192.34C192.876 242.109 193.391 242.322 193.771 242.702C194.15 243.082 194.364 243.596 194.364 244.133V275.715C194.364 276.251 194.15 276.766 193.771 277.145C193.391 277.525 192.876 277.738 192.34 277.739V277.739Z" fill="#E6E6E6"/>
<path d="M315.164 122.076H241.25C240.13 122.076 239.056 121.632 238.264 120.84C237.473 120.048 237.028 118.974 237.028 117.854C237.028 116.735 237.473 115.661 238.264 114.869C239.056 114.077 240.13 113.632 241.25 113.632H315.164C316.284 113.632 317.358 114.077 318.15 114.869C318.941 115.661 319.386 116.735 319.386 117.854C319.386 118.974 318.941 120.048 318.15 120.84C317.358 121.632 316.284 122.076 315.164 122.076Z" fill="#CCCCCC"/>
<path d="M332.58 136.325H241.25C240.695 136.325 240.146 136.216 239.634 136.004C239.122 135.792 238.656 135.481 238.264 135.089C237.872 134.697 237.561 134.231 237.349 133.719C237.137 133.207 237.028 132.658 237.028 132.103C237.028 131.549 237.137 131 237.349 130.488C237.561 129.975 237.872 129.51 238.264 129.118C238.656 128.726 239.122 128.415 239.634 128.203C240.146 127.991 240.695 127.881 241.25 127.881H332.58C333.7 127.881 334.774 128.326 335.565 129.118C336.357 129.91 336.802 130.984 336.802 132.103C336.802 133.223 336.357 134.297 335.565 135.089C334.774 135.881 333.7 136.325 332.58 136.325V136.325Z" fill="#CCCCCC"/>
<path d="M224.891 153.594H156.749C156.212 153.594 155.698 153.38 155.318 153.001C154.938 152.621 154.725 152.106 154.724 151.57V98.3882C154.725 97.8515 154.938 97.3369 155.318 96.9574C155.698 96.5778 156.212 96.3644 156.749 96.3638H224.891C225.428 96.3644 225.943 96.5778 226.322 96.9574C226.702 97.3369 226.915 97.8515 226.916 98.3882V151.57C226.915 152.106 226.702 152.621 226.322 153.001C225.943 153.38 225.428 153.594 224.891 153.594V153.594Z" fill="#283c94"/>
</g>
<defs>
<clipPath id="clip0_124_2323">
<rect width="412" height="369.767" fill="white"/>
</clipPath>
</defs>
</svg>
