<svg width="113" height="116" viewBox="0 0 113 116" fill="none" xmlns="http://www.w3.org/2000/svg">
<path d="M1.44572 23.5257C0.657151 23.5257 0 22.8686 0 22.08V7.49142C0 3.41714 3.41714 0 7.49142 0H22.08C22.8686 0 23.5257 0.657131 23.5257 1.4457C23.5257 2.23427 22.8686 2.89142 22.08 2.89142H7.49142C4.99428 2.89142 2.89142 4.99428 2.89142 7.49142V22.08C2.89142 22.8686 2.23429 23.5257 1.44572 23.5257Z" fill="#283c94"/>
<path d="M111.32 23.5257C110.531 23.5257 109.874 22.8686 109.874 22.08V7.49142C109.874 4.99428 107.771 2.89142 105.274 2.89142H90.6855C89.8969 2.89142 89.2397 2.23427 89.2397 1.4457C89.2397 0.657131 89.8969 0 90.6855 0H105.274C109.348 0 112.765 3.41714 112.765 7.49142V22.08C112.765 22.8686 112.108 23.5257 111.32 23.5257Z" fill="#283c94"/>
<path d="M105.406 115.051H90.8173C90.0287 115.051 89.3716 114.394 89.3716 113.606C89.3716 112.817 90.0287 112.16 90.8173 112.16H105.406C107.903 112.16 110.006 110.057 110.006 107.56V92.9713C110.006 92.1827 110.663 91.5256 111.452 91.5256C112.24 91.5256 112.897 92.1827 112.897 92.9713V107.56C112.766 111.634 109.48 115.051 105.406 115.051Z" fill="#283c94"/>
<path d="M22.08 115.051H7.49142C3.41714 115.051 0 111.634 0 107.56V92.9713C0 92.1827 0.657151 91.5256 1.44572 91.5256C2.23429 91.5256 2.89142 92.1827 2.89142 92.9713V107.56C2.89142 110.057 4.99428 112.16 7.49142 112.16H22.08C22.8686 112.16 23.5257 112.817 23.5257 113.606C23.5257 114.394 22.8686 115.051 22.08 115.051Z" fill="#283c94"/>
<path d="M98.671 82.9208C98.671 80.6158 98.671 78.4645 98.671 76.0058C97.5953 76.0058 96.366 76.0058 95.2903 76.0058C95.2903 74.9302 95.2903 73.8545 95.2903 72.7788C96.366 72.7788 97.4416 72.7788 98.671 72.7788C98.671 69.3981 98.671 66.0175 98.671 62.6368C95.2903 62.6368 91.9096 62.6368 88.5289 62.6368C88.5289 63.7125 88.5289 64.7881 88.5289 65.8638C87.4533 65.8638 86.3776 65.8638 85.1483 65.8638C85.1483 67.0931 85.1483 68.1688 85.1483 69.2445C81.7676 69.2445 78.3869 69.2445 75.0062 69.2445C75.0062 67.0931 75.0062 64.9418 75.0062 62.4831C73.7769 62.4831 72.7012 62.4831 71.4719 62.4831C71.4719 61.4075 71.4719 60.1781 71.4719 59.1024C73.7769 59.1024 76.0819 59.1024 78.3869 59.1024C78.3869 60.1781 78.3869 61.4075 78.3869 62.4831C79.6162 62.4831 80.5382 62.4831 81.6139 62.4831C81.6139 61.2538 81.6139 60.1781 81.6139 59.1024C82.6896 59.1024 83.9189 59.1024 84.9946 59.1024C84.9946 58.0268 84.9946 56.7974 84.9946 55.7218C83.7653 55.7218 82.6896 55.7218 81.6139 55.7218C81.6139 56.7974 81.6139 58.0268 81.6139 59.1024C80.5382 59.1024 79.4626 59.1024 78.3869 59.1024C78.3869 58.0268 78.3869 56.7974 78.3869 55.7218C79.4626 55.7218 80.5382 55.7218 81.6139 55.7218C81.6139 54.6461 81.6139 53.5704 81.6139 52.4948C80.5382 52.4948 79.4626 52.4948 78.3869 52.4948C78.3869 53.5704 78.3869 54.6461 78.3869 55.7218C73.9306 55.7218 69.3205 55.7218 64.8642 55.7218C64.8642 56.7974 64.8642 57.8731 64.8642 59.1024C65.9399 59.1024 67.0155 59.1024 68.2449 59.1024C68.2449 60.3318 68.2449 61.4075 68.2449 62.6368C69.3205 62.6368 70.3962 62.6368 71.4719 62.6368C71.4719 63.7125 71.4719 64.7881 71.4719 65.8638C70.3962 65.8638 69.3205 65.8638 68.2449 65.8638C68.2449 64.7881 68.2449 63.7125 68.2449 62.6368C65.9399 62.6368 63.7885 62.6368 61.3299 62.6368C61.3299 60.3318 61.3299 58.0268 61.3299 55.7218C60.2542 55.7218 59.1785 55.7218 58.1029 55.7218C58.1029 56.9511 58.1029 58.0268 58.1029 59.1024C56.8735 59.1024 55.7978 59.1024 54.7222 59.1024C54.7222 56.9511 54.7222 54.6461 54.7222 52.3411C57.0272 52.3411 59.1785 52.3411 61.4835 52.3411C61.4835 53.4168 61.4835 54.4924 61.4835 55.5681C62.5592 55.5681 63.7885 55.5681 64.8642 55.5681C64.8642 54.4924 64.8642 53.4168 64.8642 52.3411C65.9399 52.3411 67.1692 52.3411 68.2449 52.3411C68.2449 51.1118 68.2449 50.0361 68.2449 48.9604C70.5499 48.9604 72.7012 48.9604 75.0062 48.9604C75.0062 46.6554 75.0062 44.3504 75.0062 42.0454C73.7769 42.0454 72.7012 42.0454 71.6255 42.0454C71.6255 43.1211 71.6255 44.1967 71.6255 45.4261C70.5499 45.4261 69.4742 45.4261 68.3986 45.4261C68.3986 46.5018 68.3986 47.7311 68.3986 48.8068C67.3229 48.8068 66.0936 48.8068 65.0179 48.8068C65.0179 50.0361 65.0179 51.1118 65.0179 52.1874C63.9422 52.1874 62.7129 52.1874 61.6372 52.1874C61.6372 49.8824 61.6372 47.7311 61.6372 45.2724C63.9422 45.2724 66.2472 45.2724 68.5522 45.2724C68.5522 44.1967 68.5522 43.1211 68.5522 41.8917C69.6279 41.8917 70.7036 41.8917 71.7792 41.8917C71.7792 37.4354 71.7792 32.9791 71.7792 28.5227C70.7036 28.5227 69.6279 28.5227 68.5522 28.5227C68.5522 29.5984 68.5522 30.6741 68.5522 31.7497C67.3229 31.7497 66.2472 31.7497 65.1715 31.7497C65.1715 32.9791 65.1715 34.0547 65.1715 35.1304C64.0959 35.1304 62.8665 35.1304 61.6372 35.1304C61.6372 37.4354 61.6372 39.5867 61.6372 41.7381C60.5615 41.7381 59.4859 41.7381 58.4102 41.7381C58.4102 39.4331 58.4102 37.2817 58.4102 35.1304C57.1809 35.1304 56.1052 35.1304 55.0295 35.1304C55.0295 38.5111 55.0295 41.8917 55.0295 45.2724C56.1052 45.2724 57.3345 45.2724 58.4102 45.2724C58.4102 46.5017 58.4102 47.5774 58.4102 48.8068C56.1052 48.8068 53.9538 48.8068 51.4952 48.8068C51.4952 50.0361 51.4952 51.1118 51.4952 52.1874C50.4195 52.1874 49.3438 52.1874 48.2682 52.1874C48.2682 49.8824 48.2682 47.7311 48.2682 45.2724C49.3438 45.2724 50.4195 45.2724 51.3415 45.2724C51.3415 44.0431 51.3415 42.9674 51.3415 41.8917C45.6558 41.8917 40.1238 41.8917 34.5918 41.8917C34.5918 42.9674 34.5918 44.1967 34.5918 45.2724C36.8968 45.2724 39.0481 45.2724 41.3531 45.2724C41.3531 46.5017 41.3531 47.5774 41.3531 48.6531C42.5825 48.6531 43.6581 48.6531 44.7338 48.6531C44.7338 50.9581 44.7338 53.1094 44.7338 55.2608C43.6581 55.2608 42.5825 55.2608 41.3531 55.2608C41.3531 54.1851 41.3531 53.1094 41.3531 52.0338C40.1238 52.0338 39.0481 52.0338 37.9725 52.0338C37.9725 53.1094 37.9725 54.1851 37.9725 55.2608C36.7431 55.2608 35.8211 55.2608 34.7454 55.2608C34.7454 56.4901 34.7454 57.5658 34.7454 58.6415C39.2018 58.6415 43.8118 58.6415 48.2682 58.6415C48.2682 57.5658 48.2682 56.4901 48.2682 55.2608C49.3438 55.2608 50.4195 55.2608 51.4952 55.2608C51.4952 56.3364 51.4952 57.5658 51.4952 58.6415C52.5708 58.6415 53.8002 58.6415 54.8758 58.6415C54.8758 59.7171 54.8758 60.9464 54.8758 62.1758C56.1052 62.1758 57.1808 62.1758 58.2565 62.1758C58.2565 63.2515 58.2565 64.3271 58.2565 65.4028C57.1808 65.4028 56.1052 65.4028 54.8758 65.4028C54.8758 67.7078 54.8758 70.0128 54.8758 72.3178C58.2565 72.3178 61.4835 72.3178 65.0179 72.3178C65.0179 74.6228 65.0179 76.7742 65.0179 79.0792C63.9422 79.0792 62.7129 79.0792 61.6372 79.0792C61.6372 78.0035 61.6372 76.9278 61.6372 75.6985C57.1808 75.6985 52.7245 75.6985 48.2682 75.6985C48.2682 76.7742 48.2682 77.8498 48.2682 79.0792C47.0388 79.0792 45.9632 79.0792 44.8875 79.0792C44.8875 80.1548 44.8875 81.3842 44.8875 82.4599C43.8118 82.4599 42.5825 82.4599 41.5068 82.4599C41.5068 88.1455 41.5068 93.6776 41.5068 99.3632C43.8118 99.3632 45.9632 99.3632 48.2682 99.3632C48.2682 98.2876 48.2682 97.2119 48.2682 96.1362C47.0388 96.1362 45.9632 96.1362 44.8875 96.1362C44.8875 94.9069 44.8875 93.8312 44.8875 92.7555C47.1925 92.7555 49.3438 92.7555 51.6488 92.7555C51.6488 90.4505 51.6488 88.1455 51.6488 85.9942C52.8782 85.9942 53.9539 85.9942 55.0295 85.9942C55.0295 87.0698 55.0295 88.2992 55.0295 89.3749C56.2589 89.3749 57.3345 89.3749 58.4102 89.3749C58.4102 90.6042 58.4102 91.6799 58.4102 92.9092C59.4859 92.9092 60.5615 92.9092 61.6372 92.9092C61.6372 94.1385 61.6372 95.2142 61.6372 96.2899C58.2565 96.2899 54.8758 96.2899 51.6488 96.2899C51.6488 97.3656 51.6488 98.4412 51.6488 99.5169C57.3345 99.5169 63.0202 99.5169 68.7059 99.5169C68.7059 98.4412 68.7059 97.3656 68.7059 96.2899C69.7816 96.2899 70.8572 96.2899 71.9329 96.2899C71.9329 97.3656 71.9329 98.4412 71.9329 99.3632C74.2379 99.3632 76.5429 99.3632 78.8479 99.3632C78.8479 98.2876 78.8479 97.2119 78.8479 96.1362C77.7722 96.1362 76.5429 96.1362 75.3136 96.1362C75.3136 94.9069 75.3136 93.8312 75.3136 92.6019C73.0086 92.6019 70.8572 92.6019 68.7059 92.6019C68.7059 90.2969 68.7059 87.9919 68.7059 85.8405C69.7816 85.8405 70.8572 85.8405 71.9329 85.8405C71.9329 86.9162 71.9329 88.1455 71.9329 89.2212C74.2379 89.2212 76.5429 89.2212 78.8479 89.2212C78.8479 88.1455 78.8479 87.0699 78.8479 85.8405C79.9236 85.8405 80.9992 85.8405 82.0749 85.8405C82.0749 87.0699 82.0749 88.1455 82.0749 89.2212C86.6849 89.2212 91.1413 89.2212 95.5976 89.2212C95.5976 91.5262 95.5976 93.8312 95.5976 96.1362C93.2926 96.1362 91.1413 96.1362 88.9899 96.1362C88.9899 97.2119 88.9899 98.2876 88.9899 99.3632C92.3706 99.3632 95.7513 99.3632 98.9783 99.3632C98.9783 94.7532 98.9783 90.2969 98.9783 85.8405C96.6733 85.8405 94.5219 85.8405 92.3706 85.8405C92.3706 84.7649 92.3706 83.6892 92.3706 82.6135C90.0656 82.6135 87.7606 82.6135 85.6093 82.6135C85.6093 81.3842 85.6093 80.3085 85.6093 79.2328C86.6849 79.2328 87.9143 79.2328 88.9899 79.2328C88.9899 76.9278 88.9899 74.7765 88.9899 72.6251C90.2193 72.6251 91.2949 72.6251 92.3706 72.6251C92.3706 74.9302 92.3706 77.0815 92.3706 79.3865C93.4463 79.3865 94.5219 79.3865 95.5976 79.3865C95.5976 80.6159 95.5976 81.6915 95.5976 82.7672C96.5196 82.9209 97.5953 82.9208 98.671 82.9208ZM68.0912 38.8184C67.0156 38.8184 65.9399 38.8184 64.7105 38.8184C64.7105 37.7427 64.7105 36.5134 64.7105 35.4377C65.7862 35.4377 66.8619 35.4377 68.0912 35.4377C68.0912 36.5134 68.0912 37.5891 68.0912 38.8184ZM47.8072 86.1479C46.7315 86.1479 45.6558 86.1479 44.4265 86.1479C44.4265 85.0722 44.4265 83.9965 44.4265 82.9208C45.5021 82.9208 46.5778 82.9208 47.8072 82.9208C47.8072 83.9965 47.8072 85.0722 47.8072 86.1479ZM54.5685 82.9208C54.5685 81.8452 54.5685 80.7695 54.5685 79.5402C56.7199 79.5402 59.0249 79.5402 61.1762 79.5402C61.1762 80.6158 61.1762 81.6915 61.1762 82.9208C59.0249 82.9208 56.8735 82.9208 54.5685 82.9208ZM64.7105 89.6822C63.6349 89.6822 62.5592 89.6822 61.3299 89.6822C61.3299 88.6065 61.3299 87.5309 61.3299 86.3015C62.4055 86.3015 63.4812 86.3015 64.7105 86.3015C64.7105 87.3772 64.7105 88.4529 64.7105 89.6822ZM68.0912 82.9208C67.0156 82.9208 65.9399 82.9208 64.7105 82.9208C64.7105 81.8452 64.7105 80.6158 64.7105 79.5402C65.7862 79.5402 66.8619 79.5402 68.0912 79.5402C68.0912 80.6158 68.0912 81.6915 68.0912 82.9208ZM57.9492 69.2445C57.9492 68.1688 57.9492 66.9395 57.9492 65.8638C61.3299 65.8638 64.7105 65.8638 68.0912 65.8638C68.0912 66.9395 68.0912 68.0151 68.0912 69.2445C64.8642 69.2445 61.4835 69.2445 57.9492 69.2445ZM81.6139 82.9208C78.2332 82.9208 74.8526 82.9208 71.6255 82.9208C71.6255 79.5402 71.6255 76.3132 71.6255 72.9325C75.0062 72.9325 78.2332 72.9325 81.6139 72.9325C81.6139 76.1595 81.6139 79.5402 81.6139 82.9208ZM95.1366 69.2445C92.9853 69.2445 90.8339 69.2445 88.5289 69.2445C88.5289 68.1688 88.5289 66.9395 88.5289 65.8638C90.6803 65.8638 92.9853 65.8638 95.1366 65.8638C95.1366 67.0931 95.1366 68.1688 95.1366 69.2445Z" fill="black"/>
<path d="M98.6711 15.1538C90.6804 15.1538 82.8434 15.1538 75.0063 15.1538C75.0063 23.1445 75.0063 30.9815 75.0063 38.8185C82.8434 38.8185 90.834 38.8185 98.6711 38.8185C98.6711 30.8278 98.6711 22.9908 98.6711 15.1538ZM95.1367 35.2842C89.6047 35.2842 84.0727 35.2842 78.387 35.2842C78.387 29.5985 78.387 24.0665 78.387 18.5345C83.919 18.5345 89.6047 18.5345 95.1367 18.5345C95.1367 24.0665 95.1367 29.7522 95.1367 35.2842Z" fill="#283c94"/>
<path d="M37.5111 15.1538C29.674 15.1538 21.837 15.1538 14 15.1538C14 23.1445 14 30.9815 14 38.8185C21.837 38.8185 29.674 38.8185 37.5111 38.8185C37.5111 30.8278 37.5111 22.9908 37.5111 15.1538ZM34.1304 35.2842C28.4447 35.2842 22.9127 35.2842 17.227 35.2842C17.227 29.7522 17.227 24.2202 17.227 18.5345C22.9127 18.5345 28.4447 18.5345 34.1304 18.5345C34.1304 24.2202 34.1304 29.7522 34.1304 35.2842Z" fill="black"/>
<path d="M14 99.8241C21.837 99.8241 29.674 99.8241 37.5111 99.8241C37.5111 91.8335 37.5111 83.9964 37.5111 76.1594C29.674 76.1594 21.837 76.1594 14 76.1594C14 84.1501 14 91.9871 14 99.8241ZM17.227 79.5401C22.9127 79.5401 28.4447 79.5401 34.1304 79.5401C34.1304 85.2258 34.1304 90.9115 34.1304 96.4435C28.4447 96.4435 22.9127 96.4435 17.227 96.4435C17.227 90.9115 17.227 85.2258 17.227 79.5401Z" fill="#283c94"/>
<path d="M27.3691 55.7217C27.3691 53.4167 27.3691 51.2653 27.3691 49.114C28.4447 49.114 29.6741 49.114 30.7497 49.114C30.7497 46.6553 30.7497 44.504 30.7497 42.199C25.064 42.199 19.532 42.199 14 42.199C14 43.2746 14 44.3503 14 45.5797C15.0757 45.5797 16.1513 45.5797 17.227 45.5797C17.227 47.8847 17.227 50.1897 17.227 52.4947C16.1513 52.4947 15.0757 52.4947 14 52.4947C14 59.4097 14 66.0174 14 72.7787C15.0757 72.7787 16.1513 72.7787 17.227 72.7787C17.227 69.3981 17.227 66.0174 17.227 62.6367C18.4564 62.6367 19.532 62.6367 20.7614 62.6367C20.7614 61.4074 20.7614 60.3317 20.7614 59.1024C21.9907 59.1024 23.0664 59.1024 24.142 59.1024C24.142 58.0267 24.142 56.7974 24.142 55.7217C25.2177 55.7217 26.2934 55.7217 27.3691 55.7217ZM24.142 45.5797C25.2177 45.5797 26.1397 45.5797 27.3691 45.5797C27.3691 46.6553 27.3691 47.8847 27.3691 48.9603C26.2934 48.9603 25.2177 48.9603 24.142 48.9603C24.142 47.8847 24.142 46.809 24.142 45.5797ZM20.6077 55.7217C19.532 55.7217 18.4564 55.7217 17.227 55.7217C17.227 54.646 17.227 53.5704 17.227 52.4947C18.3027 52.4947 19.3784 52.4947 20.6077 52.4947C20.6077 53.5704 20.6077 54.646 20.6077 55.7217Z" fill="black"/>
<path d="M51.0342 59.2561C51.0342 59.2561 51.1878 59.2561 51.0342 59.2561C51.1878 59.2561 51.1878 59.2561 51.0342 59.2561C51.0342 59.1025 51.1878 59.1025 51.0342 59.2561Z" fill="black"/>
<path d="M47.8068 76.006C47.8068 74.9303 47.8068 73.8547 47.8068 72.779C48.8825 72.779 49.9582 72.779 51.0338 72.779C51.0338 68.169 51.0338 63.7126 51.0338 59.1026C49.9582 59.1026 48.8825 59.1026 47.8068 59.1026C47.8068 61.254 47.8068 63.559 47.8068 65.7103C46.5775 65.7103 45.5018 65.7103 44.4261 65.7103C44.4261 64.6346 44.4261 63.7127 44.4261 62.4833C41.0455 62.4833 37.6648 62.4833 34.2841 62.4833C34.2841 61.254 34.2841 60.1783 34.2841 58.949C30.9035 58.949 27.5228 58.949 24.1421 58.949C24.1421 61.254 24.1421 63.4053 24.1421 65.7103C25.2178 65.7103 26.2934 65.7103 27.3691 65.7103C27.3691 64.6346 27.3691 63.559 27.3691 62.4833C28.5984 62.4833 29.6741 62.4833 30.9034 62.4833C30.9034 63.559 30.9034 64.6346 30.9034 65.7103C34.2841 65.7103 37.6648 65.7103 41.0455 65.7103C41.0455 66.9397 41.0455 68.0153 41.0455 69.2447C37.6648 69.2447 34.2841 69.2447 30.9034 69.2447C30.9034 70.3203 30.9034 71.5497 30.9034 72.779C34.2841 72.779 37.6648 72.779 41.0455 72.779C41.0455 75.084 41.0455 77.2354 41.0455 79.3867C42.2748 79.3867 43.3505 79.3867 44.4261 79.3867C44.4261 78.311 44.4261 77.2353 44.4261 76.006C45.5018 76.006 46.7311 76.006 47.8068 76.006ZM44.4261 69.3983C45.5018 69.3983 46.5775 69.3983 47.8068 69.3983C47.8068 70.474 47.8068 71.7033 47.8068 72.779C46.7311 72.779 45.6555 72.779 44.4261 72.779C44.4261 71.7033 44.4261 70.6277 44.4261 69.3983Z" fill="black"/>
<path d="M57.9488 21.7615C57.9488 20.6858 57.9488 19.6101 57.9488 18.5345C55.6438 18.5345 53.3388 18.5345 51.0338 18.5345C51.0338 19.6101 51.0338 20.6858 51.0338 21.7615C49.9581 21.7615 48.8824 21.7615 47.8068 21.7615C47.8068 19.4565 47.8068 17.3051 47.8068 15.1538C46.5774 15.1538 45.5018 15.1538 44.4261 15.1538C44.4261 16.2295 44.4261 17.4588 44.4261 18.5345C43.1967 18.5345 42.1211 18.5345 41.0454 18.5345C41.0454 19.6101 41.0454 20.6858 41.0454 21.7615C42.1211 21.7615 43.3504 21.7615 44.4261 21.7615C44.4261 22.9908 44.4261 24.0665 44.4261 25.2958C43.3504 25.2958 42.2747 25.2958 41.0454 25.2958C41.0454 26.5252 41.0454 27.6008 41.0454 28.6765C43.3504 28.6765 45.6554 28.6765 47.8068 28.6765C47.8068 27.6008 47.8068 26.5252 47.8068 25.2958C48.8824 25.2958 49.9581 25.2958 51.0338 25.2958C51.0338 26.3715 51.0338 27.6008 51.0338 28.6765C52.1094 28.6765 53.3388 28.6765 54.4144 28.6765C54.4144 26.3715 54.4144 24.0665 54.4144 21.7615C55.7974 21.7615 56.8731 21.7615 57.9488 21.7615Z" fill="black"/>
<path d="M71.3181 25.142C71.3181 21.7614 71.3181 18.3807 71.3181 15C70.2424 15 69.1667 15 68.0911 15C68.0911 16.0757 68.0911 17.305 68.0911 18.3807C66.8617 18.3807 65.786 18.3807 64.7104 18.3807C64.7104 20.532 64.7104 22.837 64.7104 25.142C62.4054 25.142 60.254 25.142 57.949 25.142C57.949 26.3714 57.949 27.447 57.949 28.5227C56.7197 28.5227 55.644 28.5227 54.5684 28.5227C54.5684 29.5984 54.5684 30.6741 54.5684 31.7497C56.8734 31.7497 59.0247 31.7497 61.3297 31.7497C61.3297 30.6741 61.3297 29.5984 61.3297 28.5227C63.6347 28.5227 65.9397 28.5227 68.0911 28.5227C68.0911 27.447 68.0911 26.2177 68.0911 24.9884C69.3204 25.142 70.3961 25.142 71.3181 25.142Z" fill="black"/>
<path d="M91.9096 45.5797C90.834 45.5797 89.6046 45.5797 88.3753 45.5797C88.3753 44.3503 88.3753 43.2746 88.3753 42.199C87.146 42.199 86.0703 42.199 84.9946 42.199C84.9946 44.504 84.9946 46.809 84.9946 48.9603C87.2996 48.9603 89.6046 48.9603 91.9096 48.9603C91.9096 47.8847 91.9096 46.6553 91.9096 45.5797Z" fill="black"/>
<path d="M95.29 52.4945C95.29 53.5701 95.29 54.6458 95.29 55.7215C96.5193 55.7215 97.595 55.7215 98.6707 55.7215C98.6707 53.4165 98.6707 51.2651 98.6707 49.1138C96.3657 49.1138 94.2143 49.1138 92.063 49.1138C92.063 50.1894 92.063 51.4188 92.063 52.6481C93.1387 52.4944 94.2143 52.4945 95.29 52.4945Z" fill="black"/>
<path d="M47.8066 38.8185C48.8823 38.8185 49.958 38.8185 51.0337 38.8185C51.0337 35.4379 51.0337 32.0572 51.0337 28.6765C49.958 28.6765 48.8823 28.6765 47.8066 28.6765C47.8066 32.0572 47.8066 35.4379 47.8066 38.8185Z" fill="black"/>
<path d="M41.0454 32.0571C41.0454 34.3621 41.0454 36.5135 41.0454 38.8185C42.1211 38.8185 43.1967 38.8185 44.4261 38.8185C44.4261 36.5135 44.4261 34.2085 44.4261 32.0571C43.1967 32.0571 42.1211 32.0571 41.0454 32.0571Z" fill="black"/>
<path d="M84.9944 93.2168C82.6894 93.2168 80.5381 93.2168 78.3867 93.2168C78.3867 94.4461 78.3867 95.5218 78.3867 96.5974C80.5381 96.5974 82.8431 96.5974 84.9944 96.5974C84.9944 95.3681 84.9944 94.2925 84.9944 93.2168Z" fill="black"/>
<path d="M81.6137 42.199C80.538 42.199 79.4624 42.199 78.3867 42.199C78.3867 44.504 78.3867 46.809 78.3867 48.9603C79.4624 48.9603 80.538 48.9603 81.6137 48.9603C81.6137 46.6553 81.6137 44.504 81.6137 42.199Z" fill="black"/>
<path d="M61.3296 15.1538C61.3296 16.3831 61.3296 17.4588 61.3296 18.5345C62.5589 18.5345 63.6346 18.5345 64.7103 18.5345C64.7103 17.4588 64.7103 16.2295 64.7103 15.1538C63.4809 15.1538 62.4053 15.1538 61.3296 15.1538Z" fill="black"/>
<path d="M78.387 52.4945C78.387 51.4188 78.387 50.1894 78.387 49.1138C77.3113 49.1138 76.082 49.1138 75.0063 49.1138C75.0063 50.1894 75.0063 51.2651 75.0063 52.4945C76.082 52.4945 77.1577 52.4945 78.387 52.4945Z" fill="black"/>
<path d="M27.3691 65.8638C27.3691 66.9394 27.3691 68.1688 27.3691 69.2444C28.4448 69.2444 29.6741 69.2444 30.7498 69.2444C30.7498 68.1688 30.7498 66.9394 30.7498 65.8638C29.6741 65.8638 28.4448 65.8638 27.3691 65.8638Z" fill="black"/>
<path d="M88.5286 62.6368C88.5286 61.5611 88.5286 60.3318 88.5286 59.2561C87.453 59.2561 86.2236 59.2561 85.1479 59.2561C85.1479 60.3318 85.1479 61.4074 85.1479 62.6368C86.2236 62.6368 87.453 62.6368 88.5286 62.6368Z" fill="black"/>
<path d="M84.994 52.4945C84.994 51.2651 84.994 50.1894 84.994 49.1138C83.9183 49.1138 82.689 49.1138 81.6133 49.1138C81.6133 50.1894 81.6133 51.4188 81.6133 52.4945C82.689 52.4945 83.9183 52.4945 84.994 52.4945Z" fill="black"/>
<path d="M85.148 59.1023C85.148 59.1023 84.9943 59.1023 85.148 59.1023C84.9943 59.256 84.9943 59.256 85.148 59.1023Z" fill="black"/>
<path d="M91.9095 55.8755C90.6802 55.8755 89.6045 55.8755 88.5288 55.8755C88.5288 57.1048 88.5288 58.1805 88.5288 59.2562C89.6045 59.2562 90.8338 59.2562 91.9095 59.2562C91.9095 58.0268 91.9095 56.9512 91.9095 55.8755Z" fill="black"/>
<path d="M95.1367 42.199C94.061 42.199 92.9853 42.199 91.9097 42.199C91.9097 43.4283 91.9097 44.504 91.9097 45.5797C92.9853 45.5797 94.061 45.5797 95.1367 45.5797C95.1367 44.3503 95.1367 43.2746 95.1367 42.199Z" fill="black"/>
<path d="M24.1421 72.7789C25.2178 72.7789 26.2934 72.7789 27.3691 72.7789C27.3691 71.5495 27.3691 70.4739 27.3691 69.3982C26.2934 69.3982 25.2178 69.3982 24.1421 69.3982C24.1421 70.6275 24.1421 71.7032 24.1421 72.7789Z" fill="black"/>
<path d="M34.2847 49.1138C34.2847 50.3431 34.2847 51.4188 34.2847 52.4945C35.3603 52.4945 36.436 52.4945 37.5117 52.4945C37.5117 51.4188 37.5117 50.1894 37.5117 49.1138C36.2823 49.1138 35.3603 49.1138 34.2847 49.1138Z" fill="black"/>
<path d="M78.2332 76.1594C77.0039 76.1594 75.9282 76.1594 74.8525 76.1594C74.8525 77.2351 74.8525 78.3108 74.8525 79.5401C76.0819 79.5401 77.1575 79.5401 78.2332 79.5401C78.2332 78.3108 78.2332 77.2351 78.2332 76.1594Z" fill="black"/>
<path d="M91.909 21.7615C88.5283 21.7615 85.1476 21.7615 81.6133 21.7615C81.6133 25.1422 81.6133 28.5228 81.6133 31.7498C85.1476 31.7498 88.5283 31.7498 91.909 31.7498C91.909 28.5228 91.909 25.1422 91.909 21.7615Z" fill="#283c94"/>
<path d="M30.7501 21.915C27.3694 21.915 23.9887 21.915 20.7617 21.915C20.7617 25.2957 20.7617 28.6764 20.7617 31.9034C24.1424 31.9034 27.3694 31.9034 30.7501 31.9034C30.7501 28.5227 30.7501 25.142 30.7501 21.915Z" fill="black"/>
<path d="M20.6079 93.0628C23.9886 93.0628 27.3693 93.0628 30.5963 93.0628C30.5963 89.6821 30.5963 86.3015 30.5963 83.0745C27.2156 83.0745 23.8349 83.0745 20.6079 83.0745C20.6079 86.4551 20.6079 89.6821 20.6079 93.0628Z" fill="#283c94"/>
</svg>
