<svg width="48" height="48" viewBox="0 0 48 48" fill="none" xmlns="http://www.w3.org/2000/svg">
<circle cx="24" cy="24" r="24" fill="#FDEDEE"/>
<path d="M26.2226 26.3623V26.3609C26.2268 24.8239 26.2264 23.2876 26.2261 21.7502C26.226 21.3107 26.2259 20.8711 26.2259 20.4314C26.2259 20.0235 26.226 19.6157 26.2261 19.208C26.2264 17.7819 26.2268 16.357 26.2226 14.9314C26.2216 14.6377 26.2143 14.3815 26.1678 14.1479C25.8978 12.796 25.1352 11.8946 23.8501 11.458C22.5545 11.018 21.3922 11.2801 20.3656 12.2072L20.3656 12.2073C19.5799 12.9167 19.2394 13.8255 19.2413 14.9265V14.9266C19.2447 16.9207 19.2448 18.9189 19.245 20.9165C19.2451 22.732 19.2452 24.5471 19.2478 26.3584L18.7479 26.3591L19.2478 26.3564C19.2486 26.5058 19.2269 26.6624 19.1563 26.8179C19.0861 26.9726 18.9831 27.0917 18.8727 27.1894C17.2211 28.6515 16.5139 30.4602 16.8193 32.6231L26.2226 26.3623ZM26.2226 26.3623C26.2226 26.4968 26.24 26.6456 26.3053 26.7968M26.2226 26.3623L26.3053 26.7968M25.6173 20.2766V20.7766C25.6173 21.3078 25.6177 21.8393 25.6181 22.371C25.6191 23.8606 25.6202 25.3517 25.613 26.8416C25.6127 26.9931 25.6383 27.0925 25.6751 27.1664C25.7116 27.2396 25.7748 27.3191 25.8972 27.4074C27.6542 28.6753 28.4808 30.9015 27.9773 32.9716C27.4582 35.11 25.7549 36.7197 23.6175 37.0692C20.6134 37.5617 17.7703 35.46 17.4115 32.4338L17.4115 32.4335C17.1687 30.3754 17.919 28.6807 19.5514 27.4318L19.5517 27.4316C19.6817 27.3323 19.7506 27.2468 19.7904 27.1685C19.8296 27.0915 19.8567 26.9904 19.8563 26.8355C19.851 24.6507 19.8509 22.463 19.8507 20.2758C19.8507 18.4995 19.8506 16.7235 19.8477 14.9497L19.8477 14.9495C19.8465 13.9494 20.1755 13.0369 21.0768 12.4087L25.6173 20.2766ZM25.6173 20.2766H25.6112M25.6173 20.2766H25.6112M25.6112 20.2766C25.6117 19.8553 25.6128 19.4335 25.6139 19.0114C25.6177 17.5518 25.6214 16.0878 25.6022 14.6264C25.6022 14.6264 25.6022 14.6263 25.6022 14.6262L25.6112 20.2766ZM26.3053 26.7968C26.371 26.9489 26.4696 27.0676 26.5797 27.1663M26.3053 26.7968L26.5797 27.1663M26.5797 27.1663C28.4508 28.8491 29.1469 30.8926 28.5082 33.2914M26.5797 27.1663L28.5082 33.2914M28.5082 33.2914C27.8762 35.6635 26.2908 37.135 23.8763 37.6289M28.5082 33.2914L23.8763 37.6289M23.8763 37.6289C20.5296 38.3135 17.2998 36.0181 16.8193 32.6233L23.8763 37.6289ZM23.9906 12.1685C22.9915 11.6807 21.976 11.7809 21.0768 12.4087L23.9906 12.1685Z" fill="#283c94" stroke="#283c94"/>
<path d="M30.3998 15.5616C30.0063 15.5616 29.6127 15.567 29.2203 15.5606C28.6945 15.5509 28.3332 15.2133 28.3418 14.7499C28.3504 14.2918 28.702 13.9617 29.2127 13.9563C29.9998 13.9488 30.7858 13.9488 31.5728 13.9563C32.0922 13.9606 32.4577 14.3079 32.4513 14.7692C32.4448 15.2262 32.0943 15.5498 31.5814 15.5606C31.1858 15.5681 30.7933 15.5616 30.3998 15.5616Z" fill="#283c94"/>
<path d="M30.3867 22.0034C29.9932 22.0034 29.5997 22.0088 29.2061 22.0023C28.6954 21.9926 28.3438 21.6647 28.3395 21.2067C28.3363 20.7529 28.6879 20.4067 29.1964 20.3992C29.9921 20.3873 30.7878 20.3884 31.5834 20.3992C32.0931 20.4056 32.4447 20.7443 32.449 21.198C32.4533 21.6625 32.092 21.9948 31.5662 22.0023C31.1727 22.0088 30.7792 22.0034 30.3867 22.0034Z" fill="#283c94"/>
<path d="M30.3856 25.2247C29.9921 25.2247 29.5986 25.2301 29.205 25.2237C28.6965 25.2151 28.3427 24.8861 28.3395 24.428C28.3363 23.984 28.6782 23.6324 29.1696 23.6227C29.9824 23.6076 30.7964 23.6076 31.6103 23.6227C32.1146 23.6324 32.464 23.9958 32.4479 24.4463C32.4318 24.8957 32.0866 25.2108 31.592 25.2237C31.3867 25.2291 31.1813 25.2247 30.9749 25.2247C30.7792 25.2247 30.5824 25.2247 30.3856 25.2247Z" fill="#283c94"/>
<path d="M30.4029 18.7831C30.0094 18.7831 29.6159 18.7885 29.2234 18.7821C28.6955 18.7735 28.3364 18.4401 28.3417 17.9757C28.3471 17.5187 28.6976 17.1843 29.2094 17.1789C30.0051 17.1692 30.8008 17.1682 31.5964 17.18C32.1007 17.1864 32.4555 17.537 32.4512 17.9886C32.4469 18.4455 32.0953 18.7724 31.5846 18.7821C31.1889 18.7885 30.7954 18.7831 30.4029 18.7831Z" fill="#283c94"/>
<path d="M23.5453 28.5783C24.227 28.7761 24.8065 29.118 25.2441 29.6653C26.0247 30.6416 26.2365 31.7372 25.7871 32.9081C25.3441 34.0629 24.4882 34.7812 23.2582 34.9726C21.182 35.2962 19.4003 33.6941 19.4713 31.6018C19.5154 30.2964 20.4186 29.0868 21.6884 28.6653C21.8905 28.5987 21.9411 28.5137 21.94 28.3138C21.9335 24.8892 21.9346 21.4636 21.9368 18.039C21.9368 17.4251 22.4378 17.0305 22.9829 17.2068C23.2926 17.3068 23.5141 17.5896 23.5421 17.9229C23.5496 18.0121 23.5453 18.1014 23.5453 18.1906C23.5453 21.5442 23.5453 24.8978 23.5453 28.2514C23.5453 28.3568 23.5453 28.4632 23.5453 28.5783Z" fill="#283c94"/>
</svg>
