<svg width="48" height="48" viewBox="0 0 48 48" fill="none" xmlns="http://www.w3.org/2000/svg">
<circle cx="24" cy="24" r="24" fill="#FDEDEE"/>
<path fill-rule="evenodd" clip-rule="evenodd" d="M11.8289 22.4348C11.3821 22.4348 11 22.8033 11 23.2637V25.1064C11 25.5668 11.3821 25.9353 11.8289 25.9353C12.2893 25.9353 12.6713 25.5668 12.6713 25.1064V23.2637C12.6713 22.8033 12.2893 22.4348 11.8289 22.4348Z" fill="#283c94"/>
<path fill-rule="evenodd" clip-rule="evenodd" d="M14.132 20.9471C13.6852 20.9471 13.3031 21.3292 13.3031 21.7895V26.5793C13.3031 27.0397 13.6852 27.4082 14.132 27.4082C14.5924 27.4082 14.9744 27.0397 14.9744 26.5793V21.7895C14.9731 21.3292 14.5924 20.9471 14.132 20.9471Z" fill="#283c94"/>
<path fill-rule="evenodd" clip-rule="evenodd" d="M16.4338 18.4604C15.9869 18.4604 15.6049 18.8425 15.6049 19.2893V29.0795C15.6049 29.5264 15.9869 29.9084 16.4338 29.9084C16.8941 29.9084 17.2762 29.5264 17.2762 29.0795V19.2893C17.2762 18.8425 16.8941 18.4604 16.4338 18.4604Z" fill="#283c94"/>
<path fill-rule="evenodd" clip-rule="evenodd" d="M18.7369 14C18.29 14 17.908 14.3821 17.908 14.8289V33.5264C17.908 33.9868 18.29 34.3688 18.7369 34.3688C19.1972 34.3688 19.5793 33.9868 19.5793 33.5264V14.8289C19.5793 14.3821 19.1972 14 18.7369 14Z" fill="#283c94"/>
<path fill-rule="evenodd" clip-rule="evenodd" d="M21.0398 18.4604C20.593 18.4604 20.2109 18.8425 20.2109 19.2893V29.0795C20.2109 29.5264 20.593 29.9084 21.0398 29.9084C21.5002 29.9084 21.8822 29.5264 21.8822 29.0795V19.2893C21.8809 18.8425 21.5002 18.4604 21.0398 18.4604Z" fill="#283c94"/>
<path fill-rule="evenodd" clip-rule="evenodd" d="M23.3416 21.3292C22.8947 21.3292 22.5127 21.6977 22.5127 22.1581V26.2108C22.5127 26.6711 22.8947 27.0397 23.3416 27.0397C23.8019 27.0397 24.184 26.6711 24.184 26.2108V22.1581C24.184 21.6977 23.8019 21.3292 23.3416 21.3292Z" fill="#283c94"/>
<path fill-rule="evenodd" clip-rule="evenodd" d="M25.6448 20.5394C25.198 20.5394 24.8159 20.9215 24.8159 21.3818V26.987C24.8159 27.4474 25.198 27.8294 25.6448 27.8294C26.1052 27.8294 26.4872 27.4474 26.4872 26.987V21.3818C26.4872 20.9215 26.1052 20.5394 25.6448 20.5394Z" fill="#283c94"/>
<path fill-rule="evenodd" clip-rule="evenodd" d="M27.948 18.1324C27.5012 18.1324 27.1191 18.5144 27.1191 18.9748V29.3954C27.1191 29.8558 27.5012 30.2378 27.948 30.2378C28.4084 30.2378 28.7904 29.8558 28.7904 29.3954V18.9734C28.7904 18.5131 28.4084 18.1324 27.948 18.1324Z" fill="#283c94"/>
<path fill-rule="evenodd" clip-rule="evenodd" d="M30.2497 15.1718C29.8028 15.1718 29.4208 15.5539 29.4208 16.0142V32.356C29.4208 32.8163 29.8028 33.1984 30.2497 33.1984C30.71 33.1984 31.0921 32.8163 31.0921 32.356V16.0129C31.0921 15.5525 30.71 15.1718 30.2497 15.1718Z" fill="#283c94"/>
<path fill-rule="evenodd" clip-rule="evenodd" d="M32.5527 18.1324C32.1058 18.1324 31.7238 18.5144 31.7238 18.9748V29.3954C31.7238 29.8558 32.1058 30.2378 32.5527 30.2378C33.013 30.2378 33.3951 29.8558 33.3951 29.3954V18.9734C33.3951 18.5131 33.013 18.1324 32.5527 18.1324Z" fill="#283c94"/>
<path fill-rule="evenodd" clip-rule="evenodd" d="M34.8545 20.5394C34.4077 20.5394 34.0256 20.9215 34.0256 21.3818V26.987C34.0256 27.4474 34.4077 27.8294 34.8545 27.8294C35.3149 27.8294 35.6969 27.4474 35.6969 26.987V21.3818C35.6969 20.9215 35.3162 20.5394 34.8545 20.5394Z" fill="#283c94"/>
<path fill-rule="evenodd" clip-rule="evenodd" d="M37.1575 22.6319C36.7107 22.6319 36.3286 23.014 36.3286 23.4608V24.908C36.3286 25.3549 36.7107 25.7369 37.1575 25.7369C37.6179 25.7369 37.9999 25.3549 37.9999 24.908V23.4608C37.9999 23.014 37.6179 22.6319 37.1575 22.6319Z" fill="#283c94"/>
</svg>
