<svg width="88" height="61" viewBox="0 0 88 61" fill="none" xmlns="http://www.w3.org/2000/svg">
<path d="M77.9017 30.8478C77.6089 30.8476 77.3195 30.7859 77.0521 30.6668C76.9899 30.6391 76.9306 30.6054 76.875 30.5661L71.4695 26.7611C71.1954 26.5681 70.9717 26.3121 70.8172 26.0145C70.6628 25.717 70.5821 25.3866 70.582 25.0514V19.8621C70.5821 19.5269 70.6628 19.1966 70.8172 18.899C70.9717 18.6015 71.1954 18.3454 71.4695 18.1524L76.875 14.3474C76.9306 14.3081 76.9899 14.2744 77.0521 14.2468C77.3705 14.1052 77.7192 14.0454 78.0666 14.0729C78.414 14.1004 78.749 14.2142 79.0412 14.4041C79.3334 14.594 79.5735 14.8538 79.7397 15.1601C79.906 15.4664 79.993 15.8093 79.993 16.1578V28.7558C79.993 29.3104 79.7727 29.8424 79.3805 30.2346C78.9883 30.6268 78.4563 30.8471 77.9017 30.8471L77.9017 30.8478Z" fill="#3F3D56"/>
<path d="M65.8039 31.8679H50.7278C47.652 31.8654 45.1594 29.8771 45.1562 27.4237V17.4896C45.1594 15.0362 47.652 13.0479 50.7278 13.0454H65.8432C68.8971 13.0483 71.3719 15.0223 71.3755 17.4582V27.4237C71.3723 29.8771 68.8797 31.8654 65.8039 31.8679Z" fill="#3F3D56"/>
<path d="M87.2104 58.9284C87.2131 59.4328 87.0152 59.9176 86.6605 60.2761C86.3057 60.6346 85.823 60.8375 85.3187 60.8402H2.08326C1.83352 60.8389 1.58648 60.7884 1.35625 60.6916C1.12602 60.5948 0.917108 60.4537 0.741436 60.2762C0.565764 60.0986 0.426774 59.8883 0.332405 59.657C0.238035 59.4258 0.190133 59.1782 0.191432 58.9285V2.07187C0.188795 1.56749 0.386624 1.08272 0.7414 0.724203C1.09618 0.365689 1.57884 0.162794 2.0832 0.160156H85.3186C85.5683 0.161455 85.8154 0.211933 86.0456 0.308706C86.2758 0.405478 86.4847 0.546652 86.6604 0.724166C86.8361 0.901679 86.9751 1.11206 87.0694 1.34329C87.1638 1.57452 87.2117 1.82207 87.2104 2.07181V58.9284Z" fill="#E6E6E6"/>
<path d="M86.2287 57.9976C86.2287 58.4878 86.034 58.958 85.6873 59.3047C85.3407 59.6513 84.8705 59.8461 84.3803 59.8461H3.0789C2.58867 59.8461 2.11851 59.6513 1.77186 59.3047C1.42521 58.958 1.23047 58.4878 1.23047 57.9976V3.02915C1.23047 2.5389 1.42521 2.06873 1.77186 1.72207C2.11851 1.37541 2.58867 1.18066 3.0789 1.18066H84.384C84.8736 1.18165 85.3428 1.37683 85.6886 1.72338C86.0345 2.06993 86.2287 2.53954 86.2287 3.02915V57.9976Z" fill="white"/>
<path d="M5.57568 3.56689H81.9702C82.2612 3.56689 82.5403 3.68249 82.746 3.88825C82.9518 4.09402 83.0674 4.37309 83.0674 4.66408V56.1488C83.0674 56.4398 82.9518 56.7189 82.746 56.9246C82.5403 57.1304 82.2612 57.246 81.9702 57.246H5.57568C5.28469 57.246 5.00562 57.1304 4.79987 56.9246C4.59411 56.7189 4.47852 56.4398 4.47852 56.1488V4.66408C4.47852 4.37309 4.59411 4.09402 4.79987 3.88825C5.00562 3.68249 5.28469 3.56689 5.57568 3.56689Z" fill="#E6E6E6"/>
<path d="M6.54247 4.80127H80.92C81.064 4.80127 81.2067 4.82965 81.3398 4.88479C81.4729 4.93993 81.5939 5.02074 81.6958 5.12263C81.7976 5.22451 81.8785 5.34546 81.9336 5.47858C81.9887 5.6117 82.0171 5.75437 82.0171 5.89846V54.6359C82.0171 54.7799 81.9887 54.9226 81.9336 55.0557C81.8785 55.1889 81.7976 55.3098 81.6958 55.4117C81.5939 55.5136 81.4729 55.5944 81.3398 55.6495C81.2067 55.7047 81.064 55.7331 80.92 55.7331H6.54247C6.25149 55.7331 5.97242 55.6175 5.76666 55.4117C5.56091 55.2059 5.44531 54.9269 5.44531 54.6359V5.89846C5.44531 5.60746 5.56091 5.32839 5.76666 5.12263C5.97242 4.91687 6.25149 4.80127 6.54247 4.80127Z" fill="white"/>
<path d="M73.8158 52.5996C76.2921 52.5996 78.2996 50.5921 78.2996 48.1157C78.2996 45.6393 76.2921 43.6318 73.8158 43.6318C71.3395 43.6318 69.332 45.6393 69.332 48.1157C69.332 50.5921 71.3395 52.5996 73.8158 52.5996Z" fill="#3F3D56"/>
<path d="M76.1449 48.0349L72.5709 45.9714C72.5567 45.9633 72.5407 45.959 72.5244 45.959C72.5082 45.959 72.4922 45.9633 72.478 45.9714C72.4639 45.9796 72.4522 45.9913 72.4441 46.0054C72.4359 46.0195 72.4316 46.0355 72.4316 46.0518V50.1788C72.4316 50.1951 72.4359 50.2111 72.4441 50.2252C72.4522 50.2394 72.4639 50.2511 72.478 50.2592C72.4922 50.2674 72.5082 50.2716 72.5244 50.2716C72.5407 50.2716 72.5567 50.2674 72.5709 50.2592L76.1449 48.1957C76.159 48.1876 76.1707 48.1758 76.1789 48.1617C76.187 48.1476 76.1913 48.1316 76.1913 48.1153C76.1913 48.099 76.187 48.083 76.1789 48.0689C76.1707 48.0548 76.159 48.0431 76.1449 48.0349L72.5709 45.9714C72.5567 45.9633 72.5407 45.959 72.5244 45.959C72.5082 45.959 72.4922 45.9633 72.478 45.9714C72.4639 45.9796 72.4522 45.9913 72.4441 46.0054C72.4359 46.0195 72.4316 46.0355 72.4316 46.0518V50.1788C72.4316 50.1951 72.4359 50.2111 72.4441 50.2252C72.4522 50.2394 72.4639 50.2511 72.478 50.2592C72.4922 50.2674 72.5082 50.2716 72.5244 50.2716C72.5407 50.2716 72.5567 50.2674 72.5709 50.2592L76.1449 48.1957C76.159 48.1876 76.1707 48.1758 76.1789 48.1617C76.187 48.1476 76.1913 48.1316 76.1913 48.1153C76.1913 48.099 76.187 48.083 76.1789 48.0689C76.1707 48.0548 76.159 48.0431 76.1449 48.0349Z" fill="white"/>
<path d="M44.1906 33.7694C44.998 33.7694 45.6804 33.4906 46.2379 32.9332C46.7953 32.3757 47.0741 31.6933 47.0741 30.8859V24.5423H49.4097C49.7365 24.5423 50.0056 24.432 50.217 24.2113C50.4285 23.9898 50.5342 23.7157 50.5342 23.3889C50.5342 23.0621 50.4235 22.788 50.202 22.5666C49.9814 22.3459 49.7076 22.2355 49.3808 22.2355H47.0741C46.7473 22.2355 46.4735 22.3459 46.2529 22.5666C46.0314 22.788 45.9207 23.0621 45.9207 23.3889V28.5792C45.6708 28.3869 45.4017 28.2427 45.1133 28.1466C44.825 28.0505 44.5174 28.0025 44.1906 28.0025C43.3832 28.0025 42.7008 28.2812 42.1434 28.8387C41.5859 29.3961 41.3071 30.0786 41.3071 30.8859C41.3071 31.6933 41.5859 32.3757 42.1434 32.9332C42.7008 33.4906 43.3832 33.7694 44.1906 33.7694ZM39.0004 37.2295C38.366 37.2295 37.8232 37.0039 37.3718 36.5525C36.9197 36.1004 36.6936 35.5571 36.6936 34.9228V21.0822C36.6936 20.4478 36.9197 19.9046 37.3718 19.4524C37.8232 19.0011 38.366 18.7754 39.0004 18.7754H52.841C53.4753 18.7754 54.0186 19.0011 54.4707 19.4524C54.9221 19.9046 55.1478 20.4478 55.1478 21.0822V34.9228C55.1478 35.5571 54.9221 36.1004 54.4707 36.5525C54.0186 37.0039 53.4753 37.2295 52.841 37.2295H39.0004ZM34.3868 41.8431C33.7525 41.8431 33.2096 41.6174 32.7583 41.166C32.3061 40.7139 32.0801 40.1707 32.0801 39.5363V24.5135C32.0801 24.1867 32.1908 23.9176 32.4123 23.7061C32.6329 23.4947 32.9067 23.3889 33.2335 23.3889C33.5603 23.3889 33.8344 23.4993 34.0558 23.7199C34.2765 23.9414 34.3868 24.2155 34.3868 24.5423V39.5363H49.4097C49.7365 39.5363 50.0056 39.647 50.217 39.8685C50.4285 40.0892 50.5342 40.3629 50.5342 40.6897C50.5342 41.0165 50.4235 41.2902 50.202 41.5109C49.9814 41.7323 49.7076 41.8431 49.3808 41.8431H34.3868Z" fill="#0095DA"/>
</svg>
