<svg width="44" height="47" viewBox="0 0 44 47" fill="none" xmlns="http://www.w3.org/2000/svg">
<path d="M3.48242 43.1337C3.48242 44.8555 4.75777 46.2643 6.31793 46.2643H41.1678C42.728 46.2643 44.0008 44.8555 44.0008 43.1337V13.1824H3.48242V43.1337Z" fill="#465EAC"/>
<path d="M44.0008 15.3431V8.58399C44.0008 7.02382 42.7255 5.74847 41.1678 5.74847H6.31793C4.75777 5.74847 3.48242 7.02382 3.48242 8.58399V15.3431H44.0008Z" fill="#465EAC"/>
<path d="M11.7349 18.4429H9.78954C8.9166 18.4429 8.20898 19.1506 8.20898 20.0234V22.0766C8.20898 22.9496 8.9166 23.6572 9.78954 23.6572H11.7349C12.6078 23.6572 13.3154 22.9496 13.3154 22.0766V20.0234C13.3154 19.1506 12.6078 18.4429 11.7349 18.4429Z" fill="white"/>
<path d="M18.2242 18.4429H16.2788C15.4059 18.4429 14.6982 19.1506 14.6982 20.0234V22.0766C14.6982 22.9496 15.4059 23.6572 16.2788 23.6572H18.2242C19.0971 23.6572 19.8048 22.9496 19.8048 22.0766V20.0234C19.8048 19.1506 19.0971 18.4429 18.2242 18.4429Z" fill="white"/>
<path d="M24.7134 18.4429H22.7681C21.8951 18.4429 21.1875 19.1506 21.1875 20.0234V22.0766C21.1875 22.9496 21.8951 23.6572 22.7681 23.6572H24.7134C25.5863 23.6572 26.2939 22.9496 26.2939 22.0766V20.0234C26.2939 19.1506 25.5863 18.4429 24.7134 18.4429Z" fill="white"/>
<path d="M31.2027 18.4429H29.2573C28.3844 18.4429 27.6768 19.1506 27.6768 20.0234V22.0766C27.6768 22.9496 28.3844 23.6572 29.2573 23.6572H31.2027C32.0756 23.6572 32.7832 22.9496 32.7832 22.0766V20.0234C32.7832 19.1506 32.0756 18.4429 31.2027 18.4429Z" fill="white"/>
<path d="M37.693 18.4429H35.7475C34.8746 18.4429 34.167 19.1506 34.167 20.0234V22.0766C34.167 22.9496 34.8746 23.6572 35.7475 23.6572H37.693C38.5658 23.6572 39.2735 22.9496 39.2735 22.0766V20.0234C39.2735 19.1506 38.5658 18.4429 37.693 18.4429Z" fill="white"/>
<path d="M11.734 24.9505H9.78856C8.9157 24.9505 8.20801 25.6581 8.20801 26.5311V28.5842C8.20801 29.4571 8.9157 30.1647 9.78856 30.1647H11.734C12.6069 30.1647 13.3145 29.4571 13.3145 28.5842V26.5311C13.3145 25.6581 12.6069 24.9505 11.734 24.9505Z" fill="white"/>
<path d="M18.2242 24.9505H16.2788C15.4059 24.9505 14.6982 25.6581 14.6982 26.5311V28.5842C14.6982 29.4571 15.4059 30.1647 16.2788 30.1647H18.2242C19.0971 30.1647 19.8048 29.4571 19.8048 28.5842V26.5311C19.8048 25.6581 19.0971 24.9505 18.2242 24.9505Z" fill="white"/>
<path d="M24.7134 24.9505H22.7681C21.8951 24.9505 21.1875 25.6581 21.1875 26.5311V28.5842C21.1875 29.4571 21.8951 30.1647 22.7681 30.1647H24.7134C25.5863 30.1647 26.2939 29.4571 26.2939 28.5842V26.5311C26.2939 25.6581 25.5863 24.9505 24.7134 24.9505Z" fill="white"/>
<path d="M31.2027 24.9505H29.2573C28.3844 24.9505 27.6768 25.6581 27.6768 26.5311V28.5842C27.6768 29.4571 28.3844 30.1647 29.2573 30.1647H31.2027C32.0756 30.1647 32.7832 29.4571 32.7832 28.5842V26.5311C32.7832 25.6581 32.0756 24.9505 31.2027 24.9505Z" fill="white"/>
<path d="M37.693 24.9505H35.7475C34.8746 24.9505 34.167 25.6581 34.167 26.5311V28.5842C34.167 29.4571 34.8746 30.1647 35.7475 30.1647H37.693C38.5658 30.1647 39.2735 29.4571 39.2735 28.5842V26.5311C39.2735 25.6581 38.5658 24.9505 37.693 24.9505Z" fill="white"/>
<path d="M11.734 31.4554H9.78856C8.9157 31.4554 8.20801 32.163 8.20801 33.0359V35.0891C8.20801 35.9621 8.9157 36.6697 9.78856 36.6697H11.734C12.6069 36.6697 13.3145 35.9621 13.3145 35.0891V33.0359C13.3145 32.163 12.6069 31.4554 11.734 31.4554Z" fill="white"/>
<path d="M18.2242 31.4554H16.2788C15.4059 31.4554 14.6982 32.163 14.6982 33.0359V35.0891C14.6982 35.9621 15.4059 36.6697 16.2788 36.6697H18.2242C19.0971 36.6697 19.8048 35.9621 19.8048 35.0891V33.0359C19.8048 32.163 19.0971 31.4554 18.2242 31.4554Z" fill="white"/>
<path d="M24.7134 31.4554H22.7681C21.8951 31.4554 21.1875 32.163 21.1875 33.0359V35.0891C21.1875 35.9621 21.8951 36.6697 22.7681 36.6697H24.7134C25.5863 36.6697 26.2939 35.9621 26.2939 35.0891V33.0359C26.2939 32.163 25.5863 31.4554 24.7134 31.4554Z" fill="white"/>
<path d="M31.2027 31.4554H29.2573C28.3844 31.4554 27.6768 32.163 27.6768 33.0359V35.0891C27.6768 35.9621 28.3844 36.6697 29.2573 36.6697H31.2027C32.0756 36.6697 32.7832 35.9621 32.7832 35.0891V33.0359C32.7832 32.163 32.0756 31.4554 31.2027 31.4554Z" fill="white"/>
<path d="M37.693 31.4554H35.7475C34.8746 31.4554 34.167 32.163 34.167 33.0359V35.0891C34.167 35.9621 34.8746 36.6697 35.7475 36.6697H37.693C38.5658 36.6697 39.2735 35.9621 39.2735 35.0891V33.0359C39.2735 32.163 38.5658 31.4554 37.693 31.4554Z" fill="white"/>
<path d="M11.734 37.963H9.78856C8.9157 37.963 8.20801 38.6706 8.20801 39.5436V41.5942C8.20801 42.4671 8.9157 43.1747 9.78856 43.1747H11.734C12.6069 43.1747 13.3145 42.4671 13.3145 41.5942V39.5436C13.3145 38.6706 12.6069 37.963 11.734 37.963Z" fill="white"/>
<path d="M18.2241 37.963H16.2788C15.4059 37.963 14.6982 38.6706 14.6982 39.5436V41.5942C14.6982 42.4671 15.4059 43.1747 16.2788 43.1747H18.2241C19.0971 43.1747 19.8047 42.4671 19.8047 41.5942V39.5436C19.8047 38.6706 19.0971 37.963 18.2241 37.963Z" fill="white"/>
<path d="M24.7135 37.963H22.7681C21.8952 37.963 21.1875 38.6706 21.1875 39.5436V41.5942C21.1875 42.4671 21.8952 43.1747 22.7681 43.1747H24.7135C25.5864 43.1747 26.294 42.4671 26.294 41.5942V39.5436C26.294 38.6706 25.5864 37.963 24.7135 37.963Z" fill="white"/>
<path opacity="0.2" d="M10.1045 9.26918C10.1045 10.0621 9.46039 10.7062 8.66743 10.7062C7.87454 10.7062 7.23047 10.0621 7.23047 9.26918C7.23047 8.4763 7.87454 7.83222 8.66743 7.83222C9.46039 7.82961 10.1045 8.47377 10.1045 9.26918Z" fill="white"/>
<path d="M8.1192 7.92851C8.24746 8.03179 8.42448 8.09984 8.61913 8.10237C8.81828 8.10742 9.01735 8.04444 9.15896 7.92851C9.29173 7.82016 9.37574 7.67151 9.37574 7.50515C9.37574 7.42202 9.37574 7.34141 9.37574 7.25827C9.37574 6.2856 9.37574 5.31554 9.37574 4.34287C9.37574 4.32271 9.37574 4.30003 9.37574 4.27988C9.37574 4.11361 9.29173 3.96495 9.15896 3.85661C9.01735 3.74067 8.81828 3.67769 8.61913 3.68275C8.42448 3.68781 8.24746 3.75332 8.1192 3.85661C7.98643 3.96495 7.90234 4.11361 7.90234 4.27988C7.90234 4.30256 7.90234 4.32271 7.90234 4.34287C7.90234 5.31554 7.90234 6.2856 7.90234 7.25827C7.90234 7.34141 7.90234 7.42202 7.90234 7.50515C7.90234 7.67151 7.98643 7.82016 8.1192 7.92851Z" fill="white"/>
<path opacity="0.2" d="M15.4277 9.26918C15.4277 10.0621 14.7836 10.7062 13.9908 10.7062C13.1978 10.7062 12.5537 10.0621 12.5537 9.26918C12.5537 8.4763 13.1978 7.83222 13.9908 7.83222C14.7862 7.82961 15.4277 8.47377 15.4277 9.26918Z" fill="white"/>
<path d="M13.2754 7.92851C13.4037 8.03179 13.5807 8.09984 13.7754 8.10237C13.9745 8.10742 14.1736 8.04444 14.3152 7.92851C14.448 7.82016 14.532 7.67151 14.532 7.50515C14.532 7.42202 14.532 7.34141 14.532 7.25827C14.532 6.2856 14.532 5.31554 14.532 4.34287C14.532 4.32271 14.532 4.30003 14.532 4.27988C14.532 4.11361 14.448 3.96495 14.3152 3.85661C14.1736 3.74067 13.9745 3.67769 13.7754 3.68275C13.5807 3.68781 13.4037 3.75332 13.2754 3.85661C13.1427 3.96495 13.0586 4.11361 13.0586 4.27988C13.0586 4.30256 13.0586 4.32271 13.0586 4.34287C13.0586 5.31554 13.0586 6.2856 13.0586 7.25827C13.0586 7.34141 13.0586 7.42202 13.0586 7.50515C13.0586 7.67151 13.1427 7.82016 13.2754 7.92851Z" fill="white"/>
<path opacity="0.2" d="M35.3222 9.26918C35.3222 10.0621 34.6782 10.7062 33.8852 10.7062C33.0923 10.7062 32.4482 10.0621 32.4482 9.26918C32.4482 8.4763 33.0923 7.83222 33.8852 7.83222C34.6782 7.82961 35.3222 8.47377 35.3222 9.26918Z" fill="white"/>
<path d="M33.167 7.92851C33.2953 8.03179 33.4723 8.09984 33.667 8.10237C33.8661 8.10742 34.0652 8.04444 34.2068 7.92851C34.3395 7.82016 34.4236 7.67151 34.4236 7.50515C34.4236 7.42202 34.4236 7.34141 34.4236 7.25827C34.4236 6.2856 34.4236 5.31554 34.4236 4.34287C34.4236 4.32271 34.4236 4.30003 34.4236 4.27988C34.4236 4.11361 34.3395 3.96495 34.2068 3.85661C34.0652 3.74067 33.8661 3.67769 33.667 3.68275C33.4723 3.68781 33.2953 3.75332 33.167 3.85661C33.0343 3.96495 32.9502 4.11361 32.9502 4.27988C32.9502 4.30256 32.9502 4.32271 32.9502 4.34287C32.9502 5.31554 32.9502 6.2856 32.9502 7.25827C32.9502 7.34141 32.9502 7.42202 32.9502 7.50515C32.9502 7.67151 33.0343 7.82016 33.167 7.92851Z" fill="white"/>
<path opacity="0.2" d="M40.6435 9.26918C40.6435 10.0621 39.9995 10.7062 39.2065 10.7062C38.4136 10.7062 37.7695 10.0621 37.7695 9.26918C37.7695 8.4763 38.4136 7.83222 39.2065 7.83222C40.002 7.82961 40.6435 8.47377 40.6435 9.26918Z" fill="white"/>
<path d="M38.3232 7.92851C38.4516 8.03179 38.6285 8.09984 38.8232 8.10237C39.0223 8.10742 39.2214 8.04444 39.363 7.92851C39.4958 7.82016 39.5798 7.67151 39.5798 7.50515C39.5798 7.42202 39.5798 7.34141 39.5798 7.25827C39.5798 6.2856 39.5798 5.31554 39.5798 4.34287C39.5798 4.32271 39.5798 4.30003 39.5798 4.27988C39.5798 4.11361 39.4958 3.96495 39.363 3.85661C39.2214 3.74067 39.0223 3.67769 38.8232 3.68275C38.6285 3.68781 38.4516 3.75332 38.3232 3.85661C38.1905 3.96495 38.1064 4.11361 38.1064 4.27988C38.1064 4.30256 38.1064 4.32271 38.1064 4.34287C38.1064 5.31554 38.1064 6.2856 38.1064 7.25827C38.1064 7.34141 38.1064 7.42202 38.1064 7.50515C38.1064 7.67151 38.1905 7.82016 38.3232 7.92851Z" fill="white"/>
<path d="M22.5912 40.2183C22.4938 40.0397 22.27 39.9739 22.0915 40.0713C21.9128 40.1687 21.847 40.3925 21.9445 40.571L22.5912 40.2183ZM23.0045 41.6225L22.7098 41.8435C22.7739 41.929 22.8719 41.9824 22.9784 41.99C23.0849 41.9975 23.1895 41.9585 23.265 41.883L23.0045 41.6225ZM25.475 39.6729C25.6189 39.529 25.6189 39.2958 25.475 39.1519C25.3311 39.0081 25.0979 39.0081 24.9541 39.1519L25.475 39.6729ZM22.2678 40.3947C21.9445 40.571 21.9445 40.5711 21.9445 40.5711C21.9445 40.5712 21.9446 40.5713 21.9446 40.5713C21.9446 40.5714 21.9447 40.5717 21.9449 40.5719C21.9451 40.5724 21.9455 40.5731 21.946 40.574C21.947 40.5758 21.9485 40.5784 21.9503 40.5819C21.9541 40.5888 21.9597 40.5988 21.9668 40.6117C21.9809 40.6374 22.0013 40.6744 22.0266 40.7198C22.0771 40.8104 22.1471 40.9349 22.225 41.0699C22.3766 41.3327 22.5715 41.6591 22.7098 41.8435L23.2992 41.4015C23.1919 41.2585 23.0185 40.971 22.8631 40.7017C22.7876 40.5707 22.7194 40.4497 22.6701 40.3612C22.6455 40.317 22.6257 40.2812 22.612 40.2564C22.6052 40.2439 22.5999 40.2343 22.5964 40.2279C22.5947 40.2247 22.5933 40.2222 22.5924 40.2206C22.592 40.2198 22.5916 40.2192 22.5915 40.2188C22.5913 40.2186 22.5913 40.2185 22.5913 40.2183H22.5912C22.5912 40.2183 22.5912 40.2183 22.5912 40.2183C22.5912 40.2183 22.5912 40.2183 22.2678 40.3947ZM23.265 41.883L25.475 39.6729L24.9541 39.1519L22.7441 41.3621L23.265 41.883Z" fill="white"/>
<path d="M16.6977 40.2183C16.6002 40.0397 16.3765 39.9739 16.1979 40.0713C16.0193 40.1687 15.9535 40.3925 16.0509 40.571L16.6977 40.2183ZM17.111 41.6225L16.8163 41.8435C16.8804 41.929 16.9784 41.9824 17.0848 41.99C17.1914 41.9975 17.2959 41.9585 17.3714 41.883L17.111 41.6225ZM19.5815 39.6729C19.7253 39.529 19.7253 39.2958 19.5815 39.1519C19.4376 39.0081 19.2044 39.0081 19.0606 39.1519L19.5815 39.6729ZM16.3743 40.3947C16.0509 40.571 16.0509 40.5711 16.0509 40.5711C16.0509 40.5711 16.0509 40.5711 16.051 40.5711C16.051 40.5712 16.051 40.5713 16.051 40.5713C16.0512 40.5714 16.0512 40.5717 16.0514 40.5719C16.0516 40.5724 16.052 40.5731 16.0525 40.574C16.0534 40.5758 16.0549 40.5784 16.0568 40.5819C16.0606 40.5888 16.0661 40.5988 16.0732 40.6117C16.0873 40.6374 16.1078 40.6744 16.1331 40.7198C16.1836 40.8104 16.2535 40.9349 16.3315 41.0699C16.4831 41.3327 16.678 41.6591 16.8163 41.8435L17.4056 41.4015C17.2984 41.2585 17.1249 40.971 16.9696 40.7017C16.8941 40.5707 16.8259 40.4497 16.7766 40.3612C16.752 40.317 16.7321 40.2812 16.7185 40.2564C16.7117 40.2439 16.7065 40.2343 16.7029 40.2279C16.7012 40.2247 16.6998 40.2222 16.6989 40.2206C16.6985 40.2198 16.6982 40.2192 16.6979 40.2188C16.6978 40.2186 16.6978 40.2185 16.6977 40.2183C16.6977 40.2183 16.6977 40.2183 16.6977 40.2183C16.6977 40.2183 16.6977 40.2183 16.3743 40.3947ZM17.3714 41.883L19.5815 39.6729L19.0606 39.1519L16.8505 41.3621L17.3714 41.883Z" fill="white"/>
<path d="M0.535156 41.0055C0.535156 42.763 1.83698 44.201 3.42946 44.201H39.0025C40.595 44.201 41.8942 42.763 41.8942 41.0055V10.4328H0.535156V41.0055Z" fill="url(#paint0_linear_1228_53038)"/>
<path d="M41.8942 12.6382V5.73893C41.8942 4.14636 40.5924 2.84454 39.0025 2.84454H3.42946C1.83698 2.84454 0.535156 4.14636 0.535156 5.73893V12.6382H41.8942Z" fill="#0061FF"/>
<path d="M8.99222 15.8023H6.9409C6.06796 15.8023 5.36035 16.51 5.36035 17.3829V19.5443C5.36035 20.4171 6.06796 21.1248 6.9409 21.1248H8.99222C9.86516 21.1248 10.5728 20.4171 10.5728 19.5443V17.3829C10.5728 16.51 9.86516 15.8023 8.99222 15.8023Z" fill="white"/>
<path d="M15.6162 15.8023H13.5649C12.692 15.8023 11.9844 16.51 11.9844 17.3829V19.5443C11.9844 20.4171 12.692 21.1248 13.5649 21.1248H15.6162C16.4892 21.1248 17.1968 20.4171 17.1968 19.5443V17.3829C17.1968 16.51 16.4892 15.8023 15.6162 15.8023Z" fill="white"/>
<path d="M22.2403 15.8023H20.189C19.316 15.8023 18.6084 16.51 18.6084 17.3829V19.5443C18.6084 20.4171 19.316 21.1248 20.189 21.1248H22.2403C23.1132 21.1248 23.8208 20.4171 23.8208 19.5443V17.3829C23.8208 16.51 23.1132 15.8023 22.2403 15.8023Z" fill="white"/>
<path d="M28.8643 15.8023H26.813C25.94 15.8023 25.2324 16.51 25.2324 17.3829V19.5443C25.2324 20.4171 25.94 21.1248 26.813 21.1248H28.8643C29.7372 21.1248 30.4448 20.4171 30.4448 19.5443V17.3829C30.4448 16.51 29.7372 15.8023 28.8643 15.8023Z" fill="white"/>
<path d="M35.4883 15.8023H33.437C32.5641 15.8023 31.8564 16.51 31.8564 17.3829V19.5443C31.8564 20.4171 32.5641 21.1248 33.437 21.1248H35.4883C36.3613 21.1248 37.0689 20.4171 37.0689 19.5443V17.3829C37.0689 16.51 36.3613 15.8023 35.4883 15.8023Z" fill="white"/>
<path d="M8.99125 22.4448H6.93993C6.06699 22.4448 5.35938 23.1525 5.35938 24.0253V26.1868C5.35938 27.0596 6.06699 27.7673 6.93993 27.7673H8.99125C9.86419 27.7673 10.5718 27.0596 10.5718 26.1868V24.0253C10.5718 23.1525 9.86419 22.4448 8.99125 22.4448Z" fill="white"/>
<path d="M15.6162 22.4448H13.5649C12.692 22.4448 11.9844 23.1525 11.9844 24.0253V26.1868C11.9844 27.0596 12.692 27.7673 13.5649 27.7673H15.6162C16.4892 27.7673 17.1968 27.0596 17.1968 26.1868V24.0253C17.1968 23.1525 16.4892 22.4448 15.6162 22.4448Z" fill="white"/>
<path d="M22.2403 22.4448H20.189C19.316 22.4448 18.6084 23.1525 18.6084 24.0253V26.1868C18.6084 27.0596 19.316 27.7673 20.189 27.7673H22.2403C23.1132 27.7673 23.8208 27.0596 23.8208 26.1868V24.0253C23.8208 23.1525 23.1132 22.4448 22.2403 22.4448Z" fill="white"/>
<path d="M28.8643 22.4448H26.813C25.94 22.4448 25.2324 23.1525 25.2324 24.0253V26.1868C25.2324 27.0596 25.94 27.7673 26.813 27.7673H28.8643C29.7372 27.7673 30.4448 27.0596 30.4448 26.1868V24.0253C30.4448 23.1525 29.7372 22.4448 28.8643 22.4448Z" fill="white"/>
<path d="M35.4883 22.4448H33.437C32.5641 22.4448 31.8564 23.1525 31.8564 24.0253V26.1868C31.8564 27.0596 32.5641 27.7673 33.437 27.7673H35.4883C36.3613 27.7673 37.0689 27.0596 37.0689 26.1868V24.0253C37.0689 23.1525 36.3613 22.4448 35.4883 22.4448Z" fill="white"/>
<path d="M8.99125 29.0848H6.93993C6.06699 29.0848 5.35938 29.7925 5.35938 30.6653V32.8267C5.35938 33.6996 6.06699 34.4073 6.93993 34.4073H8.99125C9.86419 34.4073 10.5718 33.6996 10.5718 32.8267V30.6653C10.5718 29.7925 9.86419 29.0848 8.99125 29.0848Z" fill="white"/>
<path d="M15.6162 29.0848H13.5649C12.692 29.0848 11.9844 29.7925 11.9844 30.6653V32.8267C11.9844 33.6996 12.692 34.4073 13.5649 34.4073H15.6162C16.4892 34.4073 17.1968 33.6996 17.1968 32.8267V30.6653C17.1968 29.7925 16.4892 29.0848 15.6162 29.0848Z" fill="white"/>
<path d="M22.2403 29.0848H20.189C19.316 29.0848 18.6084 29.7925 18.6084 30.6653V32.8267C18.6084 33.6996 19.316 34.4073 20.189 34.4073H22.2403C23.1132 34.4073 23.8208 33.6996 23.8208 32.8267V30.6653C23.8208 29.7925 23.1132 29.0848 22.2403 29.0848Z" fill="white"/>
<path d="M28.8643 29.0848H26.813C25.94 29.0848 25.2324 29.7925 25.2324 30.6653V32.8267C25.2324 33.6996 25.94 34.4073 26.813 34.4073H28.8643C29.7372 34.4073 30.4448 33.6996 30.4448 32.8267V30.6653C30.4448 29.7925 29.7372 29.0848 28.8643 29.0848Z" fill="white"/>
<path d="M35.4883 29.0848H33.437C32.5641 29.0848 31.8564 29.7925 31.8564 30.6653V32.8267C31.8564 33.6996 32.5641 34.4073 33.437 34.4073H35.4883C36.3613 34.4073 37.0689 33.6996 37.0689 32.8267V30.6653C37.0689 29.7925 36.3613 29.0848 35.4883 29.0848Z" fill="white"/>
<path d="M8.99125 35.7274H6.93993C6.06699 35.7274 5.35938 36.4351 5.35938 37.308V39.4668C5.35938 40.3397 6.06699 41.0473 6.93993 41.0473H8.99125C9.86419 41.0473 10.5718 40.3397 10.5718 39.4668V37.308C10.5718 36.4351 9.86419 35.7274 8.99125 35.7274Z" fill="white"/>
<path d="M15.6162 35.7274H13.5649C12.6921 35.7274 11.9844 36.4351 11.9844 37.308V39.4668C11.9844 40.3397 12.6921 41.0473 13.5649 41.0473H15.6162C16.4892 41.0473 17.1968 40.3397 17.1968 39.4668V37.308C17.1968 36.4351 16.4892 35.7274 15.6162 35.7274Z" fill="#0061FF"/>
<path d="M22.2403 35.7274H20.189C19.316 35.7274 18.6084 36.4351 18.6084 37.308V39.4668C18.6084 40.3397 19.316 41.0473 20.189 41.0473H22.2403C23.1132 41.0473 23.8208 40.3397 23.8208 39.4668V37.308C23.8208 36.4351 23.1132 35.7274 22.2403 35.7274Z" fill="#0061FF"/>
<path opacity="0.2" d="M7.29597 6.43815C7.29597 7.24747 6.63846 7.90498 5.82914 7.90498C5.01974 7.90498 4.3623 7.24747 4.3623 6.43815C4.3623 5.62875 5.01974 4.97132 5.82914 4.97132C6.63846 4.96871 7.29597 5.62614 7.29597 6.43815Z" fill="black"/>
<path d="M5.26815 5.0698C5.3991 5.1753 5.57976 5.24477 5.77851 5.2473C5.98177 5.25243 6.18495 5.18818 6.32949 5.0698C6.46503 4.95924 6.55077 4.80751 6.55077 4.63775C6.55077 4.55288 6.55077 4.47053 6.55077 4.38566C6.55077 3.39291 6.55077 2.40262 6.55077 1.40987C6.55077 1.38925 6.55077 1.36609 6.55077 1.34554C6.55077 1.17579 6.46503 1.02406 6.32949 0.91342C6.18495 0.795115 5.98177 0.730867 5.77851 0.736004C5.57976 0.741141 5.3991 0.807997 5.26815 0.91342C5.13262 1.02406 5.04688 1.17579 5.04688 1.34554C5.04688 1.3687 5.04688 1.38925 5.04688 1.40987C5.04688 2.40262 5.04688 3.39291 5.04688 4.38566C5.04688 4.47053 5.04688 4.55288 5.04688 4.63775C5.04688 4.80751 5.13262 4.95924 5.26815 5.0698Z" fill="#0061FF"/>
<path opacity="0.2" d="M12.7286 6.43815C12.7286 7.24747 12.0711 7.90498 11.2618 7.90498C10.4524 7.90498 9.79492 7.24747 9.79492 6.43815C9.79492 5.62875 10.4524 4.97132 11.2618 4.97132C12.0738 4.96871 12.7286 5.62614 12.7286 6.43815Z" fill="black"/>
<path d="M10.5318 5.0698C10.6629 5.1753 10.8435 5.24477 11.0422 5.2473C11.2454 5.25243 11.4487 5.18818 11.5932 5.0698C11.7287 4.95924 11.8145 4.80751 11.8145 4.63775C11.8145 4.55288 11.8145 4.47053 11.8145 4.38566C11.8145 3.39291 11.8145 2.40262 11.8145 1.40987C11.8145 1.38925 11.8145 1.36609 11.8145 1.34554C11.8145 1.17579 11.7287 1.02406 11.5932 0.91342C11.4487 0.795115 11.2454 0.730867 11.0422 0.736004C10.8435 0.741141 10.6629 0.807997 10.5318 0.91342C10.3964 1.02406 10.3105 1.17579 10.3105 1.34554C10.3105 1.3687 10.3105 1.38925 10.3105 1.40987C10.3105 2.40262 10.3105 3.39291 10.3105 4.38566C10.3105 4.47053 10.3105 4.55288 10.3105 4.63775C10.3105 4.80751 10.3964 4.95924 10.5318 5.0698Z" fill="#0061FF"/>
<path opacity="0.2" d="M33.0361 6.43815C33.0361 7.24747 32.3787 7.90498 31.5694 7.90498C30.76 7.90498 30.1025 7.24747 30.1025 6.43815C30.1025 5.62875 30.76 4.97132 31.5694 4.97132C32.3787 4.96871 33.0361 5.62614 33.0361 6.43815Z" fill="black"/>
<path d="M30.8355 5.0698C30.9665 5.1753 31.1471 5.24477 31.3459 5.2473C31.5492 5.25243 31.7523 5.18818 31.8969 5.0698C32.0324 4.95924 32.1182 4.80751 32.1182 4.63775C32.1182 4.55288 32.1182 4.47053 32.1182 4.38566C32.1182 3.39291 32.1182 2.40262 32.1182 1.40987C32.1182 1.38925 32.1182 1.36609 32.1182 1.34554C32.1182 1.17579 32.0324 1.02406 31.8969 0.91342C31.7523 0.795115 31.5492 0.730867 31.3459 0.736004C31.1471 0.741141 30.9665 0.807997 30.8355 0.91342C30.7001 1.02406 30.6143 1.17579 30.6143 1.34554C30.6143 1.3687 30.6143 1.38925 30.6143 1.40987C30.6143 2.40262 30.6143 3.39291 30.6143 4.38566C30.6143 4.47053 30.6143 4.55288 30.6143 4.63775C30.6143 4.80751 30.7001 4.95924 30.8355 5.0698Z" fill="#0061FF"/>
<path opacity="0.2" d="M38.4678 6.43815C38.4678 7.24747 37.8103 7.90498 37.001 7.90498C36.1916 7.90498 35.5342 7.24747 35.5342 6.43815C35.5342 5.62875 36.1916 4.97132 37.001 4.97132C37.8129 4.96871 38.4678 5.62614 38.4678 6.43815Z" fill="black"/>
<path d="M36.1003 5.0698C36.2312 5.1753 36.4119 5.24477 36.6106 5.2473C36.8138 5.25243 37.0171 5.18818 37.1616 5.0698C37.2971 4.95924 37.3829 4.80751 37.3829 4.63775C37.3829 4.55288 37.3829 4.47053 37.3829 4.38566C37.3829 3.39291 37.3829 2.40262 37.3829 1.40987C37.3829 1.38925 37.3829 1.36609 37.3829 1.34554C37.3829 1.17579 37.2971 1.02406 37.1616 0.91342C37.0171 0.795115 36.8138 0.730867 36.6106 0.736004C36.4119 0.741141 36.2312 0.807997 36.1003 0.91342C35.9647 1.02406 35.8789 1.17579 35.8789 1.34554C35.8789 1.3687 35.8789 1.38925 35.8789 1.40987C35.8789 2.40262 35.8789 3.39291 35.8789 4.38566C35.8789 4.47053 35.8789 4.55288 35.8789 4.63775C35.8789 4.80751 35.9647 4.95924 36.1003 5.0698Z" fill="#0061FF"/>
<path d="M20.0411 38.0295C19.9417 37.8472 19.7133 37.78 19.531 37.8794C19.3487 37.9789 19.2815 38.2073 19.381 38.3896L20.0411 38.0295ZM20.463 39.4628L20.1622 39.6885C20.2276 39.7756 20.3277 39.8302 20.4363 39.8379C20.5451 39.8456 20.6518 39.8058 20.7289 39.7287L20.463 39.4628ZM22.9847 37.4728C23.1316 37.3259 23.1316 37.0879 22.9847 36.941C22.8379 36.7942 22.5999 36.7942 22.4531 36.941L22.9847 37.4728ZM19.711 38.2095C19.381 38.3896 19.381 38.3897 19.381 38.3897C19.381 38.3897 19.3811 38.3897 19.3811 38.3898C19.3811 38.39 19.3813 38.3902 19.3814 38.3904C19.3817 38.3909 19.3821 38.3916 19.3826 38.3925C19.3836 38.3944 19.3851 38.3971 19.387 38.4006C19.3909 38.4077 19.3965 38.4179 19.4037 38.4311C19.4181 38.4573 19.439 38.4951 19.4648 38.5414C19.5164 38.6339 19.5878 38.7609 19.6674 38.8987C19.8221 39.167 20.021 39.5002 20.1622 39.6885L20.7638 39.2372C20.6543 39.0913 20.4773 38.7978 20.3186 38.523C20.2416 38.3893 20.172 38.2657 20.1217 38.1753C20.0966 38.1303 20.0763 38.0936 20.0624 38.0683C20.0554 38.0557 20.05 38.0459 20.0465 38.0393C20.0447 38.036 20.0433 38.0335 20.0424 38.0318C20.042 38.031 20.0416 38.0304 20.0414 38.03C20.0413 38.0298 20.0412 38.0297 20.0412 38.0296L20.0411 38.0295C20.0411 38.0295 20.0411 38.0295 20.0411 38.0294C20.0411 38.0294 20.0411 38.0295 19.711 38.2095ZM20.7289 39.7287L22.9847 37.4728L22.4531 36.941L20.1972 39.197L20.7289 39.7287Z" fill="white"/>
<path d="M14.0245 38.0295C13.9251 37.8472 13.6967 37.78 13.5145 37.8794C13.3321 37.9789 13.2649 38.2073 13.3644 38.3896L14.0245 38.0295ZM14.4464 39.4628L14.1456 39.6885C14.2111 39.7756 14.311 39.8302 14.4197 39.8379C14.5285 39.8456 14.6352 39.8058 14.7123 39.7287L14.4464 39.4628ZM16.9682 37.4728C17.115 37.3259 17.115 37.0879 16.9682 36.941C16.8214 36.7942 16.5833 36.7942 16.4365 36.941L16.9682 37.4728ZM13.6945 38.2095C13.3644 38.3896 13.3644 38.3897 13.3644 38.3897C13.3644 38.3897 13.3644 38.3897 13.3645 38.3897C13.3645 38.3897 13.3645 38.3897 13.3645 38.3898C13.3645 38.39 13.3647 38.3902 13.3649 38.3904C13.3651 38.3909 13.3655 38.3916 13.366 38.3925C13.367 38.3944 13.3685 38.3971 13.3704 38.4006C13.3743 38.4077 13.3799 38.4179 13.3871 38.4311C13.4016 38.4573 13.4225 38.4951 13.4482 38.5414C13.4998 38.6339 13.5712 38.7609 13.6508 38.8987C13.8055 39.167 14.0044 39.5002 14.1456 39.6885L14.7472 39.2372C14.6378 39.0913 14.4606 38.7978 14.3021 38.523C14.225 38.3893 14.1554 38.2657 14.1051 38.1753C14.08 38.1303 14.0597 38.0936 14.0458 38.0683C14.0389 38.0557 14.0335 38.0459 14.0299 38.0393C14.0281 38.036 14.0267 38.0335 14.0258 38.0318C14.0254 38.031 14.025 38.0304 14.0248 38.03C14.0247 38.0298 14.0246 38.0297 14.0246 38.0296L14.0245 38.0295C14.0245 38.0295 14.0245 38.0295 14.0245 38.0294C14.0245 38.0294 14.0245 38.0295 13.6945 38.2095ZM14.7123 39.7287L16.9682 37.4728L16.4365 36.941L14.1806 39.197L14.7123 39.7287Z" fill="white"/>
<defs>
<linearGradient id="paint0_linear_1228_53038" x1="21.2147" y1="10.4328" x2="21.2147" y2="44.201" gradientUnits="userSpaceOnUse">
<stop stop-color="#0041AC"/>
<stop offset="1" stop-color="#004DCA"/>
</linearGradient>
</defs>
</svg>
