<svg width="73" height="50" viewBox="0 0 73 50" fill="none" xmlns="http://www.w3.org/2000/svg">
<g clip-path="url(#clip0_1228_16261)">
<path d="M8.22188 5.25457C8.43422 5.25457 8.60636 5.08475 8.60636 4.87527C8.60636 4.66579 8.43422 4.49597 8.22188 4.49597C8.00954 4.49597 7.8374 4.66579 7.8374 4.87527C7.8374 5.08475 8.00954 5.25457 8.22188 5.25457Z" fill="white"/>
<path d="M9.68135 5.25457C9.8937 5.25457 10.0658 5.08475 10.0658 4.87527C10.0658 4.66579 9.8937 4.49597 9.68135 4.49597C9.46901 4.49597 9.29688 4.66579 9.29688 4.87527C9.29688 5.08475 9.46901 5.25457 9.68135 5.25457Z" fill="white"/>
<path d="M11.1403 5.25457C11.3527 5.25457 11.5248 5.08475 11.5248 4.87527C11.5248 4.66579 11.3527 4.49597 11.1403 4.49597C10.928 4.49597 10.7559 4.66579 10.7559 4.87527C10.7559 5.08475 10.928 5.25457 11.1403 5.25457Z" fill="white"/>
<path d="M56.1113 5.76648H7.2876V6.03419H56.1113V5.76648Z" fill="white"/>
<path d="M56.1533 0.0313721H0.0239258V35.4948H56.1533V0.0313721Z" fill="#E6E6E6"/>
<path d="M56.1293 0H0V2.35246H56.1293V0Z" fill="#0061FF"/>
<path d="M54.5947 4.24988H1.67529V17.7689H54.5947V4.24988Z" fill="white"/>
<path d="M54.6284 19.9905H1.70898V33.5095H54.6284V19.9905Z" fill="white"/>
<path d="M48.1854 7.2406H19.5454V8.49985H48.1854V7.2406Z" fill="#E6E6E6"/>
<path d="M29.7569 10.3887H19.5454V11.6479H29.7569V10.3887Z" fill="#E6E6E6"/>
<path d="M39.8887 13.5367H19.5454V14.796H39.8887V13.5367Z" fill="#E6E6E6"/>
<path d="M17.3916 26.6807C17.3931 27.5975 17.1226 28.4947 16.6134 29.2617C16.5067 29.4234 16.3897 29.5783 16.2632 29.7256C15.9666 30.0722 15.6212 30.375 15.2374 30.6248C15.133 30.693 15.0257 30.7569 14.9155 30.8164C14.3419 31.1294 13.7088 31.3218 13.0561 31.3814C12.9077 31.3957 12.7569 31.4024 12.6048 31.4024C12.1877 31.4029 11.7724 31.3493 11.3695 31.2431C11.1412 31.1839 10.9178 31.1074 10.7013 31.0143C10.5907 30.9671 10.4826 30.9158 10.377 30.8605C10.123 30.7289 9.88162 30.5747 9.65599 30.3997C9.55103 30.3191 9.44983 30.2342 9.3524 30.1448C8.76944 29.6119 8.33018 28.9442 8.07426 28.2019C7.81834 27.4596 7.75382 26.6661 7.88653 25.8931C8.01924 25.12 8.345 24.3918 8.83439 23.774C9.32379 23.1562 9.96143 22.6684 10.6897 22.3546C11.4181 22.0407 12.2141 21.9108 13.0061 21.9764C13.7981 22.042 14.561 22.3012 15.2261 22.7305C15.8911 23.1598 16.4373 23.7457 16.8154 24.4354C17.1934 25.125 17.3915 25.8967 17.3916 26.6808V26.6807Z" fill="#0061FF"/>
<path d="M12.8983 24.4764H12.3115V28.8838H12.8983V24.4764Z" fill="white"/>
<path d="M14.8386 26.3907H10.3711V26.9696H14.8386V26.3907Z" fill="white"/>
<path d="M47.4677 22.9811H18.8276V24.2403H47.4677V22.9811Z" fill="#E6E6E6"/>
<path d="M29.0391 26.1292H18.8276V27.3884H29.0391V26.1292Z" fill="#E6E6E6"/>
<path d="M39.1709 29.2772H18.8276V30.5365H39.1709V29.2772Z" fill="#E6E6E6"/>
<path d="M3.71233 1.55942C3.93018 1.55942 4.10679 1.38519 4.10679 1.17027C4.10679 0.955354 3.93018 0.781128 3.71233 0.781128C3.49448 0.781128 3.31787 0.955354 3.31787 1.17027C3.31787 1.38519 3.49448 1.55942 3.71233 1.55942Z" fill="white"/>
<path d="M5.2094 1.55942C5.42725 1.55942 5.60386 1.38519 5.60386 1.17027C5.60386 0.955354 5.42725 0.781128 5.2094 0.781128C4.99155 0.781128 4.81494 0.955354 4.81494 1.17027C4.81494 1.38519 4.99155 1.55942 5.2094 1.55942Z" fill="white"/>
<path d="M2.21086 1.55942C2.42872 1.55942 2.60532 1.38519 2.60532 1.17027C2.60532 0.955354 2.42872 0.781128 2.21086 0.781128C1.99301 0.781128 1.81641 0.955354 1.81641 1.17027C1.81641 1.38519 1.99301 1.55942 2.21086 1.55942Z" fill="white"/>
<path d="M15.4744 14.8071C15.0561 14.5896 14.6194 14.4083 14.1692 14.2652L14.1119 13.6389L11.7842 13.3915L11.4883 14.1921L10.653 14.5013C10.6231 14.5125 10.5946 14.5271 10.5682 14.5449H10.5673C10.5207 14.576 10.481 14.6161 10.4506 14.6628C10.4202 14.7096 10.3998 14.7619 10.3907 14.8167C10.3818 14.8711 10.3839 14.9268 10.3969 14.9805L10.441 15.1591C10.5046 15.1965 10.57 15.2322 10.6353 15.2662L10.6768 15.2871C10.7722 15.3359 10.8693 15.3821 10.9691 15.4248C10.9894 15.4335 11.0115 15.4422 11.0318 15.4509C11.0336 15.4518 11.0344 15.4518 11.0362 15.4526C11.083 15.4718 11.1298 15.4901 11.1775 15.5075C11.3341 15.5665 11.4939 15.6171 11.6561 15.6591C12.07 15.7679 12.4966 15.823 12.925 15.8229C13.0813 15.8229 13.2359 15.8159 13.3886 15.8011C13.7377 15.7693 14.0823 15.7007 14.4165 15.5964C14.4174 15.5964 14.4183 15.5955 14.4192 15.5955C14.6303 15.5291 14.8365 15.4485 15.0364 15.3542C15.0373 15.3533 15.0391 15.3533 15.04 15.3524C15.085 15.3315 15.1283 15.3089 15.1724 15.2871L15.1936 15.2767C15.2289 15.2584 15.2643 15.2401 15.2996 15.2209C15.3879 15.173 15.4744 15.1225 15.56 15.0685C15.5839 15.0545 15.6069 15.0397 15.6307 15.024C15.6643 15.0022 15.6978 14.9796 15.7305 14.9561C15.6484 14.9038 15.5627 14.8541 15.4744 14.8071Z" fill="#3F3D56"/>
<path d="M11.1057 15.1931L10.9601 14.5441H10.5795C10.5756 14.5441 10.5718 14.5444 10.568 14.5449H10.5671C10.4303 14.5564 10.2986 14.6013 10.1839 14.6756C10.106 14.7246 10.0368 14.7858 9.979 14.8568C10.092 14.9413 10.2095 15.0197 10.3305 15.0946L10.3358 15.0973C10.3702 15.1182 10.4055 15.1391 10.4408 15.1591C10.5044 15.1966 10.5698 15.2323 10.6351 15.2663L10.6766 15.2872C10.772 15.3359 10.8691 15.3821 10.9689 15.4248C10.9892 15.4335 11.0113 15.4422 11.0316 15.4509C11.0334 15.4518 11.0342 15.4518 11.036 15.4527C11.0828 15.4718 11.1296 15.4901 11.1773 15.5076L11.1057 15.1931Z" fill="#3F3D56"/>
<path d="M12.8566 12.9954C13.7825 12.9954 14.533 12.255 14.533 11.3416C14.533 10.4282 13.7825 9.68774 12.8566 9.68774C11.9307 9.68774 11.1802 10.4282 11.1802 11.3416C11.1802 12.255 11.9307 12.9954 12.8566 12.9954Z" fill="#FFB8B8"/>
<path d="M11.7312 10.536C11.9047 10.7386 12.1984 10.7958 12.4693 10.8193C13.1027 10.8538 13.7379 10.8026 14.3573 10.6672C14.3957 11.0341 14.291 11.4298 14.5101 11.7316C14.6128 11.3662 14.6725 10.9903 14.6881 10.6114C14.7044 10.4488 14.6829 10.2847 14.6252 10.1316C14.5943 10.0549 14.5422 9.98823 14.4749 9.93924C14.4075 9.89025 14.3276 9.86088 14.2441 9.85448C14.369 9.761 14.5153 9.6993 14.6701 9.67481L14.1378 9.41091L14.2745 9.27246L13.3108 9.21428L13.5899 9.03935C13.1698 8.9824 12.7448 8.96916 12.3219 8.99986C12.1255 9.01413 11.9202 9.0414 11.7611 9.15365C11.602 9.2659 11.51 9.48901 11.6088 9.65382C11.4851 9.67385 11.3687 9.7247 11.2705 9.80155C11.1723 9.87839 11.0957 9.9787 11.0478 10.093C10.9872 10.2746 10.9726 10.468 11.0052 10.6565C11.0415 10.9589 11.1127 11.2561 11.2175 11.5425L11.7312 10.536Z" fill="#2F2E41"/>
<path d="M17.5707 9.54884C17.3355 8.88222 16.9558 8.27424 16.4579 7.76729C15.96 7.26035 15.3561 6.86664 14.6881 6.61363C14.0202 6.36062 13.3043 6.25439 12.5905 6.30236C11.8766 6.35032 11.182 6.55132 10.555 6.89135C9.928 7.23137 9.38372 7.70223 8.96013 8.27109C8.53654 8.83995 8.24384 9.49312 8.10242 10.185C7.961 10.877 7.97428 11.591 8.14133 12.2774C8.30838 12.9637 8.62518 13.6058 9.06963 14.159C9.11379 14.2139 9.1597 14.2688 9.20653 14.3219C9.21006 14.3254 9.2127 14.3289 9.21623 14.3323C9.33133 14.4632 9.45368 14.5877 9.58269 14.7052C9.61628 14.7357 9.65159 14.7671 9.6869 14.7967C9.75399 14.8559 9.82289 14.9125 9.89443 14.9665C9.92267 14.9883 9.95005 15.0101 9.9792 15.031C10.0922 15.1155 10.2097 15.1939 10.3307 15.2688L10.336 15.2715C10.3704 15.2924 10.4057 15.3133 10.441 15.3333C10.5046 15.3708 10.57 15.4065 10.6353 15.4405L10.6768 15.4614C10.7722 15.5101 10.8693 15.5563 10.9691 15.599C10.9894 15.6077 11.0115 15.6164 11.0318 15.6251C11.0336 15.626 11.0344 15.626 11.0362 15.6269C11.083 15.646 11.1298 15.6643 11.1775 15.6818C11.3341 15.7408 11.4939 15.7914 11.6561 15.8333C12.0701 15.9422 12.4966 15.9972 12.925 15.9971C13.0813 15.9971 13.2359 15.9902 13.3886 15.9753C13.7377 15.9436 14.0823 15.8749 14.4165 15.7706C14.4174 15.7706 14.4183 15.7698 14.4192 15.7698C14.6303 15.7034 14.8365 15.6228 15.0364 15.5284C15.0373 15.5276 15.0391 15.5276 15.04 15.5267C15.085 15.5058 15.1283 15.4831 15.1724 15.4614L15.1936 15.4509C15.2289 15.4326 15.2643 15.4143 15.2996 15.3952C15.3879 15.3472 15.4744 15.2967 15.56 15.2427C15.5839 15.2288 15.6069 15.214 15.6307 15.1983C15.6643 15.1765 15.6978 15.1538 15.7305 15.1303C15.7737 15.1007 15.817 15.0702 15.8594 15.0389C15.8727 15.0293 15.8868 15.0197 15.9 15.0092C16.7273 14.3897 17.3346 13.5278 17.6347 12.5468C17.9348 11.5659 17.9124 10.5164 17.5707 9.54884ZM15.7376 14.7975C15.7084 14.8202 15.6784 14.842 15.6483 14.862C15.6192 14.8838 15.5901 14.9047 15.56 14.9239C15.5344 14.9422 15.5088 14.9596 15.4823 14.9761L15.4744 14.9814C15.455 14.9944 15.4356 15.0066 15.4161 15.0188C15.3428 15.0641 15.2686 15.1077 15.1936 15.1495C15.1857 15.1538 15.1777 15.1582 15.1697 15.1626C15.1362 15.1809 15.1027 15.1983 15.0691 15.2157C15.0647 15.2183 15.0594 15.2201 15.055 15.2227L15.0497 15.2253C15.0073 15.2471 14.964 15.268 14.9207 15.288C14.7538 15.3673 14.5818 15.436 14.4059 15.4936C14.3829 15.5014 14.36 15.5093 14.3371 15.5162C14.0207 15.6155 13.6945 15.6809 13.3639 15.7114C13.2191 15.7245 13.0725 15.7314 12.925 15.7314C12.5198 15.7322 12.1163 15.6801 11.725 15.5764C11.5242 15.5246 11.3273 15.4589 11.136 15.3795C11.1263 15.3751 11.1157 15.3716 11.1059 15.3673C11.0954 15.3629 11.0856 15.3594 11.0759 15.3551C11.0653 15.3507 11.0556 15.3464 11.045 15.3411C10.962 15.3054 10.8799 15.2662 10.7996 15.2253L10.7607 15.2052C10.6627 15.1547 10.5664 15.1007 10.4728 15.0432C10.4454 15.0267 10.4172 15.0092 10.3907 14.9909C10.3836 14.9866 10.3774 14.9822 10.3704 14.9779C10.3077 14.9369 10.245 14.8942 10.184 14.8498C10.1426 14.8193 10.101 14.7888 10.0604 14.7575C9.99244 14.7069 9.92707 14.6529 9.86351 14.5972C9.82996 14.5693 9.79728 14.5388 9.7655 14.5101C9.64029 14.396 9.52177 14.275 9.41052 14.1477C9.37344 14.1058 9.33722 14.064 9.30277 14.0205C9.29494 14.0119 9.28757 14.0028 9.28069 13.9935C8.70695 13.2792 8.36185 12.4126 8.2894 11.5041C8.21695 10.5955 8.42044 9.68631 8.87392 8.89234C9.32739 8.09837 10.0103 7.45564 10.8356 7.04612C11.6608 6.6366 12.591 6.47885 13.5075 6.59298C14.424 6.70711 15.2853 7.08796 15.9815 7.68694C16.6777 8.28593 17.1773 9.07592 17.4165 9.95615C17.6558 10.8364 17.6239 11.767 17.3248 12.6292C17.0258 13.4915 16.4732 14.2464 15.7376 14.7975Z" fill="#3F3D56"/>
<path d="M59.435 32.84C59.1998 32.1734 58.82 31.5654 58.3221 31.0584C57.8243 30.5515 57.2203 30.1578 56.5524 29.9048C55.8844 29.6518 55.1686 29.5455 54.4547 29.5935C53.7409 29.6415 53.0463 29.8425 52.4193 30.1825C51.7923 30.5225 51.248 30.9934 50.8244 31.5622C50.4008 32.1311 50.1081 32.7843 49.9667 33.4762C49.8253 34.1681 49.8385 34.8821 50.0056 35.5685C50.1726 36.2548 50.4894 36.897 50.9339 37.4501C50.978 37.505 51.024 37.5599 51.0707 37.613C51.0743 37.6165 51.0769 37.62 51.0804 37.6235C51.1956 37.7543 51.3179 37.8788 51.4469 37.9963C51.4805 38.0268 51.5158 38.0582 51.5511 38.0878C51.6182 38.147 51.6871 38.2037 51.7586 38.2577C51.8983 38.3663 52.0439 38.4672 52.1949 38.56L52.2002 38.5626C52.2982 38.6227 52.3979 38.6784 52.4995 38.7316L52.541 38.7525C52.6364 38.8013 52.7335 38.8475 52.8333 38.8901C52.8536 38.8988 52.8757 38.9076 52.896 38.9163C52.8978 38.9171 52.8987 38.9171 52.9004 38.918C53.1021 39.0007 53.3092 39.0697 53.5203 39.1245C53.9343 39.2333 54.3609 39.2884 54.7893 39.2883C54.9456 39.2883 55.1001 39.2813 55.2529 39.2665C55.6019 39.2347 55.9465 39.1661 56.2807 39.0618C56.2816 39.0618 56.2825 39.0609 56.2834 39.0609C56.4945 38.9945 56.7007 38.9139 56.9006 38.8196C56.9015 38.8187 56.9033 38.8187 56.9042 38.8178C56.9492 38.7969 56.9925 38.7743 57.0366 38.7525L57.0578 38.742C57.0932 38.7237 57.1285 38.7055 57.1638 38.6863C57.2521 38.6384 57.3386 38.5878 57.4243 38.5338C57.4481 38.5199 57.4711 38.5051 57.4949 38.4894C57.5726 38.4389 57.6495 38.3849 57.7236 38.33C57.7369 38.3204 57.751 38.3108 57.7643 38.3004C58.5916 37.6809 59.1988 36.8189 59.4989 35.838C59.799 34.857 59.7767 33.8076 59.435 32.84Z" fill="white"/>
<path d="M56.413 36.4356C56.8202 36.4356 57.1503 36.11 57.1503 35.7083C57.1503 35.3066 56.8202 34.981 56.413 34.981C56.0059 34.981 55.6758 35.3066 55.6758 35.7083C55.6758 36.11 56.0059 36.4356 56.413 36.4356Z" fill="#2F2E41"/>
<path d="M56.6181 35.0011C56.7457 35.0011 56.8711 35.0338 56.982 35.0959C57.093 35.158 57.1857 35.2475 57.2511 35.3556C57.3166 35.4637 57.3524 35.5867 57.3552 35.7126C57.358 35.8384 57.3276 35.9628 57.2671 36.0736C57.331 35.9948 57.3775 35.9036 57.4038 35.806C57.43 35.7083 57.4353 35.6064 57.4194 35.5066C57.4035 35.4069 57.3666 35.3115 57.3113 35.2265C57.2559 35.1416 57.1833 35.0689 57.0979 35.0132C57.0125 34.9575 56.9163 34.92 56.8154 34.903C56.7145 34.886 56.6111 34.8899 56.5118 34.9145C56.4125 34.9391 56.3195 34.9838 56.2387 35.0458C56.1579 35.1078 56.0911 35.1857 56.0425 35.2746C56.1114 35.1893 56.199 35.1203 56.2986 35.073C56.3983 35.0256 56.5075 35.001 56.6181 35.0011H56.6181Z" fill="#2F2E41"/>
<path d="M55.0349 35.7068C56.231 35.7068 57.2007 34.7502 57.2007 33.5702C57.2007 32.3902 56.231 31.4336 55.0349 31.4336C53.8388 31.4336 52.8691 32.3902 52.8691 33.5702C52.8691 34.7502 53.8388 35.7068 55.0349 35.7068Z" fill="#2F2E41"/>
<path d="M53.3354 32.2445C53.7085 31.8305 54.2302 31.5757 54.7902 31.5339C55.3502 31.4921 55.9048 31.6665 56.3369 32.0205C56.3192 32.0038 56.3015 31.9871 56.2832 31.971C55.8554 31.5929 55.2929 31.3979 54.7193 31.429C54.1458 31.4601 53.6083 31.7147 53.225 32.1367C52.8417 32.5588 52.6441 33.1138 52.6756 33.6796C52.7071 34.2454 52.9652 34.7757 53.393 35.1538C53.3971 35.1574 53.4013 35.161 53.4054 35.1646C53.4238 35.1807 53.4427 35.196 53.4615 35.2114C53.0546 34.8295 52.814 34.3066 52.7905 33.7531C52.767 33.1995 52.9623 32.6586 53.3354 32.2445Z" fill="#2F2E41"/>
<path d="M55.0169 35.6887C55.7873 35.6887 56.4118 35.0726 56.4118 34.3126C56.4118 33.5526 55.7873 32.9365 55.0169 32.9365C54.2466 32.9365 53.6221 33.5526 53.6221 34.3126C53.6221 35.0726 54.2466 35.6887 55.0169 35.6887Z" fill="#A0616A"/>
<path d="M57.5128 37.898V38.3597C57.4271 38.4137 57.3406 38.4642 57.2523 38.5121C57.217 38.5313 57.1817 38.5496 57.1463 38.5679L57.1251 38.5783C57.081 38.6001 57.0377 38.6228 56.9927 38.6437C56.9918 38.6445 56.99 38.6445 56.9891 38.6454C56.7892 38.7397 56.583 38.8204 56.3719 38.8867C56.371 38.8867 56.3701 38.8876 56.3692 38.8876C56.035 38.9919 55.6904 39.0605 55.3414 39.0923C55.1886 39.1071 55.0341 39.1141 54.8778 39.1141C54.4494 39.1142 54.0228 39.0592 53.6088 38.9503C53.3977 38.8955 53.1906 38.8266 52.9889 38.7438C52.9872 38.743 52.9863 38.743 52.9845 38.7421C52.9642 38.7334 52.9421 38.7247 52.9218 38.716C52.822 38.6733 52.7249 38.6271 52.6295 38.5783L52.588 38.5574C52.4864 38.5043 52.3867 38.4485 52.2887 38.3884L52.2834 38.3858C52.1324 38.293 51.9868 38.1921 51.8471 38.0835C51.7756 38.0295 51.7068 37.9729 51.6396 37.9136C51.6043 37.884 51.569 37.8527 51.5354 37.8222C51.4064 37.7046 51.2841 37.5801 51.1689 37.4493C51.1842 37.3586 51.2067 37.2692 51.2361 37.1819L51.2369 37.181C51.2422 37.1661 51.2484 37.1516 51.2555 37.1374C51.2604 37.1249 51.266 37.1127 51.2723 37.1009C51.4303 36.809 51.7165 36.7367 52.0714 36.721C52.2719 36.7123 52.4935 36.7219 52.7276 36.7193C52.8512 36.7184 52.9792 36.7141 53.1073 36.7027C53.9152 36.6304 53.7687 36.16 53.8049 35.9065C53.8411 35.6608 54.0654 35.8734 54.0804 35.8873L54.0812 35.8882C54.5385 36.0993 55.0444 36.1868 55.5471 36.1417C55.6337 36.1313 55.7202 36.1252 55.8067 36.1226C56.0346 36.1199 55.9851 36.1844 55.9065 36.2375C55.8684 36.2623 55.8286 36.2844 55.7873 36.3038C55.7873 36.3038 55.7511 36.5215 55.714 36.8474C55.6787 37.1592 56.2845 37.3056 56.3348 37.3169C56.3358 37.3176 56.3371 37.3179 56.3383 37.3178C56.5595 37.2612 56.7924 37.2672 57.0103 37.3352H57.0112C57.1357 37.3804 57.2468 37.4555 57.3344 37.5538C57.422 37.6521 57.4833 37.7704 57.5128 37.898Z" fill="#0061FF"/>
<path d="M52.998 38.4581C52.998 38.5225 52.9963 38.5844 52.9936 38.6428C52.9927 38.6776 52.991 38.7116 52.9892 38.7438C52.9874 38.7429 52.9865 38.7429 52.9848 38.7421C52.9645 38.7334 52.9424 38.7246 52.9221 38.7159C52.8223 38.6732 52.7251 38.6271 52.6298 38.5783L52.5883 38.5574C52.4867 38.5042 52.3869 38.4485 52.2889 38.3884C52.2916 38.3579 52.296 38.3274 52.3004 38.2969C52.3101 38.2298 52.3181 38.1619 52.3234 38.0948C52.3581 37.6235 52.2715 37.1513 52.0717 36.7219V36.721C52.054 36.6862 52.0435 36.667 52.0435 36.667C52.0435 36.667 52.3004 36.4492 52.6669 36.667C52.6903 36.6806 52.7109 36.6983 52.7278 36.7193C52.9486 36.9762 53.0086 37.8404 52.998 38.4581Z" fill="#2F2E41"/>
<path d="M57.0076 38.3396C57.004 38.4372 56.9987 38.5391 56.9926 38.6428V38.6436C56.9917 38.6445 56.9899 38.6445 56.989 38.6454C56.7891 38.7397 56.5829 38.8203 56.3718 38.8867C56.3709 38.8867 56.37 38.8876 56.3691 38.8876L56.3594 38.6428L56.3585 38.6105L56.3117 37.4188C56.3105 37.3918 56.3148 37.3649 56.3244 37.3396C56.334 37.3143 56.3487 37.2912 56.3676 37.2716C56.3865 37.2521 56.4092 37.2365 56.4343 37.2259C56.4595 37.2153 56.4866 37.2097 56.514 37.2097H56.9616C56.9837 37.2097 56.9996 37.2541 57.0102 37.3343V37.3352C57.0319 37.6697 57.0311 38.0052 57.0076 38.3396Z" fill="#2F2E41"/>
<path d="M53.8237 32.5924V33.9688H54.1468L54.5578 33.5343L54.5028 33.9688H55.9307L55.8424 33.5343L56.019 33.9688H56.2466V32.5924H53.8237Z" fill="#2F2E41"/>
<path d="M53.6038 34.222C53.6646 34.222 53.7139 34.1329 53.7139 34.0229C53.7139 33.9129 53.6646 33.8237 53.6038 33.8237C53.543 33.8237 53.4937 33.9129 53.4937 34.0229C53.4937 34.1329 53.543 34.222 53.6038 34.222Z" fill="#A0616A"/>
<path d="M56.4299 34.222C56.4908 34.222 56.5401 34.1329 56.5401 34.0229C56.5401 33.9129 56.4908 33.8237 56.4299 33.8237C56.3691 33.8237 56.3198 33.9129 56.3198 34.0229C56.3198 34.1329 56.3691 34.222 56.4299 34.222Z" fill="#A0616A"/>
<path d="M57.8123 38.1557C57.7381 38.2106 57.6613 38.2646 57.5836 38.3152C57.5597 38.3308 57.5368 38.3457 57.5129 38.3596C57.4273 38.4136 57.3407 38.4641 57.2524 38.512C57.2171 38.5312 57.1818 38.5495 57.1465 38.5678V37.6078C57.1465 37.6078 57.2877 37.7193 57.5129 37.9049C57.5412 37.9284 57.5703 37.9528 57.6012 37.9789C57.6666 38.0329 57.7372 38.0922 57.8123 38.1557Z" fill="#0061FF"/>
<path d="M59.435 32.84C59.1998 32.1734 58.82 31.5654 58.3221 31.0584C57.8243 30.5515 57.2203 30.1578 56.5524 29.9048C55.8844 29.6518 55.1686 29.5455 54.4547 29.5935C53.7409 29.6415 53.0463 29.8425 52.4193 30.1825C51.7923 30.5225 51.248 30.9934 50.8244 31.5622C50.4008 32.1311 50.1081 32.7843 49.9667 33.4762C49.8253 34.1681 49.8385 34.8821 50.0056 35.5685C50.1726 36.2548 50.4894 36.897 50.9339 37.4501C50.978 37.505 51.024 37.5599 51.0707 37.613C51.0743 37.6165 51.0769 37.62 51.0804 37.6235C51.1956 37.7543 51.3179 37.8788 51.4469 37.9963C51.4805 38.0268 51.5158 38.0582 51.5511 38.0878C51.6182 38.147 51.6871 38.2037 51.7586 38.2577C51.8983 38.3663 52.0439 38.4672 52.1949 38.56L52.2002 38.5626C52.2982 38.6227 52.3979 38.6784 52.4995 38.7316L52.541 38.7525C52.6364 38.8013 52.7335 38.8475 52.8333 38.8901C52.8536 38.8988 52.8757 38.9076 52.896 38.9163C52.8978 38.9171 52.8987 38.9171 52.9004 38.918C53.1021 39.0007 53.3092 39.0697 53.5203 39.1245C53.9343 39.2333 54.3609 39.2884 54.7893 39.2883C54.9456 39.2883 55.1001 39.2813 55.2529 39.2665C55.6019 39.2347 55.9465 39.1661 56.2807 39.0618C56.2816 39.0618 56.2825 39.0609 56.2834 39.0609C56.4945 38.9945 56.7007 38.9139 56.9006 38.8196C56.9015 38.8187 56.9033 38.8187 56.9042 38.8178C56.9492 38.7969 56.9925 38.7743 57.0366 38.7525L57.0578 38.742C57.0932 38.7237 57.1285 38.7055 57.1638 38.6863C57.2521 38.6384 57.3386 38.5878 57.4243 38.5338C57.4481 38.5199 57.4711 38.5051 57.4949 38.4894C57.5726 38.4389 57.6495 38.3849 57.7236 38.33C57.7369 38.3204 57.751 38.3108 57.7643 38.3004C58.5916 37.6809 59.1988 36.8189 59.4989 35.838C59.799 34.857 59.7767 33.8076 59.435 32.84ZM57.6018 38.0887C57.5726 38.1113 57.5426 38.1331 57.5126 38.1531C57.4835 38.1749 57.4543 38.1958 57.4243 38.215C57.3987 38.2333 57.3731 38.2507 57.3466 38.2673C57.3245 38.2821 57.3024 38.296 57.2803 38.3099C57.2071 38.3552 57.1329 38.3988 57.0578 38.4406C57.0499 38.445 57.0419 38.4493 57.034 38.4537C57.0004 38.472 56.9669 38.4894 56.9333 38.5068C56.9289 38.5094 56.9236 38.5112 56.9192 38.5138L56.9139 38.5164C56.8715 38.5382 56.8282 38.5591 56.7849 38.5791C56.618 38.6585 56.446 38.7271 56.2701 38.7847C56.2472 38.7926 56.2242 38.8004 56.2013 38.8074C55.8849 38.9066 55.5587 38.9721 55.2281 39.0025C55.0833 39.0156 54.9367 39.0225 54.7892 39.0225C54.384 39.0234 53.9805 38.9712 53.5892 38.8675C53.3884 38.8158 53.1915 38.75 53.0002 38.6706C52.9799 38.6628 52.9596 38.6541 52.9401 38.6462C52.9296 38.6419 52.9198 38.6375 52.9092 38.6323C52.8262 38.5966 52.7441 38.5574 52.6638 38.5164L52.6249 38.4964C52.5269 38.4458 52.4306 38.3918 52.337 38.3343C52.3026 38.3134 52.2682 38.2917 52.2346 38.269C52.1286 38.2002 52.0253 38.1261 51.9246 38.0486C51.8566 37.9981 51.7913 37.9441 51.7277 37.8883C51.6942 37.8604 51.6615 37.8299 51.6297 37.8012C51.5045 37.6871 51.386 37.5661 51.2747 37.4388C51.2377 37.397 51.2014 37.3552 51.167 37.3116C51.1591 37.303 51.1518 37.294 51.1449 37.2846C50.5712 36.5703 50.2261 35.7037 50.1536 34.7952C50.0812 33.8867 50.2847 32.9774 50.7381 32.1835C51.1916 31.3895 51.8745 30.7468 52.6998 30.3373C53.525 29.9277 54.4552 29.77 55.3717 29.8841C56.2882 29.9982 57.1495 30.3791 57.8457 30.9781C58.5419 31.5771 59.0415 32.3671 59.2807 33.2473C59.52 34.1275 59.4881 35.0581 59.189 35.9204C58.89 36.7826 58.3374 37.5375 57.6018 38.0887Z" fill="#3F3D56"/>
<path d="M59.1581 32.4594C59.2801 32.4158 59.391 32.3462 59.4829 32.2557C59.5747 32.1653 59.6453 32.056 59.6898 31.9357C59.7342 31.8153 59.7513 31.6868 59.74 31.5593C59.7286 31.4317 59.6891 31.3081 59.6241 31.1973L61.6868 28.8414L60.0607 28.6326L58.3512 30.9018C58.1697 31.0218 58.0391 31.2034 57.9842 31.4121C57.9293 31.6208 57.9539 31.8422 58.0534 32.0342C58.1528 32.2262 58.3202 32.3755 58.5238 32.4539C58.7274 32.5322 58.9531 32.5342 59.1581 32.4594Z" fill="#FFB8B8"/>
<path d="M70.7847 32.9574C70.8703 32.8611 70.9334 32.7474 70.9697 32.6244C71.0059 32.5015 71.0144 32.3722 70.9945 32.2456C70.9746 32.119 70.9268 31.9983 70.8545 31.892C70.7822 31.7856 70.6872 31.6962 70.5761 31.63L71.2317 28.5848L69.7051 29.1754L69.3165 31.9765C69.2161 32.1681 69.1905 32.3893 69.2444 32.5982C69.2983 32.8072 69.428 32.9894 69.609 33.1103C69.79 33.2312 70.0096 33.2824 70.2263 33.2542C70.443 33.226 70.6416 33.1204 70.7847 32.9574Z" fill="#FFB8B8"/>
<path d="M63.3969 48.8274L62.3143 48.8273L61.7993 44.7078L63.3971 44.7079L63.3969 48.8274Z" fill="#FFB8B8"/>
<path d="M63.6729 49.8626L60.1821 49.8625V49.8189C60.1821 49.6429 60.2173 49.4686 60.2855 49.3059C60.3538 49.1433 60.4539 48.9956 60.5801 48.8711C60.7062 48.7466 60.856 48.6479 61.0209 48.5805C61.1857 48.5132 61.3624 48.4785 61.5408 48.4785L63.6729 48.4786L63.6729 49.8626Z" fill="#2F2E41"/>
<path d="M68.6953 48.8274L67.6127 48.8273L67.0977 44.7078L68.6954 44.7079L68.6953 48.8274Z" fill="#FFB8B8"/>
<path d="M68.9712 49.8626L65.4805 49.8625V49.8189C65.4805 49.6429 65.5156 49.4686 65.5839 49.3059C65.6522 49.1433 65.7523 48.9956 65.8784 48.8711C66.0046 48.7466 66.1544 48.6479 66.3192 48.5805C66.4841 48.5132 66.6607 48.4785 66.8392 48.4785L68.9713 48.4786L68.9712 49.8626Z" fill="#2F2E41"/>
<path d="M63.5097 46.6763L61.9771 46.6158C61.8726 46.6113 61.774 46.5665 61.7027 46.491C61.6314 46.4155 61.593 46.3153 61.5959 46.2121L62.0276 32.2406L62.0558 32.2306C64.7417 31.2721 66.9637 31.3445 68.8488 32.4519L68.8698 32.4643L69.1285 46.0719C69.1295 46.124 69.12 46.1758 69.1004 46.2242C69.0809 46.2726 69.0518 46.3167 69.0148 46.3539C68.9778 46.3911 68.9337 46.4206 68.885 46.4408C68.8363 46.4609 68.784 46.4713 68.7312 46.4713H67.4389C67.3469 46.4712 67.2577 46.4396 67.1866 46.3819C67.1156 46.3242 67.0669 46.244 67.049 46.1549L65.2886 37.3206C65.2825 37.2901 65.2656 37.2627 65.2409 37.2434C65.2162 37.2241 65.1853 37.2141 65.1538 37.2152C65.1223 37.2164 65.0922 37.2286 65.069 37.2497C65.0458 37.2707 65.0309 37.2993 65.0272 37.3302L63.92 46.3318C63.9078 46.4267 63.8611 46.514 63.7885 46.5775C63.7158 46.6409 63.6223 46.6761 63.5253 46.6765C63.5202 46.6765 63.5149 46.6764 63.5097 46.6763Z" fill="#2F2E41"/>
<path d="M65.0004 19.988C66.1982 19.988 67.1693 19.0301 67.1693 17.8484C67.1693 16.6667 66.1982 15.7087 65.0004 15.7087C63.8026 15.7087 62.8315 16.6667 62.8315 17.8484C62.8315 19.0301 63.8026 19.988 65.0004 19.988Z" fill="#FFB8B8"/>
<path d="M59.8911 30.7588C59.8158 30.7295 59.7514 30.6783 59.7065 30.6119L59.2874 29.9933C59.2422 29.9262 59.2189 29.847 59.2208 29.7665C59.2227 29.6859 59.2496 29.6079 59.2979 29.5429L60.9873 27.2807L62.0457 22.2707C62.1066 22.116 62.1978 21.9746 62.3141 21.8548C62.4304 21.7349 62.5695 21.6387 62.7235 21.5719C62.8774 21.5051 63.0432 21.4688 63.2114 21.4653C63.3795 21.4617 63.5468 21.4908 63.7035 21.551C63.8603 21.6112 64.0034 21.7013 64.1249 21.8162C64.2463 21.931 64.3436 22.0683 64.4112 22.2202C64.4788 22.3722 64.5154 22.5358 64.5189 22.7017C64.5224 22.8676 64.4927 23.0325 64.4315 23.1871L63.9313 26.3757C63.7796 27.3434 63.2767 28.2239 62.5163 28.8533L60.2923 30.6944C60.2495 30.7298 60.1997 30.7559 60.146 30.771C60.0923 30.7861 60.036 30.79 59.9808 30.7822C59.95 30.7779 59.9199 30.77 59.8911 30.7588Z" fill="#3F3D56"/>
<path d="M70.6922 30.9858C70.6161 31.0128 70.5335 31.0164 70.4553 30.9959L69.7264 30.8047C69.6475 30.7838 69.577 30.7395 69.5245 30.6778C69.472 30.6162 69.4399 30.54 69.4326 30.4598L69.1857 27.6605L66.6247 23.2099C66.5668 23.0541 66.5405 22.8885 66.5475 22.7227C66.5544 22.5569 66.5945 22.394 66.6653 22.2435C66.7361 22.0929 66.8362 21.9576 66.9601 21.8453C67.0839 21.733 67.229 21.6458 67.387 21.5888C67.545 21.5319 67.7128 21.5062 67.8809 21.5132C68.049 21.5203 68.214 21.56 68.3665 21.63C68.5191 21.7 68.6561 21.799 68.7698 21.9213C68.8835 22.0436 68.9717 22.1868 69.0293 22.3427L70.7893 25.0622C71.3236 25.8875 71.5359 26.8762 71.3866 27.8443L70.9503 30.676C70.9419 30.7304 70.9219 30.7825 70.8918 30.8288C70.8616 30.8752 70.8219 30.9147 70.7752 30.9449C70.7493 30.9617 70.7214 30.9755 70.6922 30.9858Z" fill="#3F3D56"/>
<path d="M62.6282 21.6481C63.0007 21.245 63.4602 20.9297 63.9728 20.7252C64.4854 20.5208 65.0379 20.4325 65.5897 20.4668C65.6259 20.469 65.6621 20.4715 65.698 20.4743C66.221 20.5151 66.7292 20.6656 67.1884 20.9157C67.6477 21.1657 68.0476 21.5097 68.3613 21.9245C68.6803 22.3451 68.9046 22.828 69.0191 23.341C69.1337 23.8539 69.136 24.3851 69.0258 24.899C68.6053 26.8629 68.7117 28.9011 69.3346 30.812L69.9164 32.5943C69.9351 32.6514 69.9402 32.712 69.9314 32.7714C69.9225 32.8308 69.9 32.8873 69.8655 32.9368C69.831 32.9862 69.7855 33.0271 69.7325 33.0565C69.6794 33.0858 69.6202 33.1027 69.5595 33.1059L66.5849 33.2637L65.8237 31.9665V33.304L62.2084 33.4958C62.2012 33.4962 62.1941 33.4964 62.187 33.4964C62.1321 33.4963 62.0778 33.4851 62.0276 33.4634C61.9773 33.4417 61.9322 33.4099 61.895 33.3701C61.8578 33.3304 61.8294 33.2834 61.8115 33.2322C61.7936 33.1811 61.7866 33.1268 61.791 33.0729L62.1996 28.074L61.6871 24.6789C61.6041 24.1364 61.6456 23.5825 61.8085 23.058C61.9714 22.5334 62.2515 22.0516 62.6282 21.6481Z" fill="#3F3D56"/>
<path d="M66.5079 19.8909C66.3071 20.0049 65.5134 20.0805 65.4568 19.8589L65.4556 19.854C65.4162 19.6916 65.4489 19.522 65.4602 19.3554C65.4715 19.1888 65.455 19.0058 65.34 18.8833C65.1256 18.655 64.7441 18.776 64.4341 18.7183C64.2525 18.6783 64.0919 18.5744 63.9824 18.426C63.8728 18.2777 63.8218 18.095 63.8389 17.9122C63.8433 17.8776 63.8503 17.8429 63.858 17.8083C63.8774 17.7205 63.8759 17.6295 63.8537 17.5423C63.8314 17.4552 63.7889 17.3744 63.7297 17.3062C63.6704 17.238 63.5959 17.1842 63.5121 17.1492C63.4282 17.1142 63.3373 17.0988 63.2464 17.1043C62.933 17.1219 62.5948 17.2156 62.3356 16.9866C62.1352 16.8096 62.0862 16.3487 62.1743 16.0979C62.3223 15.6765 63.2705 15.4558 63.6845 15.3345C64.1965 15.1885 64.7351 15.157 65.261 15.2421C65.7869 15.3273 66.287 15.5269 66.7249 15.8267C66.9864 16.0085 67.2306 16.237 67.342 16.5328C67.4535 16.8286 67.3997 17.2019 67.1484 17.3972C67.3432 17.6006 67.4804 17.851 67.5462 18.1233C67.612 18.3955 67.6041 18.6801 67.5233 18.9484C67.3992 19.343 66.8068 19.7213 66.5079 19.8909Z" fill="#2F2E41"/>
<path d="M72.9119 50H54.103C54.0795 50 54.0571 49.9909 54.0405 49.9745C54.024 49.9582 54.0146 49.936 54.0146 49.9129C54.0146 49.8898 54.024 49.8677 54.0405 49.8513C54.0571 49.835 54.0795 49.8258 54.103 49.8258H72.9119C72.9353 49.8258 72.9578 49.835 72.9743 49.8513C72.9909 49.8677 73.0002 49.8898 73.0002 49.9129C73.0002 49.936 72.9909 49.9582 72.9743 49.9745C72.9578 49.9909 72.9353 50 72.9119 50Z" fill="#CCCCCC"/>
</g>
<defs>
<clipPath id="clip0_1228_16261">
<rect width="73" height="50" fill="white"/>
</clipPath>
</defs>
</svg>
