<svg width="90" height="90" viewBox="0 0 90 90" fill="none" xmlns="http://www.w3.org/2000/svg">
<g clip-path="url(#clip0_1_6)">
<path d="M73.1256 90H16.8744C7.55542 90 0 82.4467 0 73.125V16.8748C0 7.55529 7.55542 0 16.8744 0H73.1256C82.4468 0 90 7.55529 90 16.8748V73.125C90 82.4467 82.4468 90 73.1256 90Z" fill="#0E2741"/>
<path d="M53.3575 39.0936C53.3575 39.7641 53.0901 40.4098 52.6161 40.8846C52.1443 41.3593 51.4995 41.6248 50.83 41.6248C50.1605 41.6203 49.518 41.3548 49.0395 40.8868C48.8036 40.6528 48.6171 40.3716 48.4913 40.0656C48.3655 39.7573 48.3003 39.4266 48.3026 39.0936C48.3026 38.4231 48.5699 37.7796 49.0439 37.3048C49.5157 36.8301 50.1605 36.5623 50.83 36.5623C51.4995 36.5623 52.1443 36.8301 52.6161 37.3048C53.0901 37.7796 53.3575 38.4231 53.3575 39.0936ZM66.8373 29.8123V60.1874C66.8373 61.0829 66.4823 61.9401 65.851 62.5746C65.2174 63.2069 64.3615 63.5624 63.4673 63.5624H26.3979C25.5037 63.5624 24.6478 63.2069 24.0142 62.5746C23.3829 61.9401 23.028 61.0829 23.028 60.1874V29.8123C23.028 28.9168 23.3829 28.0596 24.0142 27.425C24.6478 26.7928 25.5037 26.4373 26.3979 26.4373H63.4673C64.3615 26.4373 65.2174 26.7928 65.851 27.425C66.4823 28.0596 66.8373 28.9168 66.8373 29.8123ZM63.4673 52.7421V29.8123H26.3979V49.3671L34.1286 41.6248C34.7621 40.9993 35.6181 40.6483 36.5077 40.6483C37.3974 40.6483 38.2534 40.9993 38.8869 41.6248L48.3026 51.0546L52.6633 46.6873C53.2968 46.0618 54.1528 45.7108 55.0424 45.7108C55.9321 45.7108 56.7881 46.0618 57.4216 46.6873L63.4673 52.7421Z" fill="#3DA47C"/>
</g>
<defs>
<clipPath id="clip0_1_6">
<rect width="90" height="90" fill="white"/>
</clipPath>
</defs>
</svg>
