<svg width="33" height="33" viewBox="0 0 33 33" fill="none" xmlns="http://www.w3.org/2000/svg">
<g clip-path="url(#clip0_1228_16428)">
<mask id="mask0_1228_16428" style="mask-type:luminance" maskUnits="userSpaceOnUse" x="0" y="0" width="33" height="33">
<path d="M32.6562 0H0.34375V33H32.6562V0Z" fill="white"/>
</mask>
<g mask="url(#mask0_1228_16428)">
<path d="M16.5 33C25.4229 33 32.6562 25.6127 32.6562 16.5C32.6562 7.3873 25.4229 0 16.5 0C7.57714 0 0.34375 7.3873 0.34375 16.5C0.34375 25.6127 7.57714 33 16.5 33Z" fill="#F2F2F2"/>
<mask id="mask1_1228_16428" style="mask-type:alpha" maskUnits="userSpaceOnUse" x="0" y="0" width="33" height="33">
<path d="M16.5 33C25.4229 33 32.6562 25.6127 32.6562 16.5C32.6562 7.3873 25.4229 0 16.5 0C7.57714 0 0.34375 7.3873 0.34375 16.5C0.34375 25.6127 7.57714 33 16.5 33Z" fill="white"/>
</mask>
<g mask="url(#mask1_1228_16428)">
<path d="M9.63325 5.77423C9.91987 5.77423 10.1522 5.53694 10.1522 5.24423C10.1522 4.95152 9.91987 4.71423 9.63325 4.71423C9.34663 4.71423 9.11426 4.95152 9.11426 5.24423C9.11426 5.53694 9.34663 5.77423 9.63325 5.77423Z" fill="#DBDBDB"/>
<path d="M9.63325 8.95429C9.91987 8.95429 10.1522 8.71697 10.1522 8.42425C10.1522 8.13161 9.91987 7.89429 9.63325 7.89429C9.34663 7.89429 9.11426 8.13161 9.11426 8.42425C9.11426 8.71697 9.34663 8.95429 9.63325 8.95429Z" fill="#DBDBDB"/>
<path d="M9.63325 12.1341C9.91987 12.1341 10.1522 11.8969 10.1522 11.6041C10.1522 11.3114 9.91987 11.0741 9.63325 11.0741C9.34663 11.0741 9.11426 11.3114 9.11426 11.6041C9.11426 11.8969 9.34663 12.1341 9.63325 12.1341Z" fill="#DBDBDB"/>
<path d="M9.63325 15.3142C9.91987 15.3142 10.1522 15.0769 10.1522 14.7842C10.1522 14.4915 9.91987 14.2542 9.63325 14.2542C9.34663 14.2542 9.11426 14.4915 9.11426 14.7842C9.11426 15.0769 9.34663 15.3142 9.63325 15.3142Z" fill="#DBDBDB"/>
<path d="M9.63325 18.4943C9.91987 18.4943 10.1522 18.2571 10.1522 17.9644C10.1522 17.6716 9.91987 17.4343 9.63325 17.4343C9.34663 17.4343 9.11426 17.6716 9.11426 17.9644C9.11426 18.2571 9.34663 18.4943 9.63325 18.4943Z" fill="#DBDBDB"/>
<path d="M9.63325 21.6741C9.91987 21.6741 10.1522 21.4368 10.1522 21.1441C10.1522 20.8514 9.91987 20.6141 9.63325 20.6141C9.34663 20.6141 9.11426 20.8514 9.11426 21.1441C9.11426 21.4368 9.34663 21.6741 9.63325 21.6741Z" fill="#DBDBDB"/>
<path d="M9.63325 24.8539C9.91987 24.8539 10.1522 24.6166 10.1522 24.3239C10.1522 24.0312 9.91987 23.7939 9.63325 23.7939C9.34663 23.7939 9.11426 24.0312 9.11426 24.3239C9.11426 24.6166 9.34663 24.8539 9.63325 24.8539Z" fill="#DBDBDB"/>
<path d="M9.63325 28.0342C9.91987 28.0342 10.1522 27.7969 10.1522 27.5042C10.1522 27.2115 9.91987 26.9742 9.63325 26.9742C9.34663 26.9742 9.11426 27.2115 9.11426 27.5042C9.11426 27.7969 9.34663 28.0342 9.63325 28.0342Z" fill="#DBDBDB"/>
<path d="M12.7494 5.77423C13.036 5.77423 13.2683 5.53694 13.2683 5.24423C13.2683 4.95152 13.036 4.71423 12.7494 4.71423C12.4628 4.71423 12.2305 4.95152 12.2305 5.24423C12.2305 5.53694 12.4628 5.77423 12.7494 5.77423Z" fill="#DBDBDB"/>
<path d="M12.7494 8.95429C13.036 8.95429 13.2683 8.71697 13.2683 8.42425C13.2683 8.13161 13.036 7.89429 12.7494 7.89429C12.4628 7.89429 12.2305 8.13161 12.2305 8.42425C12.2305 8.71697 12.4628 8.95429 12.7494 8.95429Z" fill="#DBDBDB"/>
<path d="M12.7494 12.1341C13.036 12.1341 13.2683 11.8969 13.2683 11.6041C13.2683 11.3114 13.036 11.0741 12.7494 11.0741C12.4628 11.0741 12.2305 11.3114 12.2305 11.6041C12.2305 11.8969 12.4628 12.1341 12.7494 12.1341Z" fill="#DBDBDB"/>
<path d="M12.7494 15.3142C13.036 15.3142 13.2683 15.0769 13.2683 14.7842C13.2683 14.4915 13.036 14.2542 12.7494 14.2542C12.4628 14.2542 12.2305 14.4915 12.2305 14.7842C12.2305 15.0769 12.4628 15.3142 12.7494 15.3142Z" fill="#DBDBDB"/>
<path d="M12.7494 18.4943C13.036 18.4943 13.2683 18.2571 13.2683 17.9644C13.2683 17.6716 13.036 17.4343 12.7494 17.4343C12.4628 17.4343 12.2305 17.6716 12.2305 17.9644C12.2305 18.2571 12.4628 18.4943 12.7494 18.4943Z" fill="#DBDBDB"/>
<path d="M12.7494 21.6741C13.036 21.6741 13.2683 21.4368 13.2683 21.1441C13.2683 20.8514 13.036 20.6141 12.7494 20.6141C12.4628 20.6141 12.2305 20.8514 12.2305 21.1441C12.2305 21.4368 12.4628 21.6741 12.7494 21.6741Z" fill="#DBDBDB"/>
<path d="M12.7494 24.8539C13.036 24.8539 13.2683 24.6166 13.2683 24.3239C13.2683 24.0312 13.036 23.7939 12.7494 23.7939C12.4628 23.7939 12.2305 24.0312 12.2305 24.3239C12.2305 24.6166 12.4628 24.8539 12.7494 24.8539Z" fill="#DBDBDB"/>
<path d="M12.7494 28.0342C13.036 28.0342 13.2683 27.7969 13.2683 27.5042C13.2683 27.2115 13.036 26.9742 12.7494 26.9742C12.4628 26.9742 12.2305 27.2115 12.2305 27.5042C12.2305 27.7969 12.4628 28.0342 12.7494 28.0342Z" fill="#DBDBDB"/>
<path d="M15.8632 5.77423C16.1499 5.77423 16.3822 5.53694 16.3822 5.24423C16.3822 4.95152 16.1499 4.71423 15.8632 4.71423C15.5766 4.71423 15.3442 4.95152 15.3442 5.24423C15.3442 5.53694 15.5766 5.77423 15.8632 5.77423Z" fill="#DBDBDB"/>
<path d="M15.8632 8.95429C16.1499 8.95429 16.3822 8.71697 16.3822 8.42425C16.3822 8.13161 16.1499 7.89429 15.8632 7.89429C15.5766 7.89429 15.3442 8.13161 15.3442 8.42425C15.3442 8.71697 15.5766 8.95429 15.8632 8.95429Z" fill="#DBDBDB"/>
<path d="M15.8632 12.1341C16.1499 12.1341 16.3822 11.8969 16.3822 11.6041C16.3822 11.3114 16.1499 11.0741 15.8632 11.0741C15.5766 11.0741 15.3442 11.3114 15.3442 11.6041C15.3442 11.8969 15.5766 12.1341 15.8632 12.1341Z" fill="#DBDBDB"/>
<path d="M15.8632 15.3142C16.1499 15.3142 16.3822 15.0769 16.3822 14.7842C16.3822 14.4915 16.1499 14.2542 15.8632 14.2542C15.5766 14.2542 15.3442 14.4915 15.3442 14.7842C15.3442 15.0769 15.5766 15.3142 15.8632 15.3142Z" fill="#DBDBDB"/>
<path d="M15.8632 18.4943C16.1499 18.4943 16.3822 18.2571 16.3822 17.9644C16.3822 17.6716 16.1499 17.4343 15.8632 17.4343C15.5766 17.4343 15.3442 17.6716 15.3442 17.9644C15.3442 18.2571 15.5766 18.4943 15.8632 18.4943Z" fill="#DBDBDB"/>
<path d="M15.8632 21.6741C16.1499 21.6741 16.3822 21.4368 16.3822 21.1441C16.3822 20.8514 16.1499 20.6141 15.8632 20.6141C15.5766 20.6141 15.3442 20.8514 15.3442 21.1441C15.3442 21.4368 15.5766 21.6741 15.8632 21.6741Z" fill="#DBDBDB"/>
<path d="M15.8632 24.8539C16.1499 24.8539 16.3822 24.6166 16.3822 24.3239C16.3822 24.0312 16.1499 23.7939 15.8632 23.7939C15.5766 23.7939 15.3442 24.0312 15.3442 24.3239C15.3442 24.6166 15.5766 24.8539 15.8632 24.8539Z" fill="#DBDBDB"/>
<path d="M15.8632 28.0342C16.1499 28.0342 16.3822 27.7969 16.3822 27.5042C16.3822 27.2115 16.1499 26.9742 15.8632 26.9742C15.5766 26.9742 15.3442 27.2115 15.3442 27.5042C15.3442 27.7969 15.5766 28.0342 15.8632 28.0342Z" fill="#DBDBDB"/>
<path d="M18.9735 5.77423C19.2601 5.77423 19.4924 5.53694 19.4924 5.24423C19.4924 4.95152 19.2601 4.71423 18.9735 4.71423C18.6869 4.71423 18.4546 4.95152 18.4546 5.24423C18.4546 5.53694 18.6869 5.77423 18.9735 5.77423Z" fill="#DBDBDB"/>
<path d="M18.9735 8.95429C19.2601 8.95429 19.4924 8.71697 19.4924 8.42425C19.4924 8.13161 19.2601 7.89429 18.9735 7.89429C18.6869 7.89429 18.4546 8.13161 18.4546 8.42425C18.4546 8.71697 18.6869 8.95429 18.9735 8.95429Z" fill="#DBDBDB"/>
<path d="M18.9735 12.1341C19.2601 12.1341 19.4924 11.8969 19.4924 11.6041C19.4924 11.3114 19.2601 11.0741 18.9735 11.0741C18.6869 11.0741 18.4546 11.3114 18.4546 11.6041C18.4546 11.8969 18.6869 12.1341 18.9735 12.1341Z" fill="#DBDBDB"/>
<path d="M18.9735 15.3142C19.2601 15.3142 19.4924 15.0769 19.4924 14.7842C19.4924 14.4915 19.2601 14.2542 18.9735 14.2542C18.6869 14.2542 18.4546 14.4915 18.4546 14.7842C18.4546 15.0769 18.6869 15.3142 18.9735 15.3142Z" fill="#DBDBDB"/>
<path d="M18.9735 18.4943C19.2601 18.4943 19.4924 18.2571 19.4924 17.9644C19.4924 17.6716 19.2601 17.4343 18.9735 17.4343C18.6869 17.4343 18.4546 17.6716 18.4546 17.9644C18.4546 18.2571 18.6869 18.4943 18.9735 18.4943Z" fill="#DBDBDB"/>
<path d="M18.9735 21.6741C19.2601 21.6741 19.4924 21.4368 19.4924 21.1441C19.4924 20.8514 19.2601 20.6141 18.9735 20.6141C18.6869 20.6141 18.4546 20.8514 18.4546 21.1441C18.4546 21.4368 18.6869 21.6741 18.9735 21.6741Z" fill="#DBDBDB"/>
<path d="M18.9735 24.8539C19.2601 24.8539 19.4924 24.6166 19.4924 24.3239C19.4924 24.0312 19.2601 23.7939 18.9735 23.7939C18.6869 23.7939 18.4546 24.0312 18.4546 24.3239C18.4546 24.6166 18.6869 24.8539 18.9735 24.8539Z" fill="#DBDBDB"/>
<path d="M18.9735 28.0342C19.2601 28.0342 19.4924 27.7969 19.4924 27.5042C19.4924 27.2115 19.2601 26.9742 18.9735 26.9742C18.6869 26.9742 18.4546 27.2115 18.4546 27.5042C18.4546 27.7969 18.6869 28.0342 18.9735 28.0342Z" fill="#DBDBDB"/>
<path d="M22.0897 5.77423C22.3763 5.77423 22.6087 5.53694 22.6087 5.24423C22.6087 4.95152 22.3763 4.71423 22.0897 4.71423C21.8031 4.71423 21.5708 4.95152 21.5708 5.24423C21.5708 5.53694 21.8031 5.77423 22.0897 5.77423Z" fill="#DBDBDB"/>
<path d="M22.0897 8.95429C22.3763 8.95429 22.6087 8.71697 22.6087 8.42425C22.6087 8.13161 22.3763 7.89429 22.0897 7.89429C21.8031 7.89429 21.5708 8.13161 21.5708 8.42425C21.5708 8.71697 21.8031 8.95429 22.0897 8.95429Z" fill="#DBDBDB"/>
<path d="M22.0897 12.1341C22.3763 12.1341 22.6087 11.8969 22.6087 11.6041C22.6087 11.3114 22.3763 11.0741 22.0897 11.0741C21.8031 11.0741 21.5708 11.3114 21.5708 11.6041C21.5708 11.8969 21.8031 12.1341 22.0897 12.1341Z" fill="#DBDBDB"/>
<path d="M22.0897 15.3142C22.3763 15.3142 22.6087 15.0769 22.6087 14.7842C22.6087 14.4915 22.3763 14.2542 22.0897 14.2542C21.8031 14.2542 21.5708 14.4915 21.5708 14.7842C21.5708 15.0769 21.8031 15.3142 22.0897 15.3142Z" fill="#DBDBDB"/>
<path d="M22.0897 18.4943C22.3763 18.4943 22.6087 18.2571 22.6087 17.9644C22.6087 17.6716 22.3763 17.4343 22.0897 17.4343C21.8031 17.4343 21.5708 17.6716 21.5708 17.9644C21.5708 18.2571 21.8031 18.4943 22.0897 18.4943Z" fill="#DBDBDB"/>
<path d="M22.0897 21.6741C22.3763 21.6741 22.6087 21.4368 22.6087 21.1441C22.6087 20.8514 22.3763 20.6141 22.0897 20.6141C21.8031 20.6141 21.5708 20.8514 21.5708 21.1441C21.5708 21.4368 21.8031 21.6741 22.0897 21.6741Z" fill="#DBDBDB"/>
<path d="M22.0897 24.8539C22.3763 24.8539 22.6087 24.6166 22.6087 24.3239C22.6087 24.0312 22.3763 23.7939 22.0897 23.7939C21.8031 23.7939 21.5708 24.0312 21.5708 24.3239C21.5708 24.6166 21.8031 24.8539 22.0897 24.8539Z" fill="#DBDBDB"/>
<path d="M22.0897 28.0342C22.3763 28.0342 22.6087 27.7969 22.6087 27.5042C22.6087 27.2115 22.3763 26.9742 22.0897 26.9742C21.8031 26.9742 21.5708 27.2115 21.5708 27.5042C21.5708 27.7969 21.8031 28.0342 22.0897 28.0342Z" fill="#DBDBDB"/>
<path d="M25.2021 5.77423C25.4887 5.77423 25.721 5.53694 25.721 5.24423C25.721 4.95152 25.4887 4.71423 25.2021 4.71423C24.9155 4.71423 24.6831 4.95152 24.6831 5.24423C24.6831 5.53694 24.9155 5.77423 25.2021 5.77423Z" fill="#DBDBDB"/>
<path d="M25.2021 8.95429C25.4887 8.95429 25.721 8.71697 25.721 8.42425C25.721 8.13161 25.4887 7.89429 25.2021 7.89429C24.9155 7.89429 24.6831 8.13161 24.6831 8.42425C24.6831 8.71697 24.9155 8.95429 25.2021 8.95429Z" fill="#DBDBDB"/>
<path d="M25.2021 12.1341C25.4887 12.1341 25.721 11.8969 25.721 11.6041C25.721 11.3114 25.4887 11.0741 25.2021 11.0741C24.9155 11.0741 24.6831 11.3114 24.6831 11.6041C24.6831 11.8969 24.9155 12.1341 25.2021 12.1341Z" fill="#DBDBDB"/>
<path d="M25.2021 15.3142C25.4887 15.3142 25.721 15.0769 25.721 14.7842C25.721 14.4915 25.4887 14.2542 25.2021 14.2542C24.9155 14.2542 24.6831 14.4915 24.6831 14.7842C24.6831 15.0769 24.9155 15.3142 25.2021 15.3142Z" fill="#DBDBDB"/>
<path d="M25.2021 18.4943C25.4887 18.4943 25.721 18.2571 25.721 17.9644C25.721 17.6716 25.4887 17.4343 25.2021 17.4343C24.9155 17.4343 24.6831 17.6716 24.6831 17.9644C24.6831 18.2571 24.9155 18.4943 25.2021 18.4943Z" fill="#DBDBDB"/>
<path d="M25.2021 21.6741C25.4887 21.6741 25.721 21.4368 25.721 21.1441C25.721 20.8514 25.4887 20.6141 25.2021 20.6141C24.9155 20.6141 24.6831 20.8514 24.6831 21.1441C24.6831 21.4368 24.9155 21.6741 25.2021 21.6741Z" fill="#DBDBDB"/>
<path d="M25.2021 24.8539C25.4887 24.8539 25.721 24.6166 25.721 24.3239C25.721 24.0312 25.4887 23.7939 25.2021 23.7939C24.9155 23.7939 24.6831 24.0312 24.6831 24.3239C24.6831 24.6166 24.9155 24.8539 25.2021 24.8539Z" fill="#DBDBDB"/>
<path d="M25.2021 28.0342C25.4887 28.0342 25.721 27.7969 25.721 27.5042C25.721 27.2115 25.4887 26.9742 25.2021 26.9742C24.9155 26.9742 24.6831 27.2115 24.6831 27.5042C24.6831 27.7969 24.9155 28.0342 25.2021 28.0342Z" fill="#DBDBDB"/>
<path d="M28.3159 5.77423C28.6025 5.77423 28.8348 5.53694 28.8348 5.24423C28.8348 4.95152 28.6025 4.71423 28.3159 4.71423C28.0293 4.71423 27.7969 4.95152 27.7969 5.24423C27.7969 5.53694 28.0293 5.77423 28.3159 5.77423Z" fill="#DBDBDB"/>
<path d="M28.3159 8.95429C28.6025 8.95429 28.8348 8.71697 28.8348 8.42425C28.8348 8.13161 28.6025 7.89429 28.3159 7.89429C28.0293 7.89429 27.7969 8.13161 27.7969 8.42425C27.7969 8.71697 28.0293 8.95429 28.3159 8.95429Z" fill="#DBDBDB"/>
<path d="M28.3159 12.1341C28.6025 12.1341 28.8348 11.8969 28.8348 11.6041C28.8348 11.3114 28.6025 11.0741 28.3159 11.0741C28.0293 11.0741 27.7969 11.3114 27.7969 11.6041C27.7969 11.8969 28.0293 12.1341 28.3159 12.1341Z" fill="#DBDBDB"/>
<path d="M28.3159 15.3142C28.6025 15.3142 28.8348 15.0769 28.8348 14.7842C28.8348 14.4915 28.6025 14.2542 28.3159 14.2542C28.0293 14.2542 27.7969 14.4915 27.7969 14.7842C27.7969 15.0769 28.0293 15.3142 28.3159 15.3142Z" fill="#DBDBDB"/>
<path d="M28.3159 18.4943C28.6025 18.4943 28.8348 18.2571 28.8348 17.9644C28.8348 17.6716 28.6025 17.4343 28.3159 17.4343C28.0293 17.4343 27.7969 17.6716 27.7969 17.9644C27.7969 18.2571 28.0293 18.4943 28.3159 18.4943Z" fill="#DBDBDB"/>
<path d="M28.3159 21.6741C28.6025 21.6741 28.8348 21.4368 28.8348 21.1441C28.8348 20.8514 28.6025 20.6141 28.3159 20.6141C28.0293 20.6141 27.7969 20.8514 27.7969 21.1441C27.7969 21.4368 28.0293 21.6741 28.3159 21.6741Z" fill="#DBDBDB"/>
<path d="M28.3159 24.8539C28.6025 24.8539 28.8348 24.6166 28.8348 24.3239C28.8348 24.0312 28.6025 23.7939 28.3159 23.7939C28.0293 23.7939 27.7969 24.0312 27.7969 24.3239C27.7969 24.6166 28.0293 24.8539 28.3159 24.8539Z" fill="#DBDBDB"/>
<path d="M28.3159 28.0342C28.6025 28.0342 28.8348 27.7969 28.8348 27.5042C28.8348 27.2115 28.6025 26.9742 28.3159 26.9742C28.0293 26.9742 27.7969 27.2115 27.7969 27.5042C27.7969 27.7969 28.0293 28.0342 28.3159 28.0342Z" fill="#DBDBDB"/>
<path d="M31.4262 5.77423C31.7128 5.77423 31.9451 5.53694 31.9451 5.24423C31.9451 4.95152 31.7128 4.71423 31.4262 4.71423C31.1395 4.71423 30.9072 4.95152 30.9072 5.24423C30.9072 5.53694 31.1395 5.77423 31.4262 5.77423Z" fill="#DBDBDB"/>
<path d="M31.4262 8.95429C31.7128 8.95429 31.9451 8.71697 31.9451 8.42425C31.9451 8.13161 31.7128 7.89429 31.4262 7.89429C31.1395 7.89429 30.9072 8.13161 30.9072 8.42425C30.9072 8.71697 31.1395 8.95429 31.4262 8.95429Z" fill="#DBDBDB"/>
<path d="M31.4262 12.1341C31.7128 12.1341 31.9451 11.8969 31.9451 11.6041C31.9451 11.3114 31.7128 11.0741 31.4262 11.0741C31.1395 11.0741 30.9072 11.3114 30.9072 11.6041C30.9072 11.8969 31.1395 12.1341 31.4262 12.1341Z" fill="#DBDBDB"/>
<path d="M31.4262 15.3142C31.7128 15.3142 31.9451 15.0769 31.9451 14.7842C31.9451 14.4915 31.7128 14.2542 31.4262 14.2542C31.1395 14.2542 30.9072 14.4915 30.9072 14.7842C30.9072 15.0769 31.1395 15.3142 31.4262 15.3142Z" fill="#DBDBDB"/>
<path d="M31.4262 18.4943C31.7128 18.4943 31.9451 18.2571 31.9451 17.9644C31.9451 17.6716 31.7128 17.4343 31.4262 17.4343C31.1395 17.4343 30.9072 17.6716 30.9072 17.9644C30.9072 18.2571 31.1395 18.4943 31.4262 18.4943Z" fill="#DBDBDB"/>
<path d="M31.4262 21.6741C31.7128 21.6741 31.9451 21.4368 31.9451 21.1441C31.9451 20.8514 31.7128 20.6141 31.4262 20.6141C31.1395 20.6141 30.9072 20.8514 30.9072 21.1441C30.9072 21.4368 31.1395 21.6741 31.4262 21.6741Z" fill="#DBDBDB"/>
<path d="M31.4262 24.8539C31.7128 24.8539 31.9451 24.6166 31.9451 24.3239C31.9451 24.0312 31.7128 23.7939 31.4262 23.7939C31.1395 23.7939 30.9072 24.0312 30.9072 24.3239C30.9072 24.6166 31.1395 24.8539 31.4262 24.8539Z" fill="#DBDBDB"/>
<path d="M31.4262 28.0342C31.7128 28.0342 31.9451 27.7969 31.9451 27.5042C31.9451 27.2115 31.7128 26.9742 31.4262 26.9742C31.1395 26.9742 30.9072 27.2115 30.9072 27.5042C30.9072 27.7969 31.1395 28.0342 31.4262 28.0342Z" fill="#DBDBDB"/>
<path d="M24.4835 9.98547H5.88867V35.112H24.4835V9.98547Z" fill="#05194B"/>
<path d="M4.70433 12.7624C4.70433 12.7624 4.48505 9.94067 5.88843 9.94067H7.11636V12.7624H4.70433Z" fill="#05194B"/>
<path d="M24.0008 10.7917H5.75684V34.3954H24.0008V10.7917Z" fill="white"/>
<path d="M23.6502 11.3739H5.40625V34.9775H23.6502V11.3739Z" fill="white"/>
<path d="M23.4749 12.9863H5.23096V36.59H23.4749V12.9863Z" fill="white"/>
<path d="M23.2994 12.7623H14.002V37.8888H23.2994V12.7623Z" fill="#05194B"/>
<path d="M14.0019 12.7623H4.70459V37.8888H14.0019V12.7623Z" fill="#0048BE"/>
<path d="M20.0975 18.0474H8.03727C7.81803 18.0474 7.64258 17.8683 7.64258 17.6443C7.64258 17.4204 7.81803 17.2412 8.03727 17.2412H20.0975C20.3168 17.2412 20.4923 17.4204 20.4923 17.6443C20.4923 17.8683 20.3168 18.0474 20.0975 18.0474Z" fill="white"/>
<path d="M20.0975 20.6452H8.03727C7.81803 20.6452 7.64258 20.4661 7.64258 20.2421C7.64258 20.0182 7.81803 19.839 8.03727 19.839H20.0975C20.3168 19.839 20.4923 20.0182 20.4923 20.2421C20.4923 20.4661 20.3168 20.6452 20.0975 20.6452Z" fill="white"/>
<path d="M20.0975 23.2878H8.03727C7.81803 23.2878 7.64258 23.1086 7.64258 22.8847C7.64258 22.6608 7.81803 22.4816 8.03727 22.4816H20.0975C20.3168 22.4816 20.4923 22.6608 20.4923 22.8847C20.4923 23.1086 20.3168 23.2878 20.0975 23.2878Z" fill="white"/>
<path d="M10.5561 34.4408H15.4429V33.488H10.5561V34.4408ZM7.62409 30.6296H15.4429V29.6768H7.62409V30.6296ZM12.5108 26.8185H15.4429V25.8658H12.5108V26.8185ZM16.4202 33.0116V34.9172C16.4202 35.0461 16.3719 35.1578 16.2752 35.2521C16.1784 35.3464 16.0639 35.3936 15.9316 35.3936H3.22598C3.09363 35.3936 2.97909 35.3464 2.88237 35.2521C2.78566 35.1578 2.7373 35.0461 2.7373 34.9172V33.0116C2.7373 32.8825 2.78566 32.7709 2.88237 32.6766C2.97909 32.5824 3.09363 32.5352 3.22598 32.5352H15.9316C16.0639 32.5352 16.1784 32.5824 16.2752 32.6766C16.3719 32.7709 16.4202 32.8825 16.4202 33.0116ZM16.4202 29.2005V31.106C16.4202 31.2351 16.3719 31.3467 16.2752 31.441C16.1784 31.5353 16.0639 31.5824 15.9316 31.5824H3.22598C3.09363 31.5824 2.97909 31.5353 2.88237 31.441C2.78566 31.3467 2.7373 31.2351 2.7373 31.106V29.2005C2.7373 29.0715 2.78566 28.9598 2.88237 28.8655C2.97909 28.7712 3.09363 28.7241 3.22598 28.7241H15.9316C16.0639 28.7241 16.1784 28.7712 16.2752 28.8655C16.3719 28.9598 16.4202 29.0715 16.4202 29.2005ZM16.4202 25.3894V27.2949C16.4202 27.4239 16.3719 27.5356 16.2752 27.6298C16.1784 27.7241 16.0639 27.7713 15.9316 27.7713H3.22598C3.09363 27.7713 2.97909 27.7241 2.88237 27.6298C2.78566 27.5356 2.7373 27.4239 2.7373 27.2949V25.3894C2.7373 25.2604 2.78566 25.1487 2.88237 25.0544C2.97909 24.9601 3.09363 24.913 3.22598 24.913H15.9316C16.0639 24.913 16.1784 24.9601 16.2752 25.0544C16.3719 25.1487 16.4202 25.2604 16.4202 25.3894Z" fill="white"/>
<path d="M27.4265 13.4731C27.4265 13.9397 27.3191 14.3788 27.1041 14.763C26.6472 15.6137 25.7874 16.19 24.7662 16.19C23.7451 16.19 22.8852 15.6137 22.4284 14.763C22.2135 14.3788 22.106 13.9397 22.106 13.4731C22.106 11.9637 23.2883 10.7562 24.7662 10.7562C26.2173 10.7562 27.4265 11.9637 27.4265 13.4731Z" fill="white"/>
<path d="M27.1039 14.763C26.6471 15.6137 25.7872 16.19 24.7661 16.19C23.745 16.19 22.8851 15.6137 22.4282 14.763C23.1 14.2964 23.9062 14.0494 24.7661 14.0494C25.626 14.0494 26.4321 14.3239 27.1039 14.763Z" fill="#0048BE"/>
<path d="M25.9487 12.54C25.9487 13.1987 25.4112 13.7476 24.7663 13.7476C24.1214 13.7476 23.584 13.1987 23.584 12.54C23.584 11.8814 24.1214 11.3325 24.7663 11.3325C25.4112 11.3325 25.9487 11.8814 25.9487 12.54Z" fill="#05194B"/>
<path d="M30.1035 13.8154L29.9531 12.1379L28.7126 12.0236C28.6374 11.7567 28.4871 11.4899 28.3367 11.223L29.0509 10.1937L27.8856 9.01178L26.8707 9.73617C26.6075 9.58366 26.3444 9.46929 26.0812 9.35491L25.9685 8.09684L24.3145 7.94434L24.0138 9.16428C23.7131 9.20241 23.4499 9.27866 23.1492 9.39304L22.2846 8.51622L22.2471 8.55434L20.9314 9.50741L21.4576 10.613C21.2697 10.8417 21.0817 11.1086 20.9689 11.3374L19.7661 11.223L19.3525 12.8623L20.4802 13.396C20.4802 13.701 20.5179 14.006 20.5555 14.2729L19.5405 14.9972L20.2547 16.5222L21.4576 16.1791C21.6456 16.4078 21.8335 16.5984 22.0591 16.789L21.7208 18.009L23.2244 18.7334L23.9386 17.704C24.2018 17.7421 24.5025 17.7803 24.8032 17.7803L25.3295 18.924L26.9458 18.4665L26.8707 17.8184L26.7955 17.2084C26.9082 17.1322 27.0211 17.0559 27.1338 16.9797C27.2466 16.9034 27.3594 16.789 27.4721 16.7128L28.5998 17.2465L29.5396 15.8741L28.6374 14.9972C28.7502 14.7304 28.8254 14.4635 28.8629 14.1585L30.1035 13.8154ZM26.2316 15.6453C26.1188 15.7216 26.0061 15.7978 25.8933 15.836C24.728 16.4078 23.3372 16.0647 22.5478 14.9972C21.7208 13.7773 21.9839 12.0998 23.1868 11.2611C23.2995 11.1849 23.4124 11.1086 23.5251 11.0705C24.6904 10.4605 26.1188 10.8036 26.8707 11.9092C27.7352 13.1292 27.4345 14.7685 26.2316 15.6453Z" fill="#0046B9"/>
</g>
</g>
</g>
<defs>
<clipPath id="clip0_1228_16428">
<rect width="33" height="33" fill="white"/>
</clipPath>
</defs>
</svg>
