<svg width="33" height="33" viewBox="0 0 33 33" fill="none" xmlns="http://www.w3.org/2000/svg">
<g clip-path="url(#clip0_1228_16323)">
<mask id="mask0_1228_16323" style="mask-type:luminance" maskUnits="userSpaceOnUse" x="0" y="0" width="33" height="33">
<path d="M32.6562 0.34375H0.34375V32.6562H32.6562V0.34375Z" fill="white"/>
</mask>
<g mask="url(#mask0_1228_16323)">
<path d="M16.5 32.6562C25.4229 32.6562 32.6562 25.4229 32.6562 16.5C32.6562 7.57714 25.4229 0.34375 16.5 0.34375C7.57714 0.34375 0.34375 7.57714 0.34375 16.5C0.34375 25.4229 7.57714 32.6562 16.5 32.6562Z" fill="#F2F2F2"/>
<mask id="mask1_1228_16323" style="mask-type:alpha" maskUnits="userSpaceOnUse" x="0" y="0" width="33" height="33">
<path d="M16.5 32.6562C25.4229 32.6562 32.6562 25.4229 32.6562 16.5C32.6562 7.57714 25.4229 0.34375 16.5 0.34375C7.57714 0.34375 0.34375 7.57714 0.34375 16.5C0.34375 25.4229 7.57714 32.6562 16.5 32.6562Z" fill="white"/>
</mask>
<g mask="url(#mask1_1228_16323)">
<path d="M2.65811 2.57843C2.94472 2.57843 3.17707 2.34609 3.17707 2.05948C3.17707 1.77287 2.94472 1.54053 2.65811 1.54053C2.3715 1.54053 2.13916 1.77287 2.13916 2.05948C2.13916 2.34609 2.3715 2.57843 2.65811 2.57843Z" fill="#DBDBDB"/>
<path d="M2.65811 5.6922C2.94472 5.6922 3.17707 5.45986 3.17707 5.17325C3.17707 4.88664 2.94472 4.6543 2.65811 4.6543C2.3715 4.6543 2.13916 4.88664 2.13916 5.17325C2.13916 5.45986 2.3715 5.6922 2.65811 5.6922Z" fill="#DBDBDB"/>
<path d="M2.65811 8.80586C2.94472 8.80586 3.17707 8.57349 3.17707 8.28687C3.17707 8.00025 2.94472 7.76794 2.65811 7.76794C2.3715 7.76794 2.13916 8.00025 2.13916 8.28687C2.13916 8.57349 2.3715 8.80586 2.65811 8.80586Z" fill="#DBDBDB"/>
<path d="M2.65811 11.9196C2.94472 11.9196 3.17707 11.6873 3.17707 11.4006C3.17707 11.114 2.94472 10.8817 2.65811 10.8817C2.3715 10.8817 2.13916 11.114 2.13916 11.4006C2.13916 11.6873 2.3715 11.9196 2.65811 11.9196Z" fill="#DBDBDB"/>
<path d="M2.65811 15.0335C2.94472 15.0335 3.17707 14.8011 3.17707 14.5145C3.17707 14.2279 2.94472 13.9956 2.65811 13.9956C2.3715 13.9956 2.13916 14.2279 2.13916 14.5145C2.13916 14.8011 2.3715 15.0335 2.65811 15.0335Z" fill="#DBDBDB"/>
<path d="M2.65811 18.1471C2.94472 18.1471 3.17707 17.9147 3.17707 17.6281C3.17707 17.3415 2.94472 17.1091 2.65811 17.1091C2.3715 17.1091 2.13916 17.3415 2.13916 17.6281C2.13916 17.9147 2.3715 18.1471 2.65811 18.1471Z" fill="#DBDBDB"/>
<path d="M2.65811 21.2607C2.94472 21.2607 3.17707 21.0283 3.17707 20.7418C3.17707 20.4552 2.94472 20.2228 2.65811 20.2228C2.3715 20.2228 2.13916 20.4552 2.13916 20.7418C2.13916 21.0283 2.3715 21.2607 2.65811 21.2607Z" fill="#DBDBDB"/>
<path d="M2.65811 24.3747C2.94472 24.3747 3.17707 24.1424 3.17707 23.8558C3.17707 23.5692 2.94472 23.3368 2.65811 23.3368C2.3715 23.3368 2.13916 23.5692 2.13916 23.8558C2.13916 24.1424 2.3715 24.3747 2.65811 24.3747Z" fill="#DBDBDB"/>
<path d="M5.77384 2.57843C6.06045 2.57843 6.29279 2.34609 6.29279 2.05948C6.29279 1.77287 6.06045 1.54053 5.77384 1.54053C5.48723 1.54053 5.25488 1.77287 5.25488 2.05948C5.25488 2.34609 5.48723 2.57843 5.77384 2.57843Z" fill="#DBDBDB"/>
<path d="M5.77384 5.6922C6.06045 5.6922 6.29279 5.45986 6.29279 5.17325C6.29279 4.88664 6.06045 4.6543 5.77384 4.6543C5.48723 4.6543 5.25488 4.88664 5.25488 5.17325C5.25488 5.45986 5.48723 5.6922 5.77384 5.6922Z" fill="#DBDBDB"/>
<path d="M5.77384 8.80586C6.06045 8.80586 6.29279 8.57349 6.29279 8.28687C6.29279 8.00025 6.06045 7.76794 5.77384 7.76794C5.48723 7.76794 5.25488 8.00025 5.25488 8.28687C5.25488 8.57349 5.48723 8.80586 5.77384 8.80586Z" fill="#DBDBDB"/>
<path d="M5.77384 11.9196C6.06045 11.9196 6.29279 11.6873 6.29279 11.4006C6.29279 11.114 6.06045 10.8817 5.77384 10.8817C5.48723 10.8817 5.25488 11.114 5.25488 11.4006C5.25488 11.6873 5.48723 11.9196 5.77384 11.9196Z" fill="#DBDBDB"/>
<path d="M5.77384 15.0335C6.06045 15.0335 6.29279 14.8011 6.29279 14.5145C6.29279 14.2279 6.06045 13.9956 5.77384 13.9956C5.48723 13.9956 5.25488 14.2279 5.25488 14.5145C5.25488 14.8011 5.48723 15.0335 5.77384 15.0335Z" fill="#DBDBDB"/>
<path d="M5.77384 18.1471C6.06045 18.1471 6.29279 17.9147 6.29279 17.6281C6.29279 17.3415 6.06045 17.1091 5.77384 17.1091C5.48723 17.1091 5.25488 17.3415 5.25488 17.6281C5.25488 17.9147 5.48723 18.1471 5.77384 18.1471Z" fill="#DBDBDB"/>
<path d="M5.77384 21.2607C6.06045 21.2607 6.29279 21.0283 6.29279 20.7418C6.29279 20.4552 6.06045 20.2228 5.77384 20.2228C5.48723 20.2228 5.25488 20.4552 5.25488 20.7418C5.25488 21.0283 5.48723 21.2607 5.77384 21.2607Z" fill="#DBDBDB"/>
<path d="M5.77384 24.3747C6.06045 24.3747 6.29279 24.1424 6.29279 23.8558C6.29279 23.5692 6.06045 23.3368 5.77384 23.3368C5.48723 23.3368 5.25488 23.5692 5.25488 23.8558C5.25488 24.1424 5.48723 24.3747 5.77384 24.3747Z" fill="#DBDBDB"/>
<path d="M8.88807 2.57843C9.17468 2.57843 9.40699 2.34609 9.40699 2.05948C9.40699 1.77287 9.17468 1.54053 8.88807 1.54053C8.60145 1.54053 8.36914 1.77287 8.36914 2.05948C8.36914 2.34609 8.60145 2.57843 8.88807 2.57843Z" fill="#DBDBDB"/>
<path d="M8.88807 5.6922C9.17468 5.6922 9.40699 5.45986 9.40699 5.17325C9.40699 4.88664 9.17468 4.6543 8.88807 4.6543C8.60145 4.6543 8.36914 4.88664 8.36914 5.17325C8.36914 5.45986 8.60145 5.6922 8.88807 5.6922Z" fill="#DBDBDB"/>
<path d="M8.88807 8.80586C9.17468 8.80586 9.40699 8.57349 9.40699 8.28687C9.40699 8.00025 9.17468 7.76794 8.88807 7.76794C8.60145 7.76794 8.36914 8.00025 8.36914 8.28687C8.36914 8.57349 8.60145 8.80586 8.88807 8.80586Z" fill="#DBDBDB"/>
<path d="M8.88807 11.9196C9.17468 11.9196 9.40699 11.6873 9.40699 11.4006C9.40699 11.114 9.17468 10.8817 8.88807 10.8817C8.60145 10.8817 8.36914 11.114 8.36914 11.4006C8.36914 11.6873 8.60145 11.9196 8.88807 11.9196Z" fill="#DBDBDB"/>
<path d="M8.88807 15.0335C9.17468 15.0335 9.40699 14.8011 9.40699 14.5145C9.40699 14.2279 9.17468 13.9956 8.88807 13.9956C8.60145 13.9956 8.36914 14.2279 8.36914 14.5145C8.36914 14.8011 8.60145 15.0335 8.88807 15.0335Z" fill="#DBDBDB"/>
<path d="M8.88807 18.1471C9.17468 18.1471 9.40699 17.9147 9.40699 17.6281C9.40699 17.3415 9.17468 17.1091 8.88807 17.1091C8.60145 17.1091 8.36914 17.3415 8.36914 17.6281C8.36914 17.9147 8.60145 18.1471 8.88807 18.1471Z" fill="#DBDBDB"/>
<path d="M8.88807 21.2607C9.17468 21.2607 9.40699 21.0283 9.40699 20.7418C9.40699 20.4552 9.17468 20.2228 8.88807 20.2228C8.60145 20.2228 8.36914 20.4552 8.36914 20.7418C8.36914 21.0283 8.60145 21.2607 8.88807 21.2607Z" fill="#DBDBDB"/>
<path d="M8.88807 24.3747C9.17468 24.3747 9.40699 24.1424 9.40699 23.8558C9.40699 23.5692 9.17468 23.3368 8.88807 23.3368C8.60145 23.3368 8.36914 23.5692 8.36914 23.8558C8.36914 24.1424 8.60145 24.3747 8.88807 24.3747Z" fill="#DBDBDB"/>
<path d="M11.9984 2.57843C12.285 2.57843 12.5174 2.34609 12.5174 2.05948C12.5174 1.77287 12.285 1.54053 11.9984 1.54053C11.7118 1.54053 11.4795 1.77287 11.4795 2.05948C11.4795 2.34609 11.7118 2.57843 11.9984 2.57843Z" fill="#DBDBDB"/>
<path d="M11.9984 5.6922C12.285 5.6922 12.5174 5.45986 12.5174 5.17325C12.5174 4.88664 12.285 4.6543 11.9984 4.6543C11.7118 4.6543 11.4795 4.88664 11.4795 5.17325C11.4795 5.45986 11.7118 5.6922 11.9984 5.6922Z" fill="#DBDBDB"/>
<path d="M11.9984 8.80586C12.285 8.80586 12.5174 8.57349 12.5174 8.28687C12.5174 8.00025 12.285 7.76794 11.9984 7.76794C11.7118 7.76794 11.4795 8.00025 11.4795 8.28687C11.4795 8.57349 11.7118 8.80586 11.9984 8.80586Z" fill="#DBDBDB"/>
<path d="M11.9984 11.9196C12.285 11.9196 12.5174 11.6873 12.5174 11.4006C12.5174 11.114 12.285 10.8817 11.9984 10.8817C11.7118 10.8817 11.4795 11.114 11.4795 11.4006C11.4795 11.6873 11.7118 11.9196 11.9984 11.9196Z" fill="#DBDBDB"/>
<path d="M11.9984 15.0335C12.285 15.0335 12.5174 14.8011 12.5174 14.5145C12.5174 14.2279 12.285 13.9956 11.9984 13.9956C11.7118 13.9956 11.4795 14.2279 11.4795 14.5145C11.4795 14.8011 11.7118 15.0335 11.9984 15.0335Z" fill="#DBDBDB"/>
<path d="M11.9984 18.1471C12.285 18.1471 12.5174 17.9147 12.5174 17.6281C12.5174 17.3415 12.285 17.1091 11.9984 17.1091C11.7118 17.1091 11.4795 17.3415 11.4795 17.6281C11.4795 17.9147 11.7118 18.1471 11.9984 18.1471Z" fill="#DBDBDB"/>
<path d="M11.9984 21.2607C12.285 21.2607 12.5174 21.0283 12.5174 20.7418C12.5174 20.4552 12.285 20.2228 11.9984 20.2228C11.7118 20.2228 11.4795 20.4552 11.4795 20.7418C11.4795 21.0283 11.7118 21.2607 11.9984 21.2607Z" fill="#DBDBDB"/>
<path d="M11.9984 24.3747C12.285 24.3747 12.5174 24.1424 12.5174 23.8558C12.5174 23.5692 12.285 23.3368 11.9984 23.3368C11.7118 23.3368 11.4795 23.5692 11.4795 23.8558C11.4795 24.1424 11.7118 24.3747 11.9984 24.3747Z" fill="#DBDBDB"/>
<path d="M15.1141 2.57843C15.4008 2.57843 15.6331 2.34609 15.6331 2.05948C15.6331 1.77287 15.4008 1.54053 15.1141 1.54053C14.8275 1.54053 14.5952 1.77287 14.5952 2.05948C14.5952 2.34609 14.8275 2.57843 15.1141 2.57843Z" fill="#DBDBDB"/>
<path d="M15.1141 5.6922C15.4008 5.6922 15.6331 5.45986 15.6331 5.17325C15.6331 4.88664 15.4008 4.6543 15.1141 4.6543C14.8275 4.6543 14.5952 4.88664 14.5952 5.17325C14.5952 5.45986 14.8275 5.6922 15.1141 5.6922Z" fill="#DBDBDB"/>
<path d="M15.1141 8.80586C15.4008 8.80586 15.6331 8.57349 15.6331 8.28687C15.6331 8.00025 15.4008 7.76794 15.1141 7.76794C14.8275 7.76794 14.5952 8.00025 14.5952 8.28687C14.5952 8.57349 14.8275 8.80586 15.1141 8.80586Z" fill="#DBDBDB"/>
<path d="M15.1141 11.9196C15.4008 11.9196 15.6331 11.6873 15.6331 11.4006C15.6331 11.114 15.4008 10.8817 15.1141 10.8817C14.8275 10.8817 14.5952 11.114 14.5952 11.4006C14.5952 11.6873 14.8275 11.9196 15.1141 11.9196Z" fill="#DBDBDB"/>
<path d="M15.1141 15.0335C15.4008 15.0335 15.6331 14.8011 15.6331 14.5145C15.6331 14.2279 15.4008 13.9956 15.1141 13.9956C14.8275 13.9956 14.5952 14.2279 14.5952 14.5145C14.5952 14.8011 14.8275 15.0335 15.1141 15.0335Z" fill="#DBDBDB"/>
<path d="M15.1141 18.1471C15.4008 18.1471 15.6331 17.9147 15.6331 17.6281C15.6331 17.3415 15.4008 17.1091 15.1141 17.1091C14.8275 17.1091 14.5952 17.3415 14.5952 17.6281C14.5952 17.9147 14.8275 18.1471 15.1141 18.1471Z" fill="#DBDBDB"/>
<path d="M15.1141 21.2607C15.4008 21.2607 15.6331 21.0283 15.6331 20.7418C15.6331 20.4552 15.4008 20.2228 15.1141 20.2228C14.8275 20.2228 14.5952 20.4552 14.5952 20.7418C14.5952 21.0283 14.8275 21.2607 15.1141 21.2607Z" fill="#DBDBDB"/>
<path d="M15.1141 24.3747C15.4008 24.3747 15.6331 24.1424 15.6331 23.8558C15.6331 23.5692 15.4008 23.3368 15.1141 23.3368C14.8275 23.3368 14.5952 23.5692 14.5952 23.8558C14.5952 24.1424 14.8275 24.3747 15.1141 24.3747Z" fill="#DBDBDB"/>
<path d="M18.2265 2.57843C18.5131 2.57843 18.7454 2.34609 18.7454 2.05948C18.7454 1.77287 18.5131 1.54053 18.2265 1.54053C17.9399 1.54053 17.7075 1.77287 17.7075 2.05948C17.7075 2.34609 17.9399 2.57843 18.2265 2.57843Z" fill="#DBDBDB"/>
<path d="M18.2265 5.6922C18.5131 5.6922 18.7454 5.45986 18.7454 5.17325C18.7454 4.88664 18.5131 4.6543 18.2265 4.6543C17.9399 4.6543 17.7075 4.88664 17.7075 5.17325C17.7075 5.45986 17.9399 5.6922 18.2265 5.6922Z" fill="#DBDBDB"/>
<path d="M18.2265 8.80586C18.5131 8.80586 18.7454 8.57349 18.7454 8.28687C18.7454 8.00025 18.5131 7.76794 18.2265 7.76794C17.9399 7.76794 17.7075 8.00025 17.7075 8.28687C17.7075 8.57349 17.9399 8.80586 18.2265 8.80586Z" fill="#DBDBDB"/>
<path d="M18.2265 11.9196C18.5131 11.9196 18.7454 11.6873 18.7454 11.4006C18.7454 11.114 18.5131 10.8817 18.2265 10.8817C17.9399 10.8817 17.7075 11.114 17.7075 11.4006C17.7075 11.6873 17.9399 11.9196 18.2265 11.9196Z" fill="#DBDBDB"/>
<path d="M18.2265 15.0335C18.5131 15.0335 18.7454 14.8011 18.7454 14.5145C18.7454 14.2279 18.5131 13.9956 18.2265 13.9956C17.9399 13.9956 17.7075 14.2279 17.7075 14.5145C17.7075 14.8011 17.9399 15.0335 18.2265 15.0335Z" fill="#DBDBDB"/>
<path d="M18.2265 18.1471C18.5131 18.1471 18.7454 17.9147 18.7454 17.6281C18.7454 17.3415 18.5131 17.1091 18.2265 17.1091C17.9399 17.1091 17.7075 17.3415 17.7075 17.6281C17.7075 17.9147 17.9399 18.1471 18.2265 18.1471Z" fill="#DBDBDB"/>
<path d="M18.2265 21.2607C18.5131 21.2607 18.7454 21.0283 18.7454 20.7418C18.7454 20.4552 18.5131 20.2228 18.2265 20.2228C17.9399 20.2228 17.7075 20.4552 17.7075 20.7418C17.7075 21.0283 17.9399 21.2607 18.2265 21.2607Z" fill="#DBDBDB"/>
<path d="M18.2265 24.3747C18.5131 24.3747 18.7454 24.1424 18.7454 23.8558C18.7454 23.5692 18.5131 23.3368 18.2265 23.3368C17.9399 23.3368 17.7075 23.5692 17.7075 23.8558C17.7075 24.1424 17.9399 24.3747 18.2265 24.3747Z" fill="#DBDBDB"/>
<path d="M21.3403 2.57843C21.6269 2.57843 21.8592 2.34609 21.8592 2.05948C21.8592 1.77287 21.6269 1.54053 21.3403 1.54053C21.0537 1.54053 20.8213 1.77287 20.8213 2.05948C20.8213 2.34609 21.0537 2.57843 21.3403 2.57843Z" fill="#DBDBDB"/>
<path d="M21.3403 5.6922C21.6269 5.6922 21.8592 5.45986 21.8592 5.17325C21.8592 4.88664 21.6269 4.6543 21.3403 4.6543C21.0537 4.6543 20.8213 4.88664 20.8213 5.17325C20.8213 5.45986 21.0537 5.6922 21.3403 5.6922Z" fill="#DBDBDB"/>
<path d="M21.3403 8.80586C21.6269 8.80586 21.8592 8.57349 21.8592 8.28687C21.8592 8.00025 21.6269 7.76794 21.3403 7.76794C21.0537 7.76794 20.8213 8.00025 20.8213 8.28687C20.8213 8.57349 21.0537 8.80586 21.3403 8.80586Z" fill="#DBDBDB"/>
<path d="M21.3403 11.9196C21.6269 11.9196 21.8592 11.6873 21.8592 11.4006C21.8592 11.114 21.6269 10.8817 21.3403 10.8817C21.0537 10.8817 20.8213 11.114 20.8213 11.4006C20.8213 11.6873 21.0537 11.9196 21.3403 11.9196Z" fill="#DBDBDB"/>
<path d="M21.3403 15.0335C21.6269 15.0335 21.8592 14.8011 21.8592 14.5145C21.8592 14.2279 21.6269 13.9956 21.3403 13.9956C21.0537 13.9956 20.8213 14.2279 20.8213 14.5145C20.8213 14.8011 21.0537 15.0335 21.3403 15.0335Z" fill="#DBDBDB"/>
<path d="M21.3403 18.1471C21.6269 18.1471 21.8592 17.9147 21.8592 17.6281C21.8592 17.3415 21.6269 17.1091 21.3403 17.1091C21.0537 17.1091 20.8213 17.3415 20.8213 17.6281C20.8213 17.9147 21.0537 18.1471 21.3403 18.1471Z" fill="#DBDBDB"/>
<path d="M21.3403 21.2607C21.6269 21.2607 21.8592 21.0283 21.8592 20.7418C21.8592 20.4552 21.6269 20.2228 21.3403 20.2228C21.0537 20.2228 20.8213 20.4552 20.8213 20.7418C20.8213 21.0283 21.0537 21.2607 21.3403 21.2607Z" fill="#DBDBDB"/>
<path d="M21.3403 24.3747C21.6269 24.3747 21.8592 24.1424 21.8592 23.8558C21.8592 23.5692 21.6269 23.3368 21.3403 23.3368C21.0537 23.3368 20.8213 23.5692 20.8213 23.8558C20.8213 24.1424 21.0537 24.3747 21.3403 24.3747Z" fill="#DBDBDB"/>
<path d="M24.4511 2.57843C24.7377 2.57843 24.97 2.34609 24.97 2.05948C24.97 1.77287 24.7377 1.54053 24.4511 1.54053C24.1644 1.54053 23.9321 1.77287 23.9321 2.05948C23.9321 2.34609 24.1644 2.57843 24.4511 2.57843Z" fill="#DBDBDB"/>
<path d="M24.4511 5.6922C24.7377 5.6922 24.97 5.45986 24.97 5.17325C24.97 4.88664 24.7377 4.6543 24.4511 4.6543C24.1644 4.6543 23.9321 4.88664 23.9321 5.17325C23.9321 5.45986 24.1644 5.6922 24.4511 5.6922Z" fill="#DBDBDB"/>
<path d="M24.4511 8.80586C24.7377 8.80586 24.97 8.57349 24.97 8.28687C24.97 8.00025 24.7377 7.76794 24.4511 7.76794C24.1644 7.76794 23.9321 8.00025 23.9321 8.28687C23.9321 8.57349 24.1644 8.80586 24.4511 8.80586Z" fill="#DBDBDB"/>
<path d="M24.4511 11.9196C24.7377 11.9196 24.97 11.6873 24.97 11.4006C24.97 11.114 24.7377 10.8817 24.4511 10.8817C24.1644 10.8817 23.9321 11.114 23.9321 11.4006C23.9321 11.6873 24.1644 11.9196 24.4511 11.9196Z" fill="#DBDBDB"/>
<path d="M24.4511 15.0335C24.7377 15.0335 24.97 14.8011 24.97 14.5145C24.97 14.2279 24.7377 13.9956 24.4511 13.9956C24.1644 13.9956 23.9321 14.2279 23.9321 14.5145C23.9321 14.8011 24.1644 15.0335 24.4511 15.0335Z" fill="#DBDBDB"/>
<path d="M24.4511 18.1471C24.7377 18.1471 24.97 17.9147 24.97 17.6281C24.97 17.3415 24.7377 17.1091 24.4511 17.1091C24.1644 17.1091 23.9321 17.3415 23.9321 17.6281C23.9321 17.9147 24.1644 18.1471 24.4511 18.1471Z" fill="#DBDBDB"/>
<path d="M24.4511 21.2607C24.7377 21.2607 24.97 21.0283 24.97 20.7418C24.97 20.4552 24.7377 20.2228 24.4511 20.2228C24.1644 20.2228 23.9321 20.4552 23.9321 20.7418C23.9321 21.0283 24.1644 21.2607 24.4511 21.2607Z" fill="#DBDBDB"/>
<path d="M24.4511 24.3747C24.7377 24.3747 24.97 24.1424 24.97 23.8558C24.97 23.5692 24.7377 23.3368 24.4511 23.3368C24.1644 23.3368 23.9321 23.5692 23.9321 23.8558C23.9321 24.1424 24.1644 24.3747 24.4511 24.3747Z" fill="#DBDBDB"/>
<path d="M27.5668 2.57843C27.8534 2.57843 28.0858 2.34609 28.0858 2.05948C28.0858 1.77287 27.8534 1.54053 27.5668 1.54053C27.2802 1.54053 27.0479 1.77287 27.0479 2.05948C27.0479 2.34609 27.2802 2.57843 27.5668 2.57843Z" fill="#DBDBDB"/>
<path d="M27.5668 5.6922C27.8534 5.6922 28.0858 5.45986 28.0858 5.17325C28.0858 4.88664 27.8534 4.6543 27.5668 4.6543C27.2802 4.6543 27.0479 4.88664 27.0479 5.17325C27.0479 5.45986 27.2802 5.6922 27.5668 5.6922Z" fill="#DBDBDB"/>
<path d="M27.5668 8.80586C27.8534 8.80586 28.0858 8.57349 28.0858 8.28687C28.0858 8.00025 27.8534 7.76794 27.5668 7.76794C27.2802 7.76794 27.0479 8.00025 27.0479 8.28687C27.0479 8.57349 27.2802 8.80586 27.5668 8.80586Z" fill="#DBDBDB"/>
<path d="M27.5668 11.9196C27.8534 11.9196 28.0858 11.6873 28.0858 11.4006C28.0858 11.114 27.8534 10.8817 27.5668 10.8817C27.2802 10.8817 27.0479 11.114 27.0479 11.4006C27.0479 11.6873 27.2802 11.9196 27.5668 11.9196Z" fill="#DBDBDB"/>
<path d="M27.5668 15.0335C27.8534 15.0335 28.0858 14.8011 28.0858 14.5145C28.0858 14.2279 27.8534 13.9956 27.5668 13.9956C27.2802 13.9956 27.0479 14.2279 27.0479 14.5145C27.0479 14.8011 27.2802 15.0335 27.5668 15.0335Z" fill="#DBDBDB"/>
<path d="M27.5668 18.1471C27.8534 18.1471 28.0858 17.9147 28.0858 17.6281C28.0858 17.3415 27.8534 17.1091 27.5668 17.1091C27.2802 17.1091 27.0479 17.3415 27.0479 17.6281C27.0479 17.9147 27.2802 18.1471 27.5668 18.1471Z" fill="#DBDBDB"/>
<path d="M27.5668 21.2607C27.8534 21.2607 28.0858 21.0283 28.0858 20.7418C28.0858 20.4552 27.8534 20.2228 27.5668 20.2228C27.2802 20.2228 27.0479 20.4552 27.0479 20.7418C27.0479 21.0283 27.2802 21.2607 27.5668 21.2607Z" fill="#DBDBDB"/>
<path d="M27.5668 24.3747C27.8534 24.3747 28.0858 24.1424 28.0858 23.8558C28.0858 23.5692 27.8534 23.3368 27.5668 23.3368C27.2802 23.3368 27.0479 23.5692 27.0479 23.8558C27.0479 24.1424 27.2802 24.3747 27.5668 24.3747Z" fill="#DBDBDB"/>
<path d="M23.5802 11.8933H7.41383C6.57988 11.8933 5.90381 12.5706 5.90381 13.4061V17.2935C5.90381 18.129 6.57988 18.8063 7.41383 18.8063H23.5802C24.4141 18.8063 25.0902 18.129 25.0902 17.2935V13.4061C25.0902 12.5706 24.4141 11.8933 23.5802 11.8933Z" fill="#0048BE"/>
<path d="M17.1516 14.5259H13.2279C13.0265 14.5259 12.8633 14.6894 12.8633 14.8912V15.8363C12.8633 16.038 13.0265 16.2015 13.2279 16.2015H17.1516C17.353 16.2015 17.5161 16.038 17.5161 15.8363V14.8912C17.5161 14.6894 17.353 14.5259 17.1516 14.5259Z" fill="white"/>
<path d="M23.5802 18.8063H7.41383C6.57988 18.8063 5.90381 19.4836 5.90381 20.3191V24.2064C5.90381 25.042 6.57988 25.7193 7.41383 25.7193H23.5802C24.4141 25.7193 25.0902 25.042 25.0902 24.2064V20.3191C25.0902 19.4836 24.4141 18.8063 23.5802 18.8063Z" fill="#05194B"/>
<path d="M23.5802 25.7192H7.41383C6.57988 25.7192 5.90381 26.3966 5.90381 27.2321V31.1194C5.90381 31.9549 6.57988 32.6323 7.41383 32.6323H23.5802C24.4141 32.6323 25.0902 31.9549 25.0902 31.1194V27.2321C25.0902 26.3966 24.4141 25.7192 23.5802 25.7192Z" fill="#0048BE"/>
<path d="M9.12972 15.3002C9.12972 15.4572 9.08324 15.6108 8.99614 15.7414C8.9091 15.872 8.78528 15.9737 8.64043 16.0338C8.49557 16.0939 8.33621 16.1097 8.18248 16.079C8.02869 16.0484 7.88741 15.9728 7.77658 15.8617C7.66576 15.7506 7.5902 15.6091 7.55968 15.4551C7.52908 15.301 7.54476 15.1414 7.60478 14.9962C7.66479 14.8512 7.76634 14.7272 7.89669 14.6398C8.02704 14.5526 8.18028 14.506 8.33703 14.506C8.54727 14.506 8.74891 14.5897 8.89762 14.7386C9.04626 14.8875 9.12972 15.0895 9.12972 15.3002Z" fill="#05194B"/>
<path d="M11.7655 15.3636C11.7655 15.5207 11.719 15.6743 11.6319 15.8048C11.5448 15.9355 11.421 16.0372 11.2762 16.0973C11.1313 16.1574 10.9719 16.1731 10.8182 16.1425C10.6644 16.1119 10.5231 16.0362 10.4123 15.9251C10.3015 15.8141 10.2259 15.6726 10.1954 15.5186C10.1648 15.3646 10.1805 15.2048 10.2405 15.0597C10.3005 14.9147 10.4021 14.7906 10.5324 14.7033C10.6628 14.6161 10.816 14.5695 10.9728 14.5695C11.183 14.5695 11.3847 14.6531 11.5334 14.8021C11.682 14.951 11.7655 15.153 11.7655 15.3636Z" fill="#05194B"/>
<path d="M17.1516 21.4349H13.2279C13.0265 21.4349 12.8633 21.5985 12.8633 21.8003V22.7453C12.8633 22.947 13.0265 23.1106 13.2279 23.1106H17.1516C17.353 23.1106 17.5161 22.947 17.5161 22.7453V21.8003C17.5161 21.5985 17.353 21.4349 17.1516 21.4349Z" fill="white"/>
<path d="M9.12972 22.2012C9.12972 22.3583 9.08324 22.5118 8.99614 22.6424C8.9091 22.773 8.78528 22.8748 8.64043 22.9349C8.49557 22.995 8.33621 23.0108 8.18248 22.9801C8.02869 22.9494 7.88741 22.8738 7.77658 22.7628C7.66576 22.6517 7.5902 22.5102 7.55968 22.3561C7.52908 22.2021 7.54476 22.0424 7.60478 21.8974C7.66479 21.7522 7.76634 21.6281 7.89669 21.5409C8.02704 21.4536 8.18028 21.4071 8.33703 21.4071C8.54727 21.4071 8.74891 21.4908 8.89762 21.6397C9.04626 21.7886 9.12972 21.9906 9.12972 22.2012Z" fill="#0048BE"/>
<path d="M11.7655 22.2766C11.7655 22.4336 11.719 22.5872 11.6319 22.7178C11.5448 22.8483 11.421 22.9502 11.2762 23.0103C11.1313 23.0703 10.9719 23.0861 10.8182 23.0554C10.6644 23.0248 10.5231 22.9492 10.4123 22.8381C10.3015 22.7271 10.2259 22.5855 10.1954 22.4315C10.1648 22.2774 10.1805 22.1177 10.2405 21.9727C10.3005 21.8275 10.4021 21.7035 10.5324 21.6163C10.6628 21.529 10.816 21.4824 10.9728 21.4824C11.183 21.4824 11.3847 21.5661 11.5334 21.715C11.682 21.864 11.7655 22.0659 11.7655 22.2766Z" fill="#0048BE"/>
<path d="M17.1516 28.3479H13.2279C13.0265 28.3479 12.8633 28.5115 12.8633 28.7132V29.6582C12.8633 29.86 13.0265 30.0235 13.2279 30.0235H17.1516C17.353 30.0235 17.5161 29.86 17.5161 29.6582V28.7132C17.5161 28.5115 17.353 28.3479 17.1516 28.3479Z" fill="white"/>
<path d="M9.12972 29.1222C9.12972 29.2792 9.08324 29.4327 8.99614 29.5634C8.9091 29.6939 8.78528 29.7957 8.64043 29.8559C8.49557 29.916 8.33621 29.9317 8.18248 29.9011C8.02869 29.8704 7.88741 29.7948 7.77658 29.6838C7.66576 29.5727 7.5902 29.4312 7.55968 29.2771C7.52908 29.123 7.54476 28.9634 7.60478 28.8183C7.66479 28.6731 7.76634 28.5491 7.89669 28.4619C8.02704 28.3746 8.18028 28.328 8.33703 28.328C8.54727 28.328 8.74891 28.4117 8.89762 28.5607C9.04626 28.7096 9.12972 28.9116 9.12972 29.1222Z" fill="#05194B"/>
<path d="M11.7655 29.1857C11.7655 29.3428 11.719 29.4963 11.6319 29.627C11.5448 29.7575 11.421 29.8593 11.2762 29.9194C11.1313 29.9796 10.9719 29.9953 10.8182 29.9646C10.6644 29.934 10.5231 29.8583 10.4123 29.7473C10.3015 29.6363 10.2259 29.4948 10.1954 29.3407C10.1648 29.1866 10.1805 29.0269 10.2405 28.8819C10.3005 28.7367 10.4021 28.6127 10.5324 28.5255C10.6628 28.4381 10.816 28.3916 10.9728 28.3916C11.183 28.3916 11.3847 28.4753 11.5334 28.6242C11.682 28.7732 11.7655 28.9752 11.7655 29.1857Z" fill="#05194B"/>
<path d="M30.7267 11.9686L30.2114 11.9449H30.1322H29.8309C29.7891 11.9368 29.746 11.9368 29.7042 11.9449C29.7061 11.929 29.7061 11.913 29.7042 11.8972C29.7042 11.79 29.6685 11.6867 29.6486 11.5835C29.6486 11.5517 29.6486 11.524 29.6288 11.4961C29.6288 11.3969 29.5773 11.3016 29.5496 11.2063C29.5925 11.2003 29.6341 11.1869 29.6725 11.1666L30.4651 10.7695C30.5268 10.7478 30.5777 10.703 30.6073 10.6446C30.6367 10.5862 30.6427 10.5185 30.6236 10.4558L30.1163 9.46312C30.0775 9.41053 30.0197 9.37533 29.9552 9.36488C29.8908 9.3545 29.8248 9.36983 29.7715 9.40757L28.9788 9.8046C28.9427 9.82688 28.9094 9.85355 28.8798 9.88408L28.7965 9.78879C28.7608 9.73716 28.7212 9.68945 28.6816 9.6418L28.638 9.59017C28.6043 9.5525 28.5686 9.51668 28.531 9.48299L28.5627 9.50685L28.4834 9.43535L28.4121 9.35993L28.4359 9.3877L28.3725 9.32019C28.4073 9.29585 28.437 9.26478 28.4596 9.22889L28.5905 9.02635L28.642 8.94695L28.9472 8.47443C28.9889 8.42362 29.0098 8.35872 29.0053 8.293C29.0008 8.22727 28.9716 8.16581 28.9234 8.12105L27.984 7.50959C27.9229 7.48367 27.8542 7.4825 27.7921 7.50615C27.7301 7.5298 27.6796 7.57655 27.6511 7.63664L27.1676 8.38712C27.144 8.42369 27.1267 8.46398 27.1161 8.50619H27.0725C26.9893 8.47051 26.91 8.43868 26.8268 8.4109L26.6841 8.36725L26.4344 8.29575H26.3947C26.4119 8.2567 26.4226 8.21517 26.4265 8.17268V7.93048V7.79545L26.4502 7.27529C26.4502 7.11648 26.371 6.98544 26.2561 6.98145L25.1503 6.9259C25.0314 6.9259 24.9323 7.04099 24.9244 7.19987L24.8768 8.09328C24.8701 8.13535 24.8701 8.17818 24.8768 8.22033H24.7738L24.5677 8.26L24.3695 8.29973L24.1555 8.36326H24.1357C24.1317 8.31857 24.1182 8.27526 24.0961 8.23621L23.989 8.02178L23.9573 7.96224L23.6918 7.43809C23.6693 7.37601 23.6239 7.32486 23.5649 7.29537C23.5059 7.2658 23.4379 7.26003 23.3748 7.27928L22.3839 7.78755C22.332 7.8277 22.2973 7.88627 22.287 7.95124C22.2767 8.01614 22.2915 8.08255 22.3284 8.13693L22.5623 8.59756V8.62533L22.7208 8.93505C22.7404 8.97424 22.7673 9.0093 22.8001 9.03825C22.697 9.11373 22.6019 9.19314 22.5068 9.27653C22.4116 9.35986 22.3205 9.45522 22.2373 9.54652C22.2115 9.51152 22.1792 9.48189 22.1421 9.4592L21.94 9.32817L21.8251 9.25268L21.4288 8.97871C21.381 8.93375 21.3179 8.90879 21.2524 8.90879C21.1869 8.90879 21.1238 8.93375 21.076 8.97871L20.4736 9.91584C20.4477 9.976 20.446 10.0439 20.4689 10.1053C20.4918 10.1668 20.5375 10.2169 20.5965 10.2454L21.0285 10.5273H21.0562L21.3495 10.7179C21.3858 10.7412 21.4261 10.7573 21.4684 10.7655C21.3691 10.999 21.2909 11.2408 21.2346 11.4882C21.1942 11.4711 21.1514 11.4604 21.1077 11.4564L20.216 11.4127C20.0575 11.4127 19.9267 11.4921 19.9188 11.6074L19.8633 12.7191C19.8633 12.8343 19.9782 12.9336 20.1367 12.9454L20.652 12.9693H20.7629H21.0324C21.0744 12.9773 21.1174 12.9773 21.1593 12.9693C21.1908 13.2209 21.2438 13.4693 21.3178 13.7118C21.275 13.7163 21.2334 13.7284 21.1949 13.7476L20.4023 14.1446C20.3399 14.1655 20.2884 14.2101 20.2587 14.2689C20.229 14.3276 20.2237 14.3956 20.2437 14.4583L20.751 15.451C20.79 15.5045 20.8482 15.5406 20.9134 15.5518C20.9785 15.5628 21.0454 15.5481 21.0998 15.5105L21.8925 15.1135C21.9287 15.0912 21.9619 15.0645 21.9916 15.0341C22.0669 15.1333 22.1461 15.2326 22.2333 15.3278L22.3443 15.4431C22.3318 15.4278 22.317 15.4144 22.3007 15.4033L22.3879 15.4867L22.4672 15.5661L22.4275 15.5265L22.4989 15.5979C22.464 15.6222 22.4344 15.6533 22.4116 15.6892L22.2809 15.8917L22.2175 15.991L21.9282 16.4397C21.8821 16.4877 21.8564 16.5518 21.8564 16.6184C21.8564 16.685 21.8821 16.749 21.9282 16.7971L22.8595 17.4006C22.9202 17.4268 22.9886 17.4286 23.0505 17.4056C23.1125 17.3827 23.1633 17.3369 23.1924 17.2775L23.676 16.5231C23.7002 16.4872 23.7164 16.4466 23.7235 16.4039L23.8107 16.4357L23.9771 16.5032C24.0683 16.535 24.1635 16.5628 24.2546 16.5866L24.3735 16.6223H24.4448C24.4291 16.6616 24.4198 16.7032 24.4171 16.7454V16.9877V17.1226L24.3934 17.623C24.3934 17.7778 24.4726 17.9128 24.5915 17.9168L25.7012 17.9724C25.8161 17.9724 25.9152 17.8572 25.9232 17.6984L25.9707 16.805C25.9706 16.7618 25.9639 16.719 25.9509 16.678H26.042C26.1134 16.678 26.1847 16.6501 26.2601 16.6382L26.4463 16.6025L26.688 16.531C26.6928 16.575 26.7049 16.618 26.7237 16.6581L26.8347 16.8724L26.8981 16.9956L27.1319 17.4562C27.1544 17.5181 27.2001 17.569 27.2593 17.5978C27.3184 17.6268 27.3865 17.6314 27.449 17.611L28.4359 17.1067C28.4885 17.0671 28.5239 17.0088 28.535 16.9439C28.546 16.8789 28.5318 16.8122 28.4953 16.7574L28.099 15.9632C28.0795 15.924 28.0525 15.889 28.0197 15.86C28.2239 15.7099 28.4124 15.5397 28.5825 15.3517C28.6083 15.3867 28.6407 15.4163 28.6777 15.4391L28.8758 15.5741L28.9947 15.6455L29.4109 15.9195C29.4611 15.9619 29.5255 15.9834 29.5911 15.9797C29.6567 15.976 29.7184 15.9474 29.7636 15.8996L30.366 14.9626C30.3919 14.9023 30.3936 14.8344 30.3707 14.773C30.3478 14.7116 30.3021 14.6614 30.2432 14.633L29.8112 14.3511L29.7794 14.3312L29.4901 14.1446C29.4535 14.122 29.4133 14.1059 29.3712 14.0969C29.4069 14.0135 29.4426 13.9342 29.4703 13.8547C29.498 13.7753 29.4703 13.8071 29.4901 13.7872C29.5297 13.6761 29.5614 13.5689 29.5892 13.4576C29.5911 13.4299 29.5911 13.402 29.5892 13.3743C29.6296 13.3914 29.6723 13.4021 29.7161 13.4061L30.6078 13.4497C30.7663 13.4497 30.897 13.3703 30.901 13.2552L30.9605 12.1433C31.0041 12.0798 30.8812 11.9766 30.7267 11.9686ZM27.4569 14.7045C27.0156 15.1043 26.4659 15.3639 25.8773 15.4506C25.2886 15.5374 24.6875 15.4473 24.15 15.1918C23.6125 14.9362 23.1627 14.5268 22.8574 14.0152C22.5522 13.5036 22.4052 12.9127 22.4352 12.3173C22.4651 11.722 22.6706 11.1489 23.0256 10.6706C23.3806 10.1924 23.8692 9.83025 24.4297 9.63012C24.9901 9.42998 25.5972 9.40083 26.1741 9.54645C26.7511 9.69206 27.272 10.0057 27.6709 10.4479C27.9363 10.7413 28.1414 11.0841 28.2743 11.4569C28.4072 11.8298 28.4654 12.2253 28.4455 12.6207C28.4256 13.0161 28.3281 13.4037 28.1584 13.7612C27.9888 14.1188 27.7504 14.4393 27.4569 14.7045Z" fill="#061137"/>
</g>
</g>
</g>
<defs>
<clipPath id="clip0_1228_16323">
<rect width="33" height="33" fill="white"/>
</clipPath>
</defs>
</svg>
