<svg width="46" height="46" viewBox="0 0 46 46" fill="none" xmlns="http://www.w3.org/2000/svg">
<path d="M24.0931 29.8295C25.6993 29.8295 27.0569 29.275 28.166 28.166C29.275 27.0569 29.8295 25.6993 29.8295 24.0931V11.4729H34.476C35.1262 11.4729 35.6616 11.2534 36.0822 10.8143C36.5029 10.3738 36.7133 9.82844 36.7133 9.17831C36.7133 8.52818 36.493 7.98284 36.0524 7.54228C35.6134 7.10325 35.0688 6.88374 34.4187 6.88374H29.8295C29.1794 6.88374 28.6348 7.10325 28.1958 7.54228C27.7552 7.98284 27.5349 8.52818 27.5349 9.17831V19.5039C27.0378 19.1215 26.5024 18.8347 25.9287 18.6435C25.3551 18.4522 24.7432 18.3566 24.0931 18.3566C22.4869 18.3566 21.1292 18.9112 20.0202 20.0202C18.9112 21.1292 18.3566 22.4869 18.3566 24.0931C18.3566 25.6993 18.9112 27.0569 20.0202 28.166C21.1292 29.275 22.4869 29.8295 24.0931 29.8295ZM13.7675 36.7133C12.5055 36.7133 11.4255 36.2643 10.5275 35.3663C9.62805 34.4669 9.17831 33.3861 9.17831 32.1241V4.58916C9.17831 3.32714 9.62805 2.24639 10.5275 1.34692C11.4255 0.448972 12.5055 0 13.7675 0H41.3024C42.5644 0 43.6452 0.448972 44.5447 1.34692C45.4426 2.24639 45.8916 3.32714 45.8916 4.58916V32.1241C45.8916 33.3861 45.4426 34.4669 44.5447 35.3663C43.6452 36.2643 42.5644 36.7133 41.3024 36.7133H13.7675ZM4.58916 45.8916C3.32714 45.8916 2.24716 45.4426 1.34921 44.5447C0.449738 43.6452 0 42.5644 0 41.3024V11.4155C0 10.7654 0.22028 10.23 0.660839 9.80932C1.09987 9.38865 1.64445 9.17831 2.29458 9.17831C2.94471 9.17831 3.49005 9.39783 3.93061 9.83686C4.36964 10.2774 4.58916 10.8228 4.58916 11.4729V41.3024H34.476C35.1262 41.3024 35.6616 41.5227 36.0822 41.9633C36.5029 42.4023 36.7133 42.9469 36.7133 43.597C36.7133 44.2471 36.493 44.7917 36.0524 45.2307C35.6134 45.6713 35.0688 45.8916 34.4187 45.8916H4.58916Z" fill="#0095DA"/>
</svg>
