<svg width="70" height="48" viewBox="0 0 70 48" fill="none" xmlns="http://www.w3.org/2000/svg">
<path d="M54.4444 18V4C54.4444 1.8 52.6944 0 50.5556 0H3.88889C1.75 0 0 1.8 0 4V44C0 46.2 1.75 48 3.88889 48H50.5556C52.6944 48 54.4444 46.2 54.4444 44V30L63.35 39.16C65.8 41.68 70 39.88 70 36.32V11.64C70 8.08 65.8 6.28 63.35 8.8L54.4444 18ZM38.8889 28H31.1111V36C31.1111 38.2 29.3611 40 27.2222 40C25.0833 40 23.3333 38.2 23.3333 36V28H15.5556C13.4167 28 11.6667 26.2 11.6667 24C11.6667 21.8 13.4167 20 15.5556 20H23.3333V12C23.3333 9.8 25.0833 8 27.2222 8C29.3611 8 31.1111 9.8 31.1111 12V20H38.8889C41.0278 20 42.7778 21.8 42.7778 24C42.7778 26.2 41.0278 28 38.8889 28Z" fill="#0095DA"/>
</svg>
