<svg width="84" height="83" viewBox="0 0 84 83" fill="none" xmlns="http://www.w3.org/2000/svg">
<path d="M67.4168 47.7057C66.3781 47.7057 65.3818 48.1183 64.6473 48.8529C63.9128 49.5874 63.5002 50.5836 63.5002 51.6224V53.1107L57.7035 47.314C55.6567 45.2834 52.8904 44.144 50.0072 44.144C47.1241 44.144 44.3578 45.2834 42.311 47.314L39.5693 50.0557L29.856 40.3424C27.7806 38.3668 25.025 37.265 22.1597 37.265C19.2944 37.265 16.5389 38.3668 14.4635 40.3424L8.66683 46.139V24.2057C8.66683 23.1669 9.07948 22.1707 9.814 21.4362C10.5485 20.7017 11.5447 20.289 12.5835 20.289H40.0002C41.0389 20.289 42.0351 19.8764 42.7697 19.1419C43.5042 18.4073 43.9168 17.4111 43.9168 16.3724C43.9168 15.3336 43.5042 14.3374 42.7697 13.6029C42.0351 12.8683 41.0389 12.4557 40.0002 12.4557H12.5835C9.4672 12.4557 6.47854 13.6936 4.27499 15.8972C2.07144 18.1007 0.833496 21.0894 0.833496 24.2057V71.2057C0.833496 74.322 2.07144 77.3106 4.27499 79.5142C6.47854 81.7178 9.4672 82.9557 12.5835 82.9557H59.5835C62.6998 82.9557 65.6885 81.7178 67.892 79.5142C70.0956 77.3106 71.3335 74.322 71.3335 71.2057V51.6224C71.3335 50.5836 70.9209 49.5874 70.1863 48.8529C69.4518 48.1183 68.4556 47.7057 67.4168 47.7057ZM12.5835 75.1224C11.5447 75.1224 10.5485 74.7097 9.814 73.9752C9.07948 73.2407 8.66683 72.2445 8.66683 71.2057V57.2232L20.0252 45.8649C20.6006 45.3165 21.3649 45.0106 22.1597 45.0106C22.9546 45.0106 23.7189 45.3165 24.2943 45.8649L36.7102 58.2807L53.5518 75.1224H12.5835ZM63.5002 71.2057C63.4945 71.9554 63.2473 72.6834 62.7952 73.2815L45.131 55.539L47.8727 52.7974C48.1535 52.5108 48.4886 52.2831 48.8585 52.1277C49.2284 51.9722 49.6256 51.8922 50.0268 51.8922C50.4281 51.8922 50.8252 51.9722 51.1951 52.1277C51.565 52.2831 51.9002 52.5108 52.181 52.7974L63.5002 64.1949V71.2057ZM81.9477 13.5915L70.1977 1.84152C69.8252 1.48495 69.3859 1.20543 68.9052 1.01902C67.9516 0.627285 66.8821 0.627285 65.9285 1.01902C65.4477 1.20543 65.0085 1.48495 64.636 1.84152L52.886 13.5915C52.1485 14.329 51.7341 15.3293 51.7341 16.3724C51.7341 17.4154 52.1485 18.4157 52.886 19.1532C53.6235 19.8907 54.6238 20.305 55.6668 20.305C56.7098 20.305 57.7101 19.8907 58.4477 19.1532L63.5002 14.0615V35.9557C63.5002 36.9944 63.9128 37.9907 64.6473 38.7252C65.3818 39.4597 66.3781 39.8724 67.4168 39.8724C68.4556 39.8724 69.4518 39.4597 70.1863 38.7252C70.9209 37.9907 71.3335 36.9944 71.3335 35.9557V14.0615L76.386 19.1532C76.7501 19.5203 77.1833 19.8117 77.6606 20.0105C78.1379 20.2094 78.6498 20.3117 79.1668 20.3117C79.6839 20.3117 80.1958 20.2094 80.6731 20.0105C81.1504 19.8117 81.5836 19.5203 81.9477 19.1532C82.3148 18.7891 82.6061 18.3559 82.805 17.8786C83.0038 17.4013 83.1062 16.8894 83.1062 16.3724C83.1062 15.8553 83.0038 15.3434 82.805 14.8661C82.6061 14.3888 82.3148 13.9556 81.9477 13.5915Z" fill="#0095DA"/>
</svg>
