<svg width="80" height="69" viewBox="0 0 80 69" fill="none" xmlns="http://www.w3.org/2000/svg">
<path d="M26.1409 0C27.6061 0 29.0331 0.43742 30.2307 1.24711L30.7276 1.61939L38.2925 7.75568H69.2781C71.0071 7.75513 72.678 8.36337 73.9827 9.46826C75.2875 10.5731 76.1382 12.1002 76.3779 13.7679L76.4289 14.258L76.4448 14.7358V32.2698C75.0309 30.7843 73.4249 29.4839 71.667 28.4013V14.7358C71.667 14.1735 71.4579 13.6303 71.0785 13.2066C70.699 12.7829 70.1749 12.5073 69.603 12.4308L69.2781 12.4091H38.2893L30.7276 18.5485C29.604 19.4591 28.2214 20.0133 26.7652 20.1369L26.1409 20.1648L4.7778 20.1617V55.0653C4.7778 56.2442 5.67603 57.2183 6.84181 57.3703L7.1667 57.392H37.0248C37.7701 59.0549 38.7129 60.6184 39.815 62.0486L7.1667 62.0455C5.35073 62.0457 3.60239 61.3744 2.27502 60.1674C0.947642 58.9604 0.140219 57.3076 0.0159264 55.5431L5.41442e-08 55.0653V6.98011C-0.000223034 5.21143 0.688944 3.50861 1.92822 2.21579C3.1675 0.922971 4.86447 0.136569 6.67618 0.0155117L7.1667 0H26.1409ZM26.1409 4.65341H7.1667C6.58942 4.65343 6.03168 4.85705 5.59662 5.22661C5.16156 5.59616 4.87861 6.10666 4.8001 6.66368L4.7778 6.98011V15.5083L26.1409 15.5114C26.5856 15.5108 27.0214 15.3894 27.3991 15.1608L27.6698 14.9747L33.693 10.0793L27.673 5.1932C27.3303 4.91463 26.9143 4.73516 26.4722 4.67512L26.1409 4.65341ZM79.63 48.0852C79.63 53.4333 77.4487 58.5622 73.566 62.3439C69.6833 66.1255 64.4172 68.25 58.9262 68.25C53.4352 68.25 48.1691 66.1255 44.2864 62.3439C40.4037 58.5622 38.2224 53.4333 38.2224 48.0852C38.2224 42.7372 40.4037 37.6082 44.2864 33.8266C48.1691 30.045 53.4352 27.9205 58.9262 27.9205C64.4172 27.9205 69.6833 30.045 73.566 33.8266C77.4487 37.6082 79.63 42.7372 79.63 48.0852ZM57.3336 39.4206V60.4943C57.3336 60.9057 57.5014 61.3002 57.8001 61.5911C58.0987 61.882 58.5038 62.0455 58.9262 62.0455C59.3486 62.0455 59.7537 61.882 60.0523 61.5911C60.351 61.3002 60.5188 60.9057 60.5188 60.4943V39.4206L67.3542 46.0812C67.6533 46.3724 68.0589 46.536 68.4818 46.536C68.9047 46.536 69.3103 46.3724 69.6094 46.0812C69.9084 45.7899 70.0764 45.3949 70.0764 44.983C70.0764 44.571 69.9084 44.176 69.6094 43.8848L60.0538 34.5779C59.7569 34.2895 59.3551 34.1267 58.9358 34.125H58.9166C58.4983 34.1272 58.0977 34.2899 57.8018 34.5779L48.2462 43.8848C47.9472 44.1756 47.779 44.5702 47.7787 44.9819C47.7784 45.3935 47.946 45.7883 48.2446 46.0796C48.5433 46.3709 48.9484 46.5347 49.3711 46.535C49.7937 46.5352 50.1991 46.372 50.4982 46.0812L57.3336 39.4206Z" fill="#0095DA"/>
</svg>
