<svg width="185" height="112" viewBox="0 0 185 112" fill="none" xmlns="http://www.w3.org/2000/svg">
<g clip-path="url(#clip0_1246_66494)">
<path d="M184.678 87.12C184.682 87.8634 184.391 88.5779 183.868 89.1064C183.345 89.6348 182.633 89.9338 181.89 89.9377H59.2072C58.8391 89.9358 58.475 89.8614 58.1357 89.7188C57.7963 89.5761 57.4884 89.3681 57.2295 89.1064C56.9706 88.8448 56.7657 88.5347 56.6266 88.1939C56.4875 87.8531 56.4169 87.4882 56.4188 87.1201V3.31772C56.4149 2.5743 56.7065 1.85979 57.2294 1.33136C57.7523 0.802939 58.4637 0.503888 59.2071 0.5H181.89C182.258 0.501915 182.622 0.576315 182.961 0.718951C183.301 0.861586 183.609 1.06967 183.868 1.33131C184.126 1.59295 184.331 1.90303 184.47 2.24385C184.61 2.58466 184.68 2.94954 184.678 3.31764V87.12Z" fill="#E6E6E6"/>
<path d="M183.231 85.7477C183.231 86.4703 182.944 87.1633 182.433 87.6743C181.922 88.1852 181.229 88.4723 180.507 88.4723H60.6745C59.9519 88.4723 59.259 88.1852 58.748 87.6743C58.2371 87.1633 57.9501 86.4703 57.9501 85.7477V4.72842C57.9501 4.00584 58.2371 3.31285 58.748 2.8019C59.259 2.29095 59.9519 2.00391 60.6745 2.00391H180.512C181.234 2.00536 181.925 2.29304 182.435 2.80383C182.945 3.31462 183.231 4.00679 183.231 4.72842V85.7477Z" fill="white"/>
<path d="M64.3546 5.52148H176.954C177.383 5.52148 177.795 5.69186 178.098 5.99514C178.401 6.29842 178.571 6.70975 178.571 7.13865V83.0232C178.571 83.4521 178.401 83.8634 178.098 84.1667C177.795 84.47 177.383 84.6404 176.954 84.6404H64.3546C63.9257 84.6404 63.5144 84.47 63.2111 84.1667C62.9079 83.8634 62.7375 83.4521 62.7375 83.0232V7.13865C62.7375 6.70975 62.9079 6.29842 63.2111 5.99514C63.5144 5.69186 63.9257 5.52148 64.3546 5.52148Z" fill="#E6E6E6"/>
<path d="M65.7799 7.3418H175.407C175.836 7.3418 176.247 7.51218 176.55 7.81546C176.853 8.11873 177.024 8.53007 177.024 8.95897V80.7942C177.024 81.2231 176.853 81.6344 176.55 81.9377C176.247 82.241 175.836 82.4114 175.407 82.4114H65.7799C65.351 82.4114 64.9397 82.241 64.6364 81.9377C64.3331 81.6344 64.1628 81.2231 64.1628 80.7942V8.95897C64.1628 8.53007 64.3331 8.11873 64.6364 7.81546C64.9397 7.51218 65.351 7.3418 65.7799 7.3418Z" fill="white"/>
<path d="M143.184 57.2443C142.752 57.244 142.326 57.1531 141.932 56.9774C141.84 56.9367 141.752 56.887 141.671 56.8291L133.703 51.2208C133.299 50.9363 132.97 50.5589 132.742 50.1204C132.514 49.6818 132.395 49.1949 132.395 48.7008V41.0522C132.395 40.5581 132.514 40.0712 132.742 39.6327C132.97 39.1941 133.299 38.8167 133.703 38.5323L141.671 32.9239C141.753 32.866 141.84 32.8163 141.932 32.7756C142.401 32.5669 142.915 32.4789 143.427 32.5194C143.939 32.5599 144.433 32.7277 144.863 33.0075C145.294 33.2874 145.648 33.6704 145.893 34.1218C146.138 34.5732 146.266 35.0787 146.266 35.5923V54.1608C146.266 54.9783 145.942 55.7624 145.364 56.3405C144.785 56.9185 144.001 57.2433 143.184 57.2433L143.184 57.2443Z" fill="#3F3D56"/>
<path d="M125.353 58.7478H103.132C98.5988 58.7441 94.9249 55.8135 94.9202 52.1974V37.5553C94.9249 33.9391 98.5988 31.0086 103.132 31.0049H125.411C129.912 31.0091 133.56 33.9187 133.565 37.5091V52.1974C133.561 55.8135 129.887 58.7441 125.353 58.7478Z" fill="#3F3D56"/>
<path d="M164.936 77.792C168.586 77.792 171.545 74.8331 171.545 71.1831C171.545 67.5331 168.586 64.5742 164.936 64.5742C161.286 64.5742 158.328 67.5331 158.328 71.1831C158.328 74.8331 161.286 77.792 164.936 77.792Z" fill="#E6E6E6"/>
<path d="M168.369 71.0647L163.101 68.0232C163.08 68.0112 163.057 68.0049 163.033 68.0049C163.009 68.0049 162.985 68.0112 162.964 68.0232C162.943 68.0352 162.926 68.0525 162.914 68.0733C162.902 68.0941 162.896 68.1177 162.896 68.1417V74.2246C162.896 74.2486 162.902 74.2722 162.914 74.293C162.926 74.3138 162.943 74.3311 162.964 74.3431C162.985 74.3551 163.009 74.3614 163.033 74.3614C163.057 74.3614 163.08 74.3551 163.101 74.3431L168.369 71.3016C168.39 71.2896 168.407 71.2723 168.419 71.2515C168.431 71.2308 168.437 71.2072 168.437 71.1832C168.437 71.1591 168.431 71.1356 168.419 71.1148C168.407 71.094 168.39 71.0767 168.369 71.0647L163.101 68.0232C163.08 68.0112 163.057 68.0049 163.033 68.0049C163.009 68.0049 162.985 68.0112 162.964 68.0232C162.943 68.0352 162.926 68.0525 162.914 68.0733C162.902 68.0941 162.896 68.1177 162.896 68.1417V74.2246C162.896 74.2486 162.902 74.2722 162.914 74.293C162.926 74.3138 162.943 74.3311 162.964 74.3431C162.985 74.3551 163.009 74.3614 163.033 74.3614C163.057 74.3614 163.08 74.3551 163.101 74.3431L168.369 71.3016C168.39 71.2896 168.407 71.2723 168.419 71.2515C168.431 71.2308 168.437 71.2072 168.437 71.1832C168.437 71.1591 168.431 71.1356 168.419 71.1148C168.407 71.094 168.39 71.0767 168.369 71.0647Z" fill="white"/>
<path d="M156.356 97.1698C156.359 97.9132 156.068 98.6277 155.545 99.1562C155.022 99.6846 154.311 99.9836 153.567 99.9875H30.8846C30.5165 99.9856 30.1524 99.9112 29.8131 99.7686C29.4737 99.6259 29.1658 99.4179 28.9069 99.1562C28.6479 98.8946 28.4431 98.5845 28.304 98.2437C28.1649 97.9029 28.0943 97.538 28.0962 97.1699V13.3675C28.0923 12.6241 28.3839 11.9096 28.9068 11.3812C29.4297 10.8527 30.1411 10.5537 30.8845 10.5498H153.567C153.935 10.5517 154.299 10.6261 154.639 10.7688C154.978 10.9114 155.286 11.1195 155.545 11.3811C155.804 11.6428 156.009 11.9528 156.148 12.2937C156.287 12.6345 156.357 12.9993 156.356 13.3674V97.1698Z" fill="#E6E6E6"/>
<path d="M154.908 95.7975C154.908 96.5201 154.621 97.2131 154.11 97.7241C153.6 98.235 152.907 98.5221 152.184 98.5221H32.3519C31.6293 98.5221 30.9364 98.235 30.4254 97.7241C29.9145 97.2131 29.6274 96.5201 29.6274 95.7975V14.7782C29.6274 14.0556 29.9145 13.3627 30.4254 12.8517C30.9364 12.3408 31.6293 12.0537 32.3519 12.0537H152.189C152.911 12.0552 153.603 12.3428 154.112 12.8536C154.622 13.3644 154.908 14.0566 154.908 14.7782V95.7975Z" fill="white"/>
<path d="M36.032 15.5713H148.632C149.061 15.5713 149.472 15.7417 149.775 16.0449C150.079 16.3482 150.249 16.7596 150.249 17.1885V93.073C150.249 93.5019 150.079 93.9133 149.775 94.2165C149.472 94.5198 149.061 94.6902 148.632 94.6902H36.032C35.6031 94.6902 35.1918 94.5198 34.8885 94.2165C34.5853 93.9133 34.4149 93.5019 34.4149 93.073V17.1885C34.4149 16.7596 34.5853 16.3482 34.8885 16.0449C35.1918 15.7417 35.6031 15.5713 36.032 15.5713Z" fill="#E6E6E6"/>
<path d="M37.4573 17.3916H147.084C147.513 17.3916 147.924 17.562 148.228 17.8653C148.531 18.1685 148.701 18.5799 148.701 19.0088V90.844C148.701 91.2729 148.531 91.6843 148.228 91.9875C147.924 92.2908 147.513 92.4612 147.084 92.4612H37.4573C37.0284 92.4612 36.6171 92.2908 36.3138 91.9875C36.0105 91.6843 35.8401 91.2729 35.8401 90.844V19.0088C35.8401 18.5799 36.0105 18.1685 36.3138 17.8653C36.6171 17.562 37.0284 17.3916 37.4573 17.3916Z" fill="white"/>
<path d="M114.861 67.2941C114.43 67.2938 114.003 67.2029 113.609 67.0272C113.517 66.9865 113.43 66.9368 113.348 66.8789L105.381 61.2706C104.977 60.9862 104.647 60.6087 104.419 60.1702C104.192 59.7316 104.073 59.2447 104.073 58.7506V51.102C104.073 50.6079 104.192 50.121 104.419 49.6825C104.647 49.2439 104.977 48.8665 105.381 48.5821L113.348 42.9738C113.43 42.9158 113.517 42.8661 113.609 42.8254C114.078 42.6167 114.592 42.5287 115.104 42.5692C115.616 42.6097 116.11 42.7775 116.541 43.0573C116.971 43.3372 117.325 43.7202 117.57 44.1716C117.815 44.623 117.944 45.1285 117.944 45.6421V64.2106C117.944 65.0281 117.619 65.8122 117.041 66.3903C116.463 66.9683 115.679 67.2931 114.861 67.2931L114.861 67.2941Z" fill="#3F3D56"/>
<path d="M97.0307 68.7976H74.8097C70.2762 68.7939 66.6022 65.8633 66.5976 62.2472V47.6051C66.6022 43.9889 70.2762 41.0584 74.8097 41.0547H97.0886C101.59 41.0589 105.237 43.9685 105.243 47.5589V62.2472C105.238 65.8633 101.564 68.7939 97.0307 68.7976Z" fill="#3F3D56"/>
<path d="M136.614 87.8418C140.264 87.8418 143.222 84.8829 143.222 81.2329C143.222 77.5829 140.264 74.624 136.614 74.624C132.964 74.624 130.005 77.5829 130.005 81.2329C130.005 84.8829 132.964 87.8418 136.614 87.8418Z" fill="#E6E6E6"/>
<path d="M140.046 81.1145L134.778 78.073C134.758 78.061 134.734 78.0547 134.71 78.0547C134.686 78.0547 134.662 78.061 134.642 78.073C134.621 78.085 134.604 78.1023 134.592 78.1231C134.58 78.1439 134.573 78.1675 134.573 78.1915V84.2744C134.573 84.2984 134.58 84.322 134.592 84.3428C134.604 84.3636 134.621 84.3809 134.642 84.3929C134.662 84.4049 134.686 84.4112 134.71 84.4112C134.734 84.4112 134.758 84.4049 134.778 84.3929L140.046 81.3514C140.067 81.3394 140.084 81.3222 140.096 81.3014C140.108 81.2806 140.115 81.257 140.115 81.233C140.115 81.209 140.108 81.1854 140.096 81.1646C140.084 81.1438 140.067 81.1265 140.046 81.1145L134.778 78.073C134.758 78.061 134.734 78.0547 134.71 78.0547C134.686 78.0547 134.662 78.061 134.642 78.073C134.621 78.085 134.604 78.1023 134.592 78.1231C134.58 78.1439 134.573 78.1675 134.573 78.1915V84.2744C134.573 84.2984 134.58 84.322 134.592 84.3428C134.604 84.3636 134.621 84.3809 134.642 84.3929C134.662 84.4049 134.686 84.4112 134.71 84.4112C134.734 84.4112 134.758 84.4049 134.778 84.3929L140.046 81.3514C140.067 81.3394 140.084 81.3222 140.096 81.3014C140.108 81.2806 140.115 81.257 140.115 81.233C140.115 81.209 140.108 81.1854 140.096 81.1646C140.084 81.1438 140.067 81.1265 140.046 81.1145Z" fill="white"/>
<path d="M128.581 108.683C128.585 109.426 128.293 110.14 127.771 110.669C127.248 111.197 126.536 111.496 125.793 111.5H3.11017C2.74208 111.498 2.37797 111.424 2.03863 111.281C1.69928 111.139 1.39136 110.931 1.13243 110.669C0.873504 110.407 0.668645 110.097 0.529551 109.756C0.390457 109.416 0.319852 109.051 0.321768 108.683V24.8802C0.317881 24.1368 0.609466 23.4223 1.13238 22.8939C1.65529 22.3654 2.3667 22.0664 3.1101 22.0625H125.793C126.161 22.0644 126.525 22.1388 126.864 22.2815C127.204 22.4241 127.512 22.6322 127.77 22.8938C128.029 23.1554 128.234 23.4655 128.373 23.8063C128.512 24.1472 128.583 24.512 128.581 24.8801V108.683Z" fill="#E6E6E6"/>
<path d="M127.134 107.31C127.134 108.033 126.847 108.726 126.336 109.237C125.825 109.748 125.132 110.035 124.41 110.035H4.57747C3.8549 110.035 3.16192 109.748 2.65099 109.237C2.14006 108.726 1.85302 108.033 1.85302 107.31V26.2909C1.85302 25.5683 2.14006 24.8753 2.65099 24.3644C3.16192 23.8535 3.8549 23.5664 4.57747 23.5664H124.415C125.137 23.5679 125.828 23.8555 126.338 24.3663C126.848 24.8771 127.134 25.5693 127.134 26.2909V107.31Z" fill="white"/>
<path d="M8.25758 27.084H120.857C121.286 27.084 121.698 27.2544 122.001 27.5576C122.304 27.8609 122.474 28.2723 122.474 28.7012V104.586C122.474 105.015 122.304 105.426 122.001 105.729C121.698 106.033 121.286 106.203 120.857 106.203H8.25758C7.82869 106.203 7.41736 106.033 7.11409 105.729C6.81082 105.426 6.64045 105.015 6.64045 104.586V28.7012C6.64045 28.2723 6.81082 27.8609 7.11409 27.5576C7.41736 27.2544 7.82869 27.084 8.25758 27.084Z" fill="#E6E6E6"/>
<path d="M9.68285 28.9033H119.31C119.522 28.9033 119.732 28.9451 119.928 29.0264C120.125 29.1077 120.303 29.2268 120.453 29.377C120.603 29.5271 120.722 29.7054 120.804 29.9016C120.885 30.0978 120.927 30.3081 120.927 30.5205V102.356C120.927 102.568 120.885 102.778 120.804 102.975C120.722 103.171 120.603 103.349 120.453 103.499C120.303 103.649 120.125 103.769 119.928 103.85C119.732 103.931 119.522 103.973 119.31 103.973H9.68285C9.25396 103.973 8.84263 103.803 8.53936 103.499C8.23609 103.196 8.06572 102.785 8.06572 102.356V30.5205C8.06572 30.0916 8.23609 29.6803 8.53936 29.377C8.84263 29.0737 9.25396 28.9033 9.68285 28.9033Z" fill="white"/>
<path d="M87.0868 78.8058C86.6554 78.8055 86.2287 78.7146 85.8346 78.539C85.7429 78.4982 85.6554 78.4486 85.5735 78.3906L77.6063 72.7823C77.2023 72.4979 76.8725 72.1205 76.6449 71.6819C76.4172 71.2433 76.2983 70.7565 76.2982 70.2623V62.6138C76.2983 62.1196 76.4172 61.6328 76.6449 61.1942C76.8725 60.7556 77.2023 60.3782 77.6063 60.0938L85.5735 54.4855C85.6554 54.4275 85.7429 54.3778 85.8346 54.3371C86.3039 54.1285 86.8179 54.0404 87.3299 54.0809C87.8419 54.1214 88.3357 54.2892 88.7663 54.569C89.197 54.8489 89.5509 55.2319 89.7959 55.6833C90.041 56.1347 90.1693 56.6402 90.1693 57.1538V75.7223C90.1693 76.5398 89.8445 77.3239 89.2665 77.902C88.6884 78.4801 87.9044 78.8048 87.0868 78.8048L87.0868 78.8058Z" fill="#0095DA"/>
<path d="M69.2562 80.3103H47.0353C42.5018 80.3066 38.8278 77.376 38.8232 73.7599V59.1178C38.8278 55.5016 42.5018 52.5711 47.0353 52.5674H69.3142C73.8154 52.5716 77.463 55.4812 77.4683 59.0716V73.7599C77.4637 77.376 73.7897 80.3066 69.2562 80.3103Z" fill="#023E7D"/>
<path d="M108.839 99.3545C112.489 99.3545 115.448 96.3956 115.448 92.7456C115.448 89.0956 112.489 86.1367 108.839 86.1367C105.189 86.1367 102.231 89.0956 102.231 92.7456C102.231 96.3956 105.189 99.3545 108.839 99.3545Z" fill="#3F3D56"/>
<path d="M112.272 92.6262L107.004 89.5847C106.983 89.5727 106.96 89.5664 106.936 89.5664C106.912 89.5664 106.888 89.5727 106.867 89.5847C106.846 89.5967 106.829 89.614 106.817 89.6348C106.805 89.6556 106.799 89.6792 106.799 89.7032V95.7862C106.799 95.8102 106.805 95.8338 106.817 95.8546C106.829 95.8754 106.846 95.8926 106.867 95.9046C106.888 95.9166 106.912 95.9229 106.936 95.9229C106.96 95.9229 106.983 95.9166 107.004 95.9046L112.272 92.8631C112.293 92.8511 112.31 92.8339 112.322 92.8131C112.334 92.7923 112.34 92.7687 112.34 92.7447C112.34 92.7207 112.334 92.6971 112.322 92.6763C112.31 92.6555 112.293 92.6382 112.272 92.6262L107.004 89.5847C106.983 89.5727 106.96 89.5664 106.936 89.5664C106.912 89.5664 106.888 89.5727 106.867 89.5847C106.846 89.5967 106.829 89.614 106.817 89.6348C106.805 89.6556 106.799 89.6792 106.799 89.7032V95.7862C106.799 95.8102 106.805 95.8338 106.817 95.8546C106.829 95.8754 106.846 95.8926 106.867 95.9046C106.888 95.9166 106.912 95.9229 106.936 95.9229C106.96 95.9229 106.983 95.9166 107.004 95.9046L112.272 92.8631C112.293 92.8511 112.31 92.8339 112.322 92.8131C112.334 92.7923 112.34 92.7687 112.34 92.7447C112.34 92.7207 112.334 92.6971 112.322 92.6763C112.31 92.6555 112.293 92.6382 112.272 92.6262Z" fill="white"/>
</g>
<defs>
<clipPath id="clip0_1246_66494">
<rect width="184.357" height="111" fill="white" transform="translate(0.321724 0.5)"/>
</clipPath>
</defs>
</svg>
