<svg width="241" height="240" viewBox="0 0 241 240" fill="none" xmlns="http://www.w3.org/2000/svg">
<g filter="url(#filter0_d_1260_65992)">
<path d="M132.549 138H107.511C103.363 138 100 134.643 100 130.5V105.5C100 101.358 103.363 98.0001 107.511 98.0001H132.549C136.698 98.0001 140.06 101.358 140.06 105.5V130.5C140.06 134.643 136.698 138 132.549 138Z" fill="#2A1D3B"/>
</g>
<path d="M124.75 116.5V113C124.75 112.735 124.645 112.481 124.457 112.293C124.27 112.105 124.015 112 123.75 112H111.75C111.485 112 111.23 112.105 111.043 112.293C110.855 112.481 110.75 112.735 110.75 113V123C110.75 123.265 110.855 123.52 111.043 123.707C111.23 123.895 111.485 124 111.75 124H123.75C124.015 124 124.27 123.895 124.457 123.707C124.645 123.52 124.75 123.265 124.75 123V119.5L128.75 123.5V112.5L124.75 116.5Z" fill="#F95F4F"/>
<defs>
<filter id="filter0_d_1260_65992" x="0" y="0.00012207" width="240.06" height="240" filterUnits="userSpaceOnUse" color-interpolation-filters="sRGB">
<feFlood flood-opacity="0" result="BackgroundImageFix"/>
<feColorMatrix in="SourceAlpha" type="matrix" values="0 0 0 0 0 0 0 0 0 0 0 0 0 0 0 0 0 0 127 0" result="hardAlpha"/>
<feOffset dy="2"/>
<feGaussianBlur stdDeviation="50"/>
<feComposite in2="hardAlpha" operator="out"/>
<feColorMatrix type="matrix" values="0 0 0 0 0 0 0 0 0 0 0 0 0 0 0 0 0 0 0.1 0"/>
<feBlend mode="normal" in2="BackgroundImageFix" result="effect1_dropShadow_1260_65992"/>
<feBlend mode="normal" in="SourceGraphic" in2="effect1_dropShadow_1260_65992" result="shape"/>
</filter>
</defs>
</svg>
